/* XPM */
static char *result[] = {
/* columns rows colors chars-per-pixel */
"48 48 150 2 ",
"   c #2F3F54",
".  c #434D5C",
"X  c #455C73",
"o  c #4A5E75",
"O  c #675F75",
"+  c #4C6279",
"@  c #566476",
"#  c #52657C",
"$  c #55697E",
"%  c #566B83",
"&  c #5B6E85",
"*  c #5A6F88",
"=  c #5F7185",
"-  c #5C718B",
";  c #736E85",
":  c #617285",
">  c #61758C",
",  c #6A7B8E",
"<  c #77768B",
"1  c #747E8E",
"2  c #627691",
"3  c #657994",
"4  c #697C95",
"5  c #697E98",
"6  c #717C90",
"7  c #797B93",
"8  c #867E8F",
"9  c #97778C",
"0  c #957E91",
"q  c #AA7387",
"w  c #AC7689",
"e  c #B77B8E",
"r  c #C67B90",
"t  c #D37F93",
"y  c #F4748B",
"u  c #F8758D",
"i  c #ED7B91",
"p  c #F57D93",
"a  c #6E829D",
"s  c #728295",
"d  c #788594",
"f  c #70849F",
"g  c #7B849B",
"h  c #77889D",
"j  c #7D8C9C",
"k  c #6B8BA8",
"l  c #7185A0",
"z  c #7689A2",
"x  c #7D8DA4",
"c  c #7F90A5",
"v  c #7FA8C5",
"b  c #83849A",
"n  c #8C8E9E",
"m  c #9C8096",
"M  c #90859A",
"N  c #83909F",
"B  c #A98193",
"V  c #A48E9D",
"C  c #B58092",
"Z  c #8392A4",
"A  c #8997A6",
"S  c #8495AB",
"D  c #8D9AAA",
"F  c #9898A5",
"G  c #919DAA",
"H  c #8E9DB1",
"J  c #B992A0",
"K  c #94A1AE",
"L  c #9EA4AD",
"P  c #87A0B6",
"I  c #87A6BD",
"U  c #95A3B5",
"Y  c #9BA6B2",
"T  c #9EA9B5",
"R  c #BFA0AE",
"E  c #A0ABB6",
"W  c #A2AEB9",
"Q  c #A9AFBA",
"!  c #B0ADBA",
"~  c #A6B1BB",
"^  c #AAB2BC",
"/  c #C88695",
"(  c #D68395",
")  c #DB8394",
"_  c #EE8D9D",
"`  c #F38194",
"'  c #FB8195",
"]  c #F48698",
"[  c #FB8699",
"{  c #F48B9C",
"}  c #FA8C9D",
"|  c #EB909C",
" . c #C696A0",
".. c #CE9BA4",
"X. c #CC9FAC",
"o. c #FD8FA0",
"O. c #EF91A1",
"+. c #F295A5",
"@. c #FD92A2",
"#. c #F599A7",
"$. c #FB99A4",
"%. c #F39BAA",
"&. c #FA9AA8",
"*. c #D8A2AB",
"=. c #E6A7AC",
"-. c #ECA3AC",
";. c #E7A8AD",
":. c #EBABAF",
">. c #F5A1AE",
",. c #FDA4A8",
"<. c #FFAAAD",
"1. c #EFA8B4",
"2. c #EEAFBA",
"3. c #F4A5B2",
"4. c #F4A8B4",
"5. c #F1AEB9",
"6. c #F8ACB8",
"7. c #FEB5B6",
"8. c #F3B3BD",
"9. c #ABB5C1",
"0. c #B5BDC6",
"q. c #B6BEC9",
"w. c #E3BEC6",
"e. c #F3B7C0",
"r. c #F3BBC4",
"t. c #F4BFC9",
"y. c #BEC3CB",
"u. c #BDC5D0",
"i. c #C2C8CE",
"p. c #C3CAD2",
"a. c #CCD1D6",
"s. c #CCD3D8",
"d. c #D0D5DC",
"f. c #D5D9DD",
"g. c #F1C1C7",
"h. c #F4C1CA",
"j. c #F2C9CF",
"k. c #F4CCD3",
"l. c #E3D3D8",
"z. c #F4D3D6",
"x. c #F5D4D9",
"c. c #F7D9DE",
"v. c #DADEE2",
"b. c #F5DDE1",
"n. c #F8DAE0",
"m. c #F6E2E3",
"M. c #F8E2E5",
"N. c #FAEDEE",
"B. c #FEFEFE",
"V. c None",
/* pixels */
"V.V.V.V.V.V.V.V.V.V.V.V.V.V.V.V.V.V.V.V.V.V.V.V.V.V.V.V.V.V.V.V.V.V.V.V.V.V.V.V.V.V.V.V.V.V.V.V.",
"V.V.V.V.V.V.V.V.V.V.V.V.V.V.V.V.V.V.V.V.V.V.V.V.V.V.V.V.V.V.V.V.V.V.V.V.V.V.V.V.V.V.V.V.V.V.V.V.",
"V.V.V.V.V.V.V.V.V.^ p.V.V.V.V.V.V.V.V.V.V.V.V.V.V.V.V.V.V.V.V.V.V.V.V.V.V.V.V.V.V.V.V.V.V.V.V.V.",
"V.V.V.V.V.V.V.V.U a 3 s.V.V.V.V.V.V.V.V.V.V.V.V.V.V.V.V.V.V.V.V.V.V.V.V.V.V.V.V.V.V.V.V.V.V.V.V.",
"V.V.V.V.V.V.V.V.c a = j U g x V.V.V.V.V.V.V.V.V.V.V.V.V.V.V.V.V.V.V.V.V.V.V.V.V.V.V.V.V.V.V.V.V.",
"V.V.V.V.V.V.V.~ h a - h V ..M S V.V.V.V.V.V.V.V.V.V.V.V.V.V.V.V.V.V.V.V.V.V.V.V.V.V.V.V.V.V.V.V.",
"V.V.V.V.V.V.~ h f 4 a b -.7.*.h V.V.V.V.V.V.V.V.V.V.V.V.V.V.V.V.V.V.V.V.V.V.V.V.V.V.V.V.V.V.V.V.",
"V.V.V.V.V.p.s a a a a B ,.7.:.b V.V.V.V.V.V.V.V.V.V.V.V.V.V.V.V.V.V.V.V.V.V.V.V.V.V.V.V.V.V.V.V.",
"V.V.V.V.V.D . @ f f f / <.7.;.n V.V.V.V.V.V.V.V.V.V.V.V.V.V.V.V.V.V.V.V.V.V.V.V.V.V.V.V.V.V.V.V.",
"V.V.V.V.9.s d & f a 8 | 7.7. .Q V.V.V.V.V.V.V.V.V.V.V.V.V.V.V.V.V.V.V.V.V.V.V.V.V.V.V.V.V.V.V.V.",
"V.V.V.p.x I v z a f e $.7.;.8 0.V.V.V.V.V.V.q.U S z l l z V.V.V.V.V.V.V.V.V.V.V.V.V.V.V.V.V.V.V.",
"L E U l S P k z l l m / J < > a j a.V.v.9.S l a a l l l l a f V.V.V.V.V.V.V.V.V.V.V.V.V.V.V.V.V.",
"  2 a a l x f a f f a 3 - 2 a l a x U S l l l l l a a l l f f a V.V.V.V.V.V.V.V.V.V.V.V.V.V.V.V.",
"1 5 l 5 > a l l l f l l a l l l l a l l a l l a a l l l a l l a 5 V.V.V.V.V.V.V.V.V.V.V.V.V.V.V.",
"v.h & * 2 5 a l a a l l l l l a l l l a a l l a l l l a a l a l f 3 V.V.V.V.V.V.V.V.V.V.V.V.V.V.",
"V.f.s s D j > 3 a 4 2 - l a a l a a l l l a l l l a l a l l a l l 3 Z V.V.V.V.V.V.V.V.V.V.V.V.V.",
"V.V.V.V.V.V.s.Y j , : % l a a l l l a l l 5 l l l 5 5 l l l l 5 f a & V.V.V.V.V.V.V.V.V.V.V.V.V.",
"V.V.V.V.V.V.V.V.V.i.G - a l l l a l a l l l l l l l l l l l l l f l * G V.V.V.V.V.V.V.V.V.V.V.V.",
"V.V.V.V.V.V.V.V.V.V.Q j 5 l l a l l l a l l l a l l 5 l l l l l f l 3 , V.V.V.V.V.V.V.V.V.V.V.V.",
"V.V.V.V.V.V.V.V.V.V.p.G l l l a a a l l l 5 l l l l l l l l 5 l l f 5 % V.V.V.V.V.V.V.V.V.V.V.V.",
"V.V.V.V.V.V.V.V.V.V.V.T H a l l l l l 5 l l a l l 5 l l l l l l f f 5 # R V.V.V.V.V.V.V.V.V.V.V.",
"V.V.V.V.V.V.V.V.V.V.V.G W Z a l l a 5 - l l l l l l 2 5 5 l l l f l 5 o / V.V.V.V.V.V.V.V.V.V.V.",
"V.V.V.V.V.V.V.V.V.V.V.h T 9.x l a l 2 % 5 l l l l l % 5 5 l 5 l f l * o ( #.V.V.V.V.V.V.V.V.V.V.",
"V.V.V.V.V.V.V.V.V.V.V.4 s 9.S a l l % X 2 l l l l 3 o * k l l l f f % O i o.+.x.V.V.V.V.V.V.V.V.",
"V.V.V.V.V.V.V.V.V.V.u.3 + j x l f 5 # # + - 3 2 * o + & s f f f l l - F +.y o.$.h.V.V.V.V.V.V.V.",
"V.V.V.V.V.V.V.V.V.V.H - $ Y Z f a % j K N s , - > 5 Z K Z f a f a l - T V.{ u [ { 3.M.V.V.V.V.V.",
"V.V.V.V.V.V.h.8.V.! 5 s V.V.z 5 = s Y T T T T T E T W T L j 4 f f 3 & s.V.V.e.p y } &.r.V.V.V.V.",
"V.V.V.V.V.V.{ @.o.r ; V.V.H 4 > ^ V.f.i.^ ^ ~ T ^ T N s = # a a & $ ^ V.V.V.V.V.4.p ' { 4.M.B.V.",
"V.V.V.V.V.V._ #.5.` ) 8.X.6 = p.V.V.V.V.V.V.l.g.l.D o X X - l - , p.V.V.V.V.V.V.V.V.+.p } +.c.B.",
"V.V.V.V.V.V.V.V.V.O.@.@.{ e ^ V.V.V.V.V.V.N.%.@.O.q w w 9 7 3 D V.V.V.V.V.V.V.V.V.V.V.8.p { +.b.",
"V.V.V.V.V.V.V.V.V.O.} %.%.h.V.V.V.V.V.V.V.b.| { O.{ @.@.@.( m V.V.V.V.V.V.V.V.V.V.V.V.V.8.` { 4.",
"V.V.V.V.V.V.V.V.V.V.r.V.V.V.V.V.V.V.V.V.V.V.m.z.j._ _ { { { k.V.V.V.V.V.V.V.V.V.V.V.V.V.V.%.@.@.",
"V.V.V.V.V.V.V.V.V.V.V.V.V.V.V.V.V.V.V.V.V.V.V.V.V.b.2.-.M.V.V.V.V.V.V.V.V.V.V.V.V.V.V.V.V.g.} o.",
"V.V.V.V.V.V.V.V.V.V.V.V.V.V.V.V.V.V.V.V.V.V.V.V.V.V.V.V.V.V.V.V.V.V.V.V.V.V.V.V.V.V.V.V.V.g.{ O.",
"V.V.V.V.V.V.V.V.V.V.V.V.V.V.V.V.V.V.V.V.V.V.V.V.V.V.V.V.V.V.V.V.V.V.V.V.V.V.V.V.V.V.V.V.V.3.@.2.",
"V.V.V.V.V.V.V.V.V.V.V.V.V.V.V.V.V.V.V.V.V.V.V.V.V.V.V.V.V.V.V.V.V.V.V.V.V.V.V.V.V.V.V.V.e.@.@.n.",
"V.V.V.V.V.V.V.V.V.V.V.V.V.V.V.V.V.V.V.V.V.V.V.V.V.V.V.V.V.V.V.V.V.V.V.V.V.V.V.V.V.V.V.r.{ ] e.B.",
"V.V.V.V.V.V.V.V.V.V.V.V.V.V.V.V.V.V.V.V.V.V.V.V.V.V.V.V.V.V.V.V.V.V.V.V.V.V.V.V.V.k.3.@.[ 1.V.V.",
"V.V.V.V.V.V.V.V.V.V.V.V.V.V.V.V.V.V.V.V.V.V.V.V.V.V.V.V.V.V.V.4.+.+.#.#.3.6.3.>.&.[ ` } t.V.V.V.",
"V.V.V.V.V.V.V.V.V.V.V.V.V.V.V.V.V.V.V.V.V.V.V.V.V.V.V.V.V.V.V.4.4.3.#.] ] [ ` ] { %.t.V.V.V.V.V.",
"V.V.V.V.V.V.V.V.V.V.V.V.V.V.V.V.V.V.V.V.V.V.V.V.V.V.V.V.V.V.V.V.V.V.V.V.V.V.V.V.V.V.V.V.V.V.V.V.",
"V.V.V.V.V.V.V.V.V.V.V.V.V.V.V.V.V.V.V.V.V.V.V.V.V.V.V.V.V.V.V.V.V.V.V.V.V.V.V.V.V.V.V.V.V.V.V.V.",
"V.V.V.V.V.V.V.V.V.V.V.V.V.V.V.V.V.V.V.V.V.V.V.V.V.V.V.V.V.V.V.V.V.V.V.V.V.V.V.V.V.V.V.V.V.V.V.V.",
"V.V.V.V.V.V.V.V.V.V.V.V.V.V.V.V.V.V.V.V.V.V.V.V.V.V.V.V.V.V.V.V.V.V.V.V.V.V.V.V.V.V.V.V.V.V.V.V.",
"V.V.V.V.V.V.V.V.V.V.V.V.V.V.V.V.V.V.V.V.V.V.V.V.V.V.V.V.V.V.V.V.V.V.V.V.V.V.V.V.V.V.V.V.V.V.V.V.",
"V.V.V.V.V.V.V.V.V.V.V.V.V.V.V.V.V.V.V.V.V.V.V.V.V.V.V.V.V.V.V.V.V.V.V.V.V.V.V.V.V.V.V.V.V.V.V.V.",
"V.V.V.V.V.V.V.V.V.V.V.V.V.V.V.V.V.V.V.V.V.V.V.V.V.V.V.V.V.V.V.V.V.V.V.V.V.V.V.V.V.V.V.V.V.V.V.V.",
"V.V.V.V.V.V.V.V.V.V.V.V.V.V.V.V.V.V.V.V.V.V.V.V.V.V.V.V.V.V.V.V.V.V.V.V.V.V.V.V.V.V.V.V.V.V.V.V."
};
