/* XPM */
static char *result[] = {
/* columns rows colors chars-per-pixel */
"48 48 200 2 ",
"   c #1F0C05",
".  c #1C0D09",
"X  c #230D06",
"o  c #2A0B04",
"O  c #25120B",
"+  c #2B140D",
"@  c #2E180F",
"#  c #30130B",
"$  c #3D1E0F",
"%  c #2E1811",
"&  c #351A11",
"*  c #3A1C13",
"=  c #3D1F19",
"-  c #331410",
";  c #3C2016",
":  c #3D2219",
">  c #362017",
",  c #3F2E27",
"<  c #421A09",
"1  c #401F18",
"2  c #442317",
"3  c #43251C",
"4  c #4A261C",
"5  c #45281D",
"6  c #4B2A1E",
"7  c #532B1D",
"8  c #59321D",
"9  c #462A21",
"0  c #4C2D22",
"q  c #4B2A25",
"w  c #512E24",
"e  c #4E3125",
"r  c #4F3328",
"t  c #533225",
"y  c #593524",
"u  c #5A3827",
"i  c #54342A",
"p  c #5A362A",
"a  c #55382D",
"s  c #5C3A2D",
"d  c #563927",
"f  c #573D33",
"g  c #5D3C32",
"h  c #553630",
"j  c #613D2D",
"k  c #613B26",
"l  c #623E32",
"z  c #5E4538",
"x  c #65412E",
"c  c #69442F",
"v  c #644234",
"b  c #6A4434",
"n  c #6C4935",
"m  c #64443A",
"M  c #6B463A",
"N  c #654A3D",
"B  c #6D4A3C",
"V  c #674835",
"C  c #724C3D",
"Z  c #714937",
"A  c #6E513F",
"S  c #745337",
"D  c #73513D",
"F  c #79573C",
"G  c #6C4C42",
"H  c #724D42",
"J  c #6F5446",
"K  c #735243",
"L  c #7B5544",
"P  c #7A5A44",
"I  c #765449",
"U  c #755949",
"Y  c #7C5D49",
"T  c #785746",
"R  c #7B5F53",
"E  c #745F55",
"W  c #7F624D",
"Q  c #7F6147",
"!  c #7B6253",
"~  c #7A635B",
"^  c #82603F",
"/  c #815F45",
"(  c #815D4C",
")  c #865D50",
"_  c #82624B",
"`  c #89674C",
"'  c #846452",
"]  c #896655",
"[  c #8B6A54",
"{  c #84675D",
"}  c #8B6C5A",
"|  c #866856",
" . c #916E54",
".. c #926D5B",
"X. c #8D735C",
"o. c #897157",
"O. c #94725B",
"+. c #94795D",
"@. c #977759",
"#. c #866B61",
"$. c #8C766B",
"%. c #8F7A6A",
"&. c #927665",
"*. c #9C7664",
"=. c #957B66",
"-. c #9C7C64",
";. c #937C6D",
":. c #9A7C6A",
">. c #8D7A72",
",. c #A27C65",
"<. c #9C826E",
"1. c #9E8166",
"2. c #8F8076",
"3. c #9B8474",
"4. c #94837A",
"5. c #9E8C7C",
"6. c #948174",
"7. c #AB8C66",
"8. c #A4846C",
"9. c #A8856C",
"0. c #AA8B6A",
"q. c #A38566",
"w. c #B09069",
"e. c #A98771",
"r. c #AD8C73",
"t. c #A48C79",
"y. c #A58976",
"u. c #B28F79",
"i. c #B08D74",
"p. c #A7927F",
"a. c #AC937B",
"s. c #AB9375",
"d. c #B3947C",
"f. c #B49A7E",
"g. c #BCA079",
"h. c #C2A879",
"j. c #9B8C84",
"k. c #9F938C",
"l. c #A48F86",
"z. c #AC9681",
"x. c #AC9984",
"c. c #AC9B8B",
"v. c #A4958D",
"b. c #B49583",
"n. c #B89781",
"m. c #B49B83",
"M. c #BB9C83",
"N. c #B39D89",
"B. c #AC9D94",
"V. c #BDA286",
"C. c #BCA48C",
"Z. c #B8A687",
"A. c #ADA29C",
"S. c #BAA899",
"D. c #BCB2AA",
"F. c #C1A58A",
"G. c #C5AA8C",
"H. c #C5AA8A",
"J. c #C6B085",
"K. c #C6AC94",
"L. c #C9AF91",
"P. c #CAB295",
"I. c #C3B39C",
"U. c #CCB59B",
"Y. c #CFBA9B",
"T. c #D4BC9C",
"R. c #D0B79E",
"E. c #CDBBA3",
"W. c #CABEAC",
"Q. c #D4BDA2",
"!. c #C5BAB4",
"~. c #C8BEBA",
"^. c #D5C19F",
"/. c #D6C1A4",
"(. c #D9C4A5",
"). c #D6C2AA",
"_. c #DAC5AA",
"`. c #DCCAAD",
"'. c #DCC8A7",
"]. c #CEC1B4",
"[. c #D5C5B3",
"{. c #DDCBB2",
"}. c #D2C7BF",
"|. c #DDCEB9",
" X c #E0CFAF",
".X c #E2D2AF",
"XX c #E0CFB3",
"oX c #E3D3B6",
"OX c #E1D2BD",
"+X c #E8DABE",
"@X c #D9CAC1",
"#X c #DBD4D1",
"$X c #E4D8C8",
"%X c #E4DCD9",
"&X c #ECE5D6",
"*X c #EAE7E3",
"=X c #F0EAEA",
"-X c #FFFFFF",
";X c #F8F8F6",
":X c None",
/* pixels */
":X:X:X:X:X:X:X:X:X:X:X:X:X:X:X:X-X-X-X-X-X;X-X-X:X:X:X:X:X:X:X:X:X:X:X:X:X:X:X:X:X:X:X:X:X:X:X:X",
":X:X:X:X:X:X:X:X:X:X:X:X:X:Xk.A.j.4.4.6.! N j.!.*X-X-X:X:X:X:X:X:X:X:X:X:X:X:X:X:X:X:X:X:X:X:X:X",
":X:X:X:X:X:X:X:X:X:X:X%.r ; & * 3 0 4 6 2 t U p.S.@X*X-X-X:X:X:X:X:X:X:X:X:X:X:X:X:X:X:X:X:X:X:X",
":X:X:X:X:X:X:X:X:Xa ; ; e e d d s y } 8.6.Z.z.z f -.I.[.!.#X:X:X:X:X:X:X:X:X:X:X:X:X:X:X:X:X:X:X",
":X:X:X:X:X:X! d r r 0 9 y z a 9 $ %.+Xm.&.J a 6 q 9 v =.C.a.c.:X:X:X:X:X:X:X:X:X:X:X:X:X:X:X:X:X",
":X:X:XA.! i z N x 3 r v f 0 * h A.$X;.0 i C H y p h 9 w z =.C.t.:X:X:X:X:X:X:X:X:X:X:X:X:X:X:X:X",
":X:Xc. .J.f.+.P d A V 5 ; g 6.W.5.0 & q B B a e l e 3 g e 3 a M.m.:X:X:X:X:X:X:X:X:X:X:X:X:X:X:X",
":X:X:X:X! o.s.+.` Z.Z.Z.M.c.W.Z.o i e 0 g 0 0 y B ) t q i p q s.C.:X:X:X:X:X:X:X:X:X:X:X:X:X:X:X",
":X:X:X:X* - # + Y @.t W ~ @ N x.& g i e @ ; k k B @X8.y e a 3 a.M.:X:X:X:X:X:X:X:X:X:X:X:X:X:X:X",
":X:X:X:X: 5 = g =.7.v 3 e s N 5.# s i 5 > t b s f #X}  .q r 9 8.:X:X:X:X:X:X:X:X:X:X:X:X:X:X:X:X",
":X:X:X:X9 e > Q +.7.D 5 s y J N.9 v i 5 5 u S t ~ A.D 8.z : i X.:X:X:X:X:X:X:X:X:X:X:X:X:X:X:X:X",
":X:X:X:Xa 5 * P h.h.@.: q 9 U N.* i s e   0 F u >.-Xp.C.K 5 5 -.:X:X:X:X:X:X:X:X:X:X:X:X:X:X:X:X",
":X:X:X:Xa y s V q.w.-.i i 5 m b., w g p * 3 s x A ].8. ._ 9 q ' :X:X:X:X:X:X:X:X:X:X:X:X:X:X:X:X",
":X:X:X:X4 g 6 A 7.w...a g y i ;.3 m m 0 * w 8 t u B 0 _ ' * 6 ] l.:X:X:X:X:X:X:X:X:X:X:X:X:X:X:X",
":X:X:X:Xs e e e _ ` v g v p } x.- g a + - S n c s 7 & [ Y = i *.t.:X:X:X:X:X:X:X:X:X:X:X:X:X:X:X",
":X:X:XD.3.! D D x s x V b 9 a.x.: 0 f ] ` / F B u 5 # [ K * p O.b.:X:X:X:X:X:X:X:X:X:X:X:X:X:X:X",
":X:X:X6 5 x n P ` ` Q F D t y.p.X 9 N *.] ] ] ' ( ( K ] Y B ] *.,.-.q.i.M.K.[.:X:X:X:X:X:X:X:X:X",
":X:X:Xv v V D D A Y K V D L :.a 0 h M Y ) ] O.*.9.u.d.b.M.F.F.G.P.Q.^.T.P.F.d.:.<.&.l :X:X:X:X:X",
":X:X:X! s B v b n b b B b K P.8.8.e.e.e.i.u.u.d.b.n.n.M.G.Y./.`.E.b.x.3.&.! G e g m i :X:X:X:X:X",
":X:X:Xz & 6 t s b b V D D x A =.d.F.L.L.F.M.n.M.M.K.Q.).C.p.t.&.G r h h M l H G G G i :X:X:X:X:X",
":X:X:X3 s e 6 5 6 6 e d s 6 2 > 3 s T X.d.P.F.g..XU.U.] t 0 m M l l m G H G M z m I h :X:X:X:X:X",
":X:X:X2 n b s y s s F S e 0 y t y t 6 6 j P v O. XF.,.L z g I I l G G G M H m m z G r :X:X:X:X:X",
":X:X:X4 u s z V x e Q ^ l t w 6 0 d s V v y 4 =.(.F.../ g l H I l m G G m H B m z G h :X:X:X:X:X",
":X:X:Xj a d x Q Q x 7.n b M s i e 6 t k x x b C.T.T...C g s M H M m G G H m m m g I l :X:X:X:X:X",
":X:X:X2.6 t A  .@.7.-.k b s s s m v t 0 y t b K.Y.T...C p m M H B a r 0 m | v m G B p :X:X:X:X:X",
":X:X:X:Xu s P g.7./ x B v v g s j M M p t q } [./.f.L H l M M H z : 5 e > D ] i l m p :X:X:X:X:X",
":X:X:X:X8 a e ` f.7.C B b l M B B b s b j :._.{.Y.X.s C p l Z m : 0 9 9 e 9 ` z g m p :X:X:X:X:X",
":X:X:X:X8 r 5 x J._ p H b s b B b l b s ) E.`./.T.` l C l l m i e r r e r 3 P Q g M i :X:X:X:X:X",
":X:X:X! 6 i t a T 1 1 y v l C ) Z j b Z C.E.oX`.T.] l K l m i e r a a a e e H @.g H w :X:X:X:X:X",
":X:X:XG 6 t y t t i w g p i w m L ( l } ).).+X_.T.] j M m i 9 q r e e r a a K q.m I 2 :X:X:X:X:X",
":X:X:X! 7 v t s s s p v s q q t p B C r./.oXoX(.^.Q w B m & > 9 e e r e a i K q.m H q B.:X:X:X:X",
":X:X:X:X8 n p l s p l v l l l p p w q 8.{.oXoX_.Q._ i M m + X + > : , e r r G ,.b l 9 B.:X:X:X:X",
":X:X:X:X:X! b m l j l l l l Z l h p &.K.$X XoXQ.T.Y w j I >.:X9 % . O = 9 0 N 0.v g 4 !.:X:X:X:X",
":X:X:X:X:X:X4 p M Z l Z l l l C w :.XXQ. XXX XQ.Q.` t p ) @X:X:X:X:X, O . O z r.m v w !.:X:X:X:X",
":X:X:X:X:X1 t q y l l l Z l l k ) |.U.XXQ.Q.OX XT.) p j { %X:X:X:X:X:X:X:X:Xz r.m v 4 ~.:X:X:X:X",
":X:X:X:X4 y c k w 4 j l l l C l C.R.E.XXXXXXoX(.R.G w j #.=X:X:X:X:X:X:X:X:XS.O.t s ~ :X:X:X:X:X",
":X:X:X{ k v s x j k w w w p l ) Q.Q.XXQ.Q. X X(.T.U p p $.:X:X:X:X:X:X:X:X:X:X@Xv.#X:X:X:X:X:X:X",
":X:X:Xj b v s s j l j k p p 4 )  X XXXQ._. X.X XT._ p p ~ :X:X:X:X:X:X:X:X:X:X:X:X:X:X:X:X:X:X:X",
":X:X:Xj Z j k l p g l l j w G E.Q.XX_.Q. XQ. XQ.T.Y p m &.:X:X:X:X:X:X:X:X:X:X:X:X:X:X:X:X:X:X:X",
":X:X:Xy b Z b j l l l l k G |.|. X XQ. XQ.Q. X XT._ l H :.:X:X:X:X:X:X:X:X:X:X:X:X:X:X:X:X:X:X:X",
":X:X< s 0 j b n b v b j k E.|./.XXQ.Q.Q.T.T. XT.G.C 2 y :X:X:X:X:X:X:X:X:X:X:X:X:X:X:X:X:X:X:X:X",
":X:X#.4 w y s j j C b w =.OXI.(.(.(.Q.Q.(.Q.$X:X:X{ E :X:X:X:X:X:X:X:X:X:X:X:X:X:X:X:X:X:X:X:X:X",
":X:X:X:Xs w v s y b b l I.).U.(.Q.Q.U.OX&X:X:X:X:X:X:X:X:X:X:X:X:X:X:X:X:X:X:X:X:X:X:X:X:X:X:X:X",
":X:X:X:X:X} 7 p j w p C ).F.^.T.Q.$X:X:X:X:X:X:X:X:X:X:X:X:X:X:X:X:X:X:X:X:X:X:X:X:X:X:X:X:X:X:X",
":X:X:X:X:X:X:Xv y x 4 U M.P.$X:X:X:X:X:X:X:X:X:X:X:X:X:X:X:X:X:X:X:X:X:X:X:X:X:X:X:X:X:X:X:X:X:X",
":X:X:X:X:X:X:X:X%.7 Y :X:X:X:X:X:X:X:X:X:X:X:X:X:X:X:X:X:X:X:X:X:X:X:X:X:X:X:X:X:X:X:X:X:X:X:X:X",
":X:X:X:X:X:X:X:X:X:X:X:X:X:X:X:X:X:X:X:X:X:X:X:X:X:X:X:X:X:X:X:X:X:X:X:X:X:X:X:X:X:X:X:X:X:X:X:X",
":X:X:X:X:X:X:X:X:X:X:X:X:X:X:X:X:X:X:X:X:X:X:X:X:X:X:X:X:X:X:X:X:X:X:X:X:X:X:X:X:X:X:X:X:X:X:X:X"
};
