/* XPM */
static char *result[] = {
/* columns rows colors chars-per-pixel */
"48 48 150 2 ",
"   c #2F3F54",
".  c #434D5C",
"X  c #455C73",
"o  c #4A5E75",
"O  c #675F75",
"+  c #4C6279",
"@  c #566476",
"#  c #52657C",
"$  c #55697E",
"%  c #566B83",
"&  c #5B6E85",
"*  c #5A6F88",
"=  c #5F7185",
"-  c #5C718B",
";  c #736E85",
":  c #617285",
">  c #61758C",
",  c #6A7B8E",
"<  c #77768B",
"1  c #747E8E",
"2  c #627691",
"3  c #657994",
"4  c #697C95",
"5  c #697E98",
"6  c #717C90",
"7  c #797B93",
"8  c #867E8F",
"9  c #97778C",
"0  c #957E91",
"q  c #AA7387",
"w  c #AC7689",
"e  c #B77B8E",
"r  c #C67B90",
"t  c #D37F93",
"y  c #F4748B",
"u  c #F8758D",
"i  c #ED7B91",
"p  c #F57D93",
"a  c #6E829D",
"s  c #728295",
"d  c #788594",
"f  c #70849F",
"g  c #7B849B",
"h  c #77889D",
"j  c #7D8C9C",
"k  c #6B8BA8",
"l  c #7185A0",
"z  c #7689A2",
"x  c #7D8DA4",
"c  c #7F90A5",
"v  c #7FA8C5",
"b  c #83849A",
"n  c #8C8E9E",
"m  c #9C8096",
"M  c #90859A",
"N  c #83909F",
"B  c #A98193",
"V  c #A48E9D",
"C  c #B58092",
"Z  c #8392A4",
"A  c #8997A6",
"S  c #8495AB",
"D  c #8D9AAA",
"F  c #9898A5",
"G  c #919DAA",
"H  c #8E9DB1",
"J  c #B992A0",
"K  c #94A1AE",
"L  c #9EA4AD",
"P  c #87A0B6",
"I  c #87A6BD",
"U  c #95A3B5",
"Y  c #9BA6B2",
"T  c #9EA9B5",
"R  c #BFA0AE",
"E  c #A0ABB6",
"W  c #A2AEB9",
"Q  c #A9AFBA",
"!  c #B0ADBA",
"~  c #A6B1BB",
"^  c #AAB2BC",
"/  c #C88695",
"(  c #D68395",
")  c #DB8394",
"_  c #EE8D9D",
"`  c #F38194",
"'  c #FB8195",
"]  c #F48698",
"[  c #FB8699",
"{  c #F48B9C",
"}  c #FA8C9D",
"|  c #EB909C",
" . c #C696A0",
".. c #CE9BA4",
"X. c #CC9FAC",
"o. c #FD8FA0",
"O. c #EF91A1",
"+. c #F295A5",
"@. c #FD92A2",
"#. c #F599A7",
"$. c #FB99A4",
"%. c #F39BAA",
"&. c #FA9AA8",
"*. c #D8A2AB",
"=. c #E6A7AC",
"-. c #ECA3AC",
";. c #E7A8AD",
":. c #EBABAF",
">. c #F5A1AE",
",. c #FDA4A8",
"<. c #FFAAAD",
"1. c #EFA8B4",
"2. c #EEAFBA",
"3. c #F4A5B2",
"4. c #F4A8B4",
"5. c #F1AEB9",
"6. c #F8ACB8",
"7. c #FEB5B6",
"8. c #F3B3BD",
"9. c #ABB5C1",
"0. c #B5BDC6",
"q. c #B6BEC9",
"w. c #E3BEC6",
"e. c #F3B7C0",
"r. c #F3BBC4",
"t. c #F4BFC9",
"y. c #BEC3CB",
"u. c #BDC5D0",
"i. c #C2C8CE",
"p. c #C3CAD2",
"a. c #CCD1D6",
"s. c #CCD3D8",
"d. c #D0D5DC",
"f. c #D5D9DD",
"g. c #F1C1C7",
"h. c #F4C1CA",
"j. c #F2C9CF",
"k. c #F4CCD3",
"l. c #E3D3D8",
"z. c #F4D3D6",
"x. c #F5D4D9",
"c. c #F7D9DE",
"v. c #DADEE2",
"b. c #F5DDE1",
"n. c #F8DAE0",
"m. c #F6E2E3",
"M. c #F8E2E5",
"N. c #FAEDEE",
"B. c #FEFEFE",
"V. c None",
/* pixels */
"V.V.V.V.V.V.V.V.V.V.V.V.V.V.V.V.V.V.V.V.V.V.V.V.V.V.V.V.V.V.V.V.V.V.V.V.V.V.V.V.V.V.V.V.V.V.V.V.",
"V.V.V.V.V.V.V.V.V.V.V.V.V.V.V.V.V.V.V.V.V.V.V.V.V.V.V.V.V.V.V.V.V.V.V.V.V.V.V.V.V.V.V.V.V.V.V.V.",
"V.V.V.V.V.V.V.V.V.V.V.V.V.V.V.V.V.V.V.V.V.V.V.V.V.V.V.V.V.V.V.V.V.V.V.V.V.p.9.V.V.V.V.V.V.V.V.V.",
"V.V.V.V.V.V.V.V.V.V.V.V.V.V.V.V.V.V.V.V.V.V.V.V.V.V.V.V.V.V.V.V.V.V.V.V.a.2 a U V.V.V.V.V.V.V.V.",
"V.V.V.V.V.V.V.V.V.V.V.V.V.V.V.V.V.V.V.V.V.V.V.V.V.V.V.V.V.V.V.V.V.c j U j = a x V.V.V.V.V.V.V.V.",
"V.V.V.V.V.V.V.V.V.V.V.V.V.V.V.V.V.V.V.V.V.V.V.V.V.V.V.V.V.V.V.V.Z M ..V f > a h ~ V.V.V.V.V.V.V.",
"V.V.V.V.V.V.V.V.V.V.V.V.V.V.V.V.V.V.V.V.V.V.V.V.V.V.V.V.V.V.V.V.h *.7.-.b a 4 f h Q V.V.V.V.V.V.",
"V.V.V.V.V.V.V.V.V.V.V.V.V.V.V.V.V.V.V.V.V.V.V.V.V.V.V.V.V.V.V.V.b :.7.,.B a f f a s p.V.V.V.V.V.",
"V.V.V.V.V.V.V.V.V.V.V.V.V.V.V.V.V.V.V.V.V.V.V.V.V.V.V.V.V.V.V.V.n =.7.<./ f f f @ . D V.V.V.V.V.",
"V.V.V.V.V.V.V.V.V.V.V.V.V.V.V.V.V.V.V.V.V.V.V.V.V.V.V.V.V.V.V.V.Q  .7.7._ 7 f a & d s 9.V.V.V.V.",
"V.V.V.V.V.V.V.V.V.V.V.V.V.V.V.V.V.V.V.l l z z c U q.V.V.V.V.V.V.0.8 =.7.$.C f a h I I x p.V.V.V.",
"V.V.V.V.V.V.V.V.V.V.V.V.V.V.V.V.V.l l l l l l a f z S 9.d.V.a.x a 2 < J / m h f l k P S l U T L ",
"V.V.V.V.V.V.V.V.V.V.V.V.V.V.V.V.a f f f l a l l l l l l S U x a a l 2 - 2 a l a l l x l l a 2   ",
"V.V.V.V.V.V.V.V.V.V.V.V.V.V.V.5 f f f f a l l a a a l a l l a a l l l a l a l l l l a > 5 a 5 1 ",
"V.V.V.V.V.V.V.V.V.V.V.V.V.V.2 f a l a l a l l l l l l l a l l a l a l l l l l l l l 4 2 * * j v.",
"V.V.V.V.V.V.V.V.V.V.V.V.V.Z 2 l l l a l l l a a l a a l l l a l l a l l - 2 5 5 2 > j D s s d.V.",
"V.V.V.V.V.V.V.V.V.V.V.V.V.* 5 f l a l l 5 l l l 5 l l l l l 5 l l a l l % & , j T a.V.V.V.V.V.V.",
"V.V.V.V.V.V.V.V.V.V.V.V.G * l f a l l a l l l l l l 5 l l l l l a l l a > G i.V.V.V.V.V.V.V.V.V.",
"V.V.V.V.V.V.V.V.V.V.V.V.4 4 l f a l l a l a a l l 5 l l l l l l a l l a j ~ V.V.V.V.V.V.V.V.V.V.",
"V.V.V.V.V.V.V.V.V.V.V.V.% 5 f l l a l l l a l l l l l l l l l 5 l l a l G i.V.V.V.V.V.V.V.V.V.V.",
"V.V.V.V.V.V.V.V.V.V.V.X.+ 5 l l l a a l a 5 l l l l l l 5 l l l f f f D T V.V.V.V.V.V.V.V.V.V.V.",
"V.V.V.V.V.V.V.V.V.V.V.C o 4 l l l l l l 5 2 l l 5 l l l - 5 l l f f Z Q G V.V.V.V.V.V.V.V.V.V.V.",
"V.V.V.V.V.V.V.V.V.V.&.) o * l a a a l l 5 % l l l l l 5 % 2 l l a x 9.T h V.V.V.V.V.V.V.V.V.V.V.",
"V.V.V.V.V.V.V.V.x.+.@.i O % l l l l a l - o 3 l l l l - X % l l f S ^ s 5 V.V.V.V.V.V.V.V.V.V.V.",
"V.V.V.V.V.V.V.h.$.o.y O.F * l l f f f a = X + - 2 2 - + # # 5 f l x j + 4 u.V.V.V.V.V.V.V.V.V.V.",
"V.V.V.V.V.M.4.{ [ u { V.W - l a f f f Z K N s > > 2 s Z K j % a l Z Y $ * H V.V.V.V.V.V.V.V.V.V.",
"V.V.V.V.t.$.} y p e.V.V.s.% 4 l a 4 j Y E E T T T T T T T Y s & 5 z V.V.s 5 Q V.e.h.V.V.V.V.V.V.",
"V.B.M.4.[ p p 4.V.V.V.V.V.^ $ * a s $ = s N T ^ W W ^ 9.y.f.V.^ > 4 H V.V.; r o.o.{ V.V.V.V.V.V.",
"B.c.+.} p +.V.V.V.V.V.V.V.V.p., - l 2 X X + A l.g.l.V.V.V.V.V.V.p.: 6 X.8.) p 8.%._ V.V.V.V.V.V.",
"b.+.[ p 8.V.V.V.V.V.V.V.V.V.V.V.A 2 7 9 w w q | @.%.N.V.V.V.V.V.V.^ e { @.$.{ V.V.V.V.V.V.V.V.V.",
"4.} ` 8.V.V.V.V.V.V.V.V.V.V.V.V.V.M ( @.@.o.{ O._ _ b.V.V.V.V.V.V.V.t.3.#.{ | V.V.V.V.V.V.V.V.V.",
"+.@.%.V.V.V.V.V.V.V.V.V.V.V.V.V.V.k.{ { { { | j.z.m.V.V.V.V.V.V.V.V.V.V.V.r.V.V.V.V.V.V.V.V.V.V.",
"} { h.V.V.V.V.V.V.V.V.V.V.V.V.V.V.V.V.M.-.5.b.V.V.V.V.V.V.V.V.V.V.V.V.V.V.V.V.V.V.V.V.V.V.V.V.V.",
"+.] g.V.V.V.V.V.V.V.V.V.V.V.V.V.V.V.V.V.V.V.V.V.V.V.V.V.V.V.V.V.V.V.V.V.V.V.V.V.V.V.V.V.V.V.V.V.",
"5.@.3.V.V.V.V.V.V.V.V.V.V.V.V.V.V.V.V.V.V.V.V.V.V.V.V.V.V.V.V.V.V.V.V.V.V.V.V.V.V.V.V.V.V.V.V.V.",
"n.$.@.8.V.V.V.V.V.V.V.V.V.V.V.V.V.V.V.V.V.V.V.V.V.V.V.V.V.V.V.V.V.V.V.V.V.V.V.V.V.V.V.V.V.V.V.V.",
"B.e.] { r.V.V.V.V.V.V.V.V.V.V.V.V.V.V.V.V.V.V.V.V.V.V.V.V.V.V.V.V.V.V.V.V.V.V.V.V.V.V.V.V.V.V.V.",
"V.V.4.[ @.3.k.V.V.V.V.V.V.V.V.V.V.V.V.V.V.V.V.V.V.V.V.V.V.V.V.V.V.V.V.V.V.V.V.V.V.V.V.V.V.V.V.V.",
"V.V.V.t.} ` [ #.>.4.6.>.#.+.+.+.4.V.V.V.V.V.V.V.V.V.V.V.V.V.V.V.V.V.V.V.V.V.V.V.V.V.V.V.V.V.V.V.",
"V.V.V.V.V.t.%.{ ] ` [ ] { +.3.4.4.V.V.V.V.V.V.V.V.V.V.V.V.V.V.V.V.V.V.V.V.V.V.V.V.V.V.V.V.V.V.V.",
"V.V.V.V.V.V.V.V.V.V.V.V.V.V.V.V.V.V.V.V.V.V.V.V.V.V.V.V.V.V.V.V.V.V.V.V.V.V.V.V.V.V.V.V.V.V.V.V.",
"V.V.V.V.V.V.V.V.V.V.V.V.V.V.V.V.V.V.V.V.V.V.V.V.V.V.V.V.V.V.V.V.V.V.V.V.V.V.V.V.V.V.V.V.V.V.V.V.",
"V.V.V.V.V.V.V.V.V.V.V.V.V.V.V.V.V.V.V.V.V.V.V.V.V.V.V.V.V.V.V.V.V.V.V.V.V.V.V.V.V.V.V.V.V.V.V.V.",
"V.V.V.V.V.V.V.V.V.V.V.V.V.V.V.V.V.V.V.V.V.V.V.V.V.V.V.V.V.V.V.V.V.V.V.V.V.V.V.V.V.V.V.V.V.V.V.V.",
"V.V.V.V.V.V.V.V.V.V.V.V.V.V.V.V.V.V.V.V.V.V.V.V.V.V.V.V.V.V.V.V.V.V.V.V.V.V.V.V.V.V.V.V.V.V.V.V.",
"V.V.V.V.V.V.V.V.V.V.V.V.V.V.V.V.V.V.V.V.V.V.V.V.V.V.V.V.V.V.V.V.V.V.V.V.V.V.V.V.V.V.V.V.V.V.V.V.",
"V.V.V.V.V.V.V.V.V.V.V.V.V.V.V.V.V.V.V.V.V.V.V.V.V.V.V.V.V.V.V.V.V.V.V.V.V.V.V.V.V.V.V.V.V.V.V.V.",
"V.V.V.V.V.V.V.V.V.V.V.V.V.V.V.V.V.V.V.V.V.V.V.V.V.V.V.V.V.V.V.V.V.V.V.V.V.V.V.V.V.V.V.V.V.V.V.V."
};
/* XPM */
static char *result[] = {
/* columns rows colors chars-per-pixel */
"48 48 170 2 ",
"   c #70592B",
".  c #616D3A",
"X  c #6F6B54",
"o  c #EF1D1E",
"O  c #F21F1F",
"+  c #EE211F",
"@  c #CD1F28",
"#  c #ED1E22",
"$  c #F21F23",
"%  c #CE2125",
"&  c #CB2329",
"*  c #CB292D",
"=  c #D22127",
"-  c #DA2226",
";  c #DC2E26",
":  c #CD2B33",
">  c #D83836",
",  c #ED2324",
"<  c #EC242A",
"1  c #E92C2D",
"2  c #E32728",
"3  c #F02225",
"4  c #F02128",
"5  c #E32E34",
"6  c #E83838",
"7  c #975835",
"8  c #B6503D",
"9  c #A94A31",
"0  c #C4442E",
"q  c #E65B37",
"w  c #E36039",
"e  c #AD3D4B",
"r  c #B63744",
"t  c #D83A44",
"y  c #CE3B48",
"u  c #EB3D42",
"i  c #974C5E",
"p  c #BB4D5A",
"a  c #8A5E76",
"s  c #BC5564",
"d  c #B15B6D",
"f  c #AD5F72",
"g  c #82617A",
"h  c #807575",
"j  c #CD434D",
"k  c #CF494B",
"l  c #D0404E",
"z  c #D94947",
"x  c #C34854",
"c  c #D65D5E",
"v  c #CD595C",
"b  c #E55757",
"n  c #EA4646",
"m  c #DE615F",
"M  c #DB5F63",
"N  c #D86D6D",
"B  c #EB6766",
"V  c #EA7B7A",
"C  c #F27E79",
"Z  c #F36B67",
"A  c #0F853E",
"S  c #74843E",
"D  c #0A8743",
"F  c #3E8A40",
"G  c #378F56",
"H  c #18B04B",
"J  c #3EA55E",
"K  c #36B555",
"L  c #488C59",
"P  c #698C46",
"I  c #4AA74F",
"U  c #449C66",
"Y  c #52B96A",
"T  c #60A57A",
"R  c #6AC17A",
"E  c #F0B41D",
"W  c #F3A72C",
"Q  c #CFA74F",
"!  c #F4A758",
"~  c #EA817E",
"^  c #EEB17E",
"/  c #F2BD75",
"(  c #F8C852",
")  c #F3CE68",
"_  c #7F7E9F",
"`  c #756D8E",
"'  c #897798",
"]  c #986E84",
"[  c #48B584",
"{  c #4B88B4",
"}  c #7C81A7",
"|  c #7189B3",
" . c #6094BC",
".. c #6E89B5",
"X. c #4CAFBD",
"o. c #1697D1",
"O. c #1D97D4",
"+. c #1C98D1",
"@. c #159AD8",
"#. c #2896CD",
"$. c #2198D2",
"%. c #2E9ED3",
"&. c #2496D1",
"*. c #3A9FD6",
"=. c #3791C4",
"-. c #3AA1CD",
";. c #2EA5DE",
":. c #33A6DE",
">. c #3CA5DB",
",. c #33A8DD",
"<. c #3CA9DC",
"1. c #3DA6D5",
"2. c #2DA6E1",
"3. c #2CA8E2",
"4. c #32A6E1",
"5. c #3BAAE1",
"6. c #4B9DCB",
"7. c #5797C9",
"8. c #5398CB",
"9. c #5A97C8",
"0. c #6490C0",
"q. c #44A4CE",
"w. c #44A4D4",
"e. c #4AADDC",
"r. c #48A9D8",
"t. c #53ABD5",
"y. c #58AED9",
"u. c #4EB0DF",
"i. c #5BB3DE",
"p. c #58B0D7",
"a. c #64B2D6",
"s. c #6CB5DA",
"d. c #6DBBDE",
"f. c #64B6DE",
"g. c #79BEDE",
"h. c #74B9D9",
"j. c #57B2E1",
"k. c #6DB9E0",
"l. c #7CC1DD",
"z. c #7BC1E5",
"x. c #EE8888",
"c. c #E99889",
"v. c #D5A8AC",
"b. c #F2B3B3",
"n. c #83CB9F",
"m. c #91D09E",
"M. c #99C5A9",
"N. c #EFD28D",
"B. c #83BFDB",
"V. c #8BC7DF",
"C. c #95C9DE",
"Z. c #A2CEDB",
"A. c #83C3E2",
"S. c #8CC7E7",
"D. c #93CAE3",
"F. c #9BD1E8",
"G. c #A2CFE4",
"H. c #ADCFE1",
"J. c #A7D3E7",
"K. c #B6D9E6",
"L. c #B8CBE1",
"P. c #D2EBD9",
"I. c #C3DFE8",
"U. c #C1DFF1",
"Y. c #CFE8F2",
"T. c #D3E7F1",
"R. c #D7E6EB",
"E. c #E9EFF1",
"W. c #E6F0F2",
"Q. c None",
/* pixels */
"Q.Q.Q.Q.Q.Q.Q.Q.Q.Q.Q.Q.Q.Q.Q.Q.Q.Q.Q.Q.Q.Q.Q.Q.Q.Q.Q.Q.Q.Q.Q.Q.Q.Q.Q.Q.Q.Q.Q.Q.Q.Q.Q.Q.Q.Q.Q.Q.",
"Q.Q.Q.Q.Q.Q.Q.Q.Q.Q.Q.Q.Q.Q.Q.Q.Q.Q.Q.Q.Q.Q.Q.Q.Q.Q.Q.Q.Q.Q.Q.Q.Q.Q.Q.Q.Q.Q.Q.Q.Q.Q.Q.Q.Q.Q.Q.Q.",
"Q.Q.Q.Q.Q.Q.Q.Q.Q.Q.Q.Q.Q.Q.Q.Q.Q.Q.Q.Q.Q.Q.Q.Q.Q.Q.Q.Q.Q.Q.Q.Q.Q.Q.Q.Q.Q.Q.Q.Q.Q.Q.Q.Q.Q.Q.Q.Q.",
"Q.Q.Q.Q.Q.Q.Q.Q.Q.Q.Q.Q.Q.Q.Q.Q.Q.Q.Q.Q.Q.A.Q.Q.Q.Q.Q.Q.Q.Q.Q.Q.Q.Q.Q.Q.Q.Q.Q.Q.Q.Q.Q.Q.Q.Q.Q.Q.",
"Q.Q.Q.Q.Q.Q.Q.Q.Q.Q.Q.Q.Q.Q.Q.Q.Q.Q.Q.Q.Q.A.<.Q.Q.Q.Q.Q.Q.Q.Q.Q.Q.Q.Q.Q.Q.Q.Q.Q.Q.Q.Q.Q.Q.Q.Q.Q.",
"Q.Q.Q.Q.Q.Q.Q.Q.Q.Q.Q.Q.Q.Q.Q.Q.Q.Q.Q.Q.Q.Q.i.,.Q.Q.Q.Q.Q.Q.Q.Q.Q.Q.Q.Q.Q.Q.Q.Q.Q.Q.Q.Q.Q.Q.Q.Q.",
"Q.Q.Q.Q.Q.Q.Q.Q.Q.Q.Q.Q.Q.Q.Q.Q.Q.Q.Q.Q.Q.Q.Q.i.>.Q.Q.Q.Q.Q.Q.Q.Q.Q.Q.Q.Q.Q.Q.Q.Q.Z.Q.Q.Q.Q.Q.Q.",
"Q.Q.Q.Q.Q.Q.Q.Q.Q.Q.Q.Q.Q.Q.Q.Q.Q.Q.Q.Q.Q.y.A.J.u.r.Q.Q.Q.Q.Q.Q.Q.Q.Q.Q.Q.Q.C.I.B.h.Q.Q.Q.Q.Q.Q.",
"Q.Q.Q.Q.Q.Q.Q.Q.Q.Q.Q.Q.Q.Q.Q.Q.Q.Q.Q.Q.Q.Q.>.e.i.,.e.Q.Q.Q.Q.Q.Q.Q.Q.Q.I.T.p.C.-.Q.Q.Q.Q.Q.Q.Q.",
"Q.Q.Q.Q.Q.Q.Q.Q.Q.Q.Q.Q.Q.Q.Q.Q.Q.Q.Q.Q.Q.Q.Q.e.4.,.4.p.Q.Q.Q.Q.Q.Q.Q.T.h.D.t.p.y.Q.Q.Q.Q.Q.Q.Q.",
"Q.Q.Q.Q.Q.Q.Q.Q.Q.Q.Q.Q.Q.Q.Q.Q.Q.Q.Q.Q.Q.Q.Q.Q.d.<.4.;.k.Q.Q.Q.Q.Q.K.Z.a.a.r.-.Q.Q.Q.Q.Q.Q.Q.Q.",
"Q.Q.Q.Q.Q.Q.Q.Q.Q.Q.Q.Q.Q.Q.Q.Q.Q.Q.Q.Q.F.f.d.S.S.i.,.3.8.L.Q.Q.Q.Q.a.l.t.w.%.q.Q.Q.Q.Q.Q.Q.Q.Q.",
"Q.Q.Q.Q.Q.Q.Q.Q.Q.Q.Q.Q.Q.Q.Q.Q.Q.Q.Q.Q.Q.e.2.2.:.<.:.,.' s Q.Q.Q.Q.t.p.*.%.o.h.Q.Q.Q.Q.Q.Q.Q.Q.",
"Q.Q.Q.Q.Q.Q.Q.Q.Q.Q.Q.Q.Q.Q.Q.Q.Q.Q.Q.Q.Q.Q.Q.A.i.<.:.;.' 2 N Q.E.W.t.&.$.$.O.K.Q.Q.Q.Q.Q.Q.Q.Q.",
"Q.Q.Q.Q.Q.Q.Q.Q.Q.Q.Q.Q.Q.Q.Q.Q.Q.Q.Q.Q.Q.Q.Q.Q.z.e.:.,.7.y $ b.D.C.d.o.$.O.%.Q.Q.Q.Q.Q.Q.Q.Q.Q.",
"Q.Q.Q.Q.Q.Q.Q.Q.Q.Q.Q.Q.Q.Q.Q.Q.Q.Q.Q.Q.Q.Q.l.r.,.;.:.,.| y o C G.q.a.O.O.O.r.Q.Q.Q.Q.Q.Q.Q.Q.Q.",
"Q.Q.Q.Q.Q.Q.Q.Q.Q.Q.Q.Q.Q.Q.Q.Q.Q.Q.Q.Q.Q.g.u.k.f.5.:.6.x < $ Z R.1.#.$.+.#.s.Q.Q.Q.Q.Q.Q.Q.Q.Q.",
"Q.Q.Q.Q.Q.Q.Q.Q.Q.Q.Q.Q.Q.Q.Q.Q.Q.Q.Q.Q.Q.Q.Q.Q.i.4.:.8.y 3 $ B H.%.+.&.` i Q.Q.Q.Q.Q.Q.Q.Q.Q.Q.",
"Q.Q.Q.Q.Q.Q.Q.Q.Q.Q.Q.Q.Q.Q.Q.Q.Q.Q.Q.Q.Q.Q.Q.i.r.4.4.>.d , $ v 6.o.@.{ r * Q.Q.Q.Q.Q.Q.Q.Q.Q.Q.",
"Q.Q.Q.Q.Q.Q.Q.Q.Q.Q.Q.Q.Q.Q.Q.Q.Q.Q.Q.Q.Q.Q.Q.F.z.,.4.>.d , $ p #.$.{ a & N Q.Q.Q.Q.Q.Q.Q.Q.Q.Q.",
"Q.Q.Q.Q.Q.Q.Q.Q.Q.Q.Q.Q.Q.Q.Q.Q.Q.Q.Q.Q.Q.Q.Q.Q.j.2.4.9.t , 3 p =.{ e & & Q.Q.Q.Q.Q.Q.Q.Q.Q.Q.Q.",
"Q.Q.Q.Q.Q.Q.Q.Q.Q.Q.Q.Q.Q.Q.Q.Q.Q.Q.Q.Q.Q.Q.Q.Q.e.:.3.9.t , o x =.` & @ c Q.Q.Q.Q.Q.Q.Q.Q.Q.Q.Q.",
"Q.Q.Q.Q.Q.Q.Q.Q.Q.Q.Q.Q.Q.Q.Q.Q.Q.Q.Q.Q.Q.Q.Q.Q.j.:.4.>.s $ 3 y g r & & Q.Q.Q.Q.Q.Q.Q.Q.Q.Q.Q.Q.",
"Q.Q.Q.Q.Q.Q.Q.Q.Q.Q.Q.Q.Q.Q.Q.Q.Q.Q.Q.Q.Q.Q.Q.Q.g.:.4.4.} 5 3 2 : & = : Q.Q.Q.Q.Q.Q.Q.Q.Q.Q.Q.Q.",
"Q.Q.Q.Q.Q.Q.Q.Q.Q.Q.Q.Q.Q.Q.Q.Q.Q.Q.Q.Q.Q.Q.Q.Q.K.5.4.2. .> $ < - & % k Q.Q.Q.Q.Q.Q.Q.Q.Q.Q.Q.Q.",
"Q.Q.Q.Q.Q.Q.Q.Q.Q.Q.Q.Q.Q.Q.Q.Q.Q.Q.Q.Q.Q.Q.Q.Q.Y.5.4.2...5 4 , - & % N Q.Q.Q.Q.Q.Q.Q.Q.Q.Q.Q.Q.",
"Q.Q.Q.Q.Q.Q.Q.Q.Q.Q.Q.Q.Q.Q.Q.Q.Q.Q.Q.Q.Q.Q.Q.Q.Q.e.2.3.| 5 3 3 - = = z x.b N B Q.Q.Q.Q.Q.Q.Q.Q.",
"Q.Q.Q.Q.Q.Q.Q.Q.Q.Q.Q.Q.Q.Q.Q.Q.Q.Q.Q.Q.Q.Q.Q.Q.Q.j.4.4.8.j 3 , , , , , 6 Q.Q.c.c.Q.Q.Q.Q.Q.Q.Q.",
"Q.Q.Q.Q.Q.Q.Q.Q.Q.Q.Q.Q.Q.Q.Q.Q.Q.Q.Q.Q.Q.Q.Q.Q.Q.S.2.4.4.] , , , , 3 3 Z Q.Q.c.! Q.Q.Q.Q.Q.Q.Q.",
"Q.Q.Q.Q.Q.Q.Q.Q.Q.Q.Q.Q.Q.Q.Q.Q.Q.Q.Q.Q.Q.Q.Q.Q.Q.v.0.2.9.x 3 < , 3 3 , c.Q.Q.W ( Q.Q.Q.Q.Q.Q.Q.",
"Q.Q.Q.Q.Q.Q.Q.Q.Q.Q.Q.Q.Q.Q.Q.Q.Q.Q.Q.Q.Q.Q.Q.Q.x.< d w.' < , , , , < , ~ Q.  E ( Q.Q.Q.Q.Q.Q.Q.",
"Q.Q.Q.Q.Q.Q.Q.Q.Q.Q.Q.Q.Q.Q.Q.Q.Q.Q.Q.Q.Q.Q.Q.b o + > f k , 3 , , 3 3 , m h X Q Q.Q.Q.Q.Q.Q.Q.Q.",
"Q.Q.Q.Q.Q.Q.Q.Q.Q.Q.Q.Q.Q.Q.Q.Q.Q.Q.Q.Q.Q.Q.6 $ , , 3 , 3 3 3 , , , 6 Q.Q.Q.Q.Q.Q.Q.Q.Q.Q.Q.Q.Q.",
"Q.Q.Q.Q.Q.Q.Q.Q.Q.Q.Q.Q.Q.Q.Q.Q.Q.Q.Q.Q.Q.< , , < , < 3 3 , < 3 , n Q.Q.Q.Q.Q.Q.Q.Q.Q.Q.Q.Q.Q.Q.",
"Q.Q.Q.Q.Q.Q.Q.Q.Q.Q.Q.Q.Q.Q.Q.Q.Q.Q.Q.6 , + 5 6 , , , , , , , 1 ~ Q.Q.Q.Q.Q.Q.Q.Q.Q.Q.Q.Q.Q.Q.Q.",
"Q.Q.Q.Q.Q.Q.Q.Q.Q.Q.Q.Q.Q.Q.Q.Q.Q.V , o ; 8 Q.Q.Q.1 , # 1 b Q.Q.Q.Q.Q.Q.Q.Q.Q.Q.Q.Q.Q.Q.Q.Q.Q.Q.",
"Q.Q.Q.Q.Q.Q.Q.Q.Q.Q.Q.Q.Q.Q.Q.Q.q o 2 9 X Q.Q.Q.Q.q w Q.Q.Q.Q.Q.Q.Q.Q.Q.Q.Q.Q.Q.Q.Q.Q.Q.Q.Q.Q.Q.",
"Q.Q.Q.Q.Q.Q.Q.Q.Q.Q.Q.Q.Q.Q.c.> 0 7 . L Q.Q.Q.Q.) / N.Q.Q.Q.Q.Q.Q.Q.Q.Q.Q.Q.Q.Q.Q.Q.Q.Q.Q.Q.Q.Q.",
"Q.Q.Q.Q.Q.Q.Q.Q.Q.Q.Q.Q.m.I S P L A U Q.Q.Q.Q.Q.N.N.Q.Q.Q.Q.Q.Q.Q.Q.Q.Q.Q.Q.Q.Q.Q.Q.Q.Q.Q.Q.Q.Q.",
"Q.Q.Q.Q.Q.Q.Q.Q.Q.Q.Q.Y H K R J D T Q.Q.Q.Q.Q.Q.Q.Q.Q.Q.Q.Q.Q.Q.Q.Q.Q.Q.Q.Q.Q.Q.Q.Q.Q.Q.Q.Q.Q.Q.",
"Q.Q.Q.Q.Q.Q.Q.Q.Q.Q.X.[ n.P.M.G M.Q.Q.Q.Q.Q.Q.Q.Q.Q.Q.Q.Q.Q.Q.Q.Q.Q.Q.Q.Q.Q.Q.Q.Q.Q.Q.Q.Q.Q.Q.Q.",
"Q.Q.Q.Q.Q.Q.Q.Q.f.g.Q.Q.Q.Q.Q.Q.Q.Q.Q.Q.Q.Q.Q.Q.Q.Q.Q.Q.Q.Q.Q.Q.Q.Q.Q.Q.Q.Q.Q.Q.Q.Q.Q.Q.Q.Q.Q.Q.",
"Q.Q.Q.Q.Q.Q.S.Q.Q.Q.Q.Q.Q.Q.Q.Q.Q.Q.Q.Q.Q.Q.Q.Q.Q.Q.Q.Q.Q.Q.Q.Q.Q.Q.Q.Q.Q.Q.Q.Q.Q.Q.Q.Q.Q.Q.Q.Q.",
"Q.Q.Q.Q.Q.Q.Q.Q.Q.Q.Q.Q.Q.Q.Q.Q.Q.Q.Q.Q.Q.Q.Q.Q.Q.Q.Q.Q.Q.Q.Q.Q.Q.Q.Q.Q.Q.Q.Q.Q.Q.Q.Q.Q.Q.Q.Q.Q.",
"Q.Q.Q.Q.Q.Q.Q.Q.Q.Q.Q.Q.Q.Q.Q.Q.Q.Q.Q.Q.Q.Q.Q.Q.Q.Q.Q.Q.Q.Q.Q.Q.Q.Q.Q.Q.Q.Q.Q.Q.Q.Q.Q.Q.Q.Q.Q.Q.",
"Q.Q.Q.Q.Q.Q.Q.Q.Q.Q.Q.Q.Q.Q.Q.Q.Q.Q.Q.Q.Q.Q.Q.Q.Q.Q.Q.Q.Q.Q.Q.Q.Q.Q.Q.Q.Q.Q.Q.Q.Q.Q.Q.Q.Q.Q.Q.Q.",
"Q.Q.Q.Q.Q.Q.Q.Q.Q.Q.Q.Q.Q.Q.Q.Q.Q.Q.Q.Q.Q.Q.Q.Q.Q.Q.Q.Q.Q.Q.Q.Q.Q.Q.Q.Q.Q.Q.Q.Q.Q.Q.Q.Q.Q.Q.Q.Q.",
"Q.Q.Q.Q.Q.Q.Q.Q.Q.Q.Q.Q.Q.Q.Q.Q.Q.Q.Q.Q.Q.Q.Q.Q.Q.Q.Q.Q.Q.Q.Q.Q.Q.Q.Q.Q.Q.Q.Q.Q.Q.Q.Q.Q.Q.Q.Q.Q."
};
