/* XPM */
static char *result[] = {
/* columns rows colors chars-per-pixel */
"48 48 196 2 ",
"   c #7E470C",
".  c #7E4A18",
"X  c #77511C",
"o  c #785A20",
"O  c #7B582D",
"+  c #745C3E",
"@  c #77634C",
"#  c #8D5710",
"$  c #875512",
"%  c #9A5F11",
"&  c #9B630B",
"*  c #8D601F",
"=  c #9A671A",
"-  c #A26A1C",
";  c #A06511",
":  c #AE731B",
">  c #B0701D",
",  c #BD7A1E",
"<  c #8B5828",
"1  c #8A6827",
"2  c #9B6824",
"3  c #956E2D",
"4  c #957227",
"5  c #9A7720",
"6  c #957129",
"7  c #9F7D2D",
"8  c #99762A",
"9  c #89643A",
"0  c #957A3D",
"q  c #A96C21",
"w  c #AC7321",
"e  c #AB7B2B",
"r  c #A67D2F",
"t  c #B37521",
"y  c #B27A23",
"u  c #BB7A24",
"i  c #A87C31",
"p  c #A27530",
"a  c #C1781F",
"s  c #C27B20",
"d  c #CE7E20",
"f  c #8A6D48",
"g  c #89714E",
"h  c #8F795B",
"j  c #887765",
"k  c #BD821E",
"l  c #BC8225",
"z  c #B5822E",
"x  c #BE8628",
"c  c #BC882D",
"v  c #B4922E",
"b  c #AC8234",
"n  c #A98733",
"m  c #B28A36",
"M  c #BA8B32",
"N  c #B3853B",
"B  c #B38D3B",
"V  c #B88535",
"C  c #AE9037",
"Z  c #BB9532",
"A  c #B6943E",
"S  c #BC913A",
"D  c #CE8C19",
"F  c #C6851A",
"G  c #DD851E",
"H  c #D18F1B",
"J  c #DD961C",
"K  c #D3901D",
"L  c #E49C1F",
"P  c #FFB41F",
"I  c #C58A26",
"U  c #CD8E25",
"Y  c #C38B2D",
"T  c #C98C2E",
"R  c #C68324",
"E  c #D38222",
"W  c #DA8622",
"Q  c #CF9429",
"!  c #D29124",
"~  c #D4922A",
"^  c #DB952B",
"/  c #DA9A2A",
"(  c #D99B2A",
")  c #C58B32",
"_  c #C79032",
"`  c #C1963A",
"'  c #C59738",
"]  c #D19432",
"[  c #D09831",
"{  c #D09F3B",
"}  c #EA8E20",
"|  c #E38C24",
" . c #EB9325",
".. c #E49A27",
"X. c #F29523",
"o. c #F49925",
"O. c #FC9E27",
"+. c #E69D32",
"@. c #DFA02E",
"#. c #C6A236",
"$. c #CCA838",
"%. c #DAB43B",
"&. c #DFB93E",
"*. c #D6B13C",
"=. c #EBA323",
"-. c #E5A22C",
";. c #EBA52B",
":. c #EDA92E",
">. c #F4A720",
",. c #FFA027",
"<. c #F3A822",
"1. c #F2AC2D",
"2. c #FAAF2B",
"3. c #F9AD23",
"4. c #FEB023",
"5. c #F7B12F",
"6. c #FCB32E",
"7. c #FFB92F",
"8. c #ECAC33",
"9. c #E9A635",
"0. c #F1A635",
"q. c #F9AD38",
"w. c #E5BE3F",
"e. c #FCB330",
"r. c #FFBA32",
"t. c #FEB43A",
"y. c #FEBC3C",
"u. c #FFC235",
"i. c #FFC03B",
"p. c #9B8046",
"a. c #9B855C",
"s. c #AE8446",
"d. c #AB8A41",
"f. c #BF8F40",
"g. c #B28845",
"h. c #B59443",
"j. c #BB9A43",
"k. c #A38A51",
"l. c #B18E54",
"z. c #AD9255",
"x. c #B49853",
"c. c #B79A53",
"v. c #928369",
"b. c #9A8873",
"n. c #A38F65",
"m. c #B29466",
"M. c #B69F64",
"N. c #B7A376",
"B. c #C39943",
"V. c #C4A343",
"C. c #C9A442",
"Z. c #CFA841",
"A. c #C5A44B",
"S. c #CCAC4C",
"D. c #C7A94B",
"F. c #D1AC41",
"G. c #D6A841",
"H. c #D6B447",
"J. c #D6B54B",
"K. c #C8B25D",
"L. c #D1B352",
"P. c #D9B956",
"I. c #E8B644",
"U. c #F1B740",
"Y. c #CAB660",
"T. c #EAC443",
"R. c #EFC846",
"E. c #E7C349",
"W. c #FDC445",
"Q. c #F4CD45",
"!. c #F1CB4D",
"~. c #FECF4E",
"^. c #FCD54D",
"/. c #FFD94E",
"(. c #E4C556",
"). c #E3C45B",
"_. c #ECCE58",
"`. c #F3CE51",
"'. c #FFCF50",
"]. c #F7D353",
"[. c #FAD553",
"{. c #FFDB55",
"}. c #F3D35A",
"|. c #FFDD59",
" X c #FFD45A",
".X c #FFE057",
"XX c #FFE25A",
"oX c #DEC362",
"OX c #E7CB63",
"+X c #E9CD63",
"@X c #EFD266",
"#X c #F8DB65",
"$X c #FFE263",
"%X c #A29586",
"&X c #B0A59B",
"*X c None",
/* pixels */
"*X*X*X*X*X*X*X*X*X*X*X*X*X*X*X*X*X*X*X*X*X*X*X*X*X*X*X*X*X*X*X*X*X*X*X*X*X*X*X*X*X*X*X*X*X*X*X*X",
"*X*X*X*X*X*X*X*X*X*X*X*X*X*X*X*X*X*X*X*X*X*X*X*X*X*X*X*X*X*X*X*X*X*X*X*X*X*X*X*X*X*X*X*X*X*X*X*X",
"*X*X*X*X*X*X*X*X*X*X*X*X*X*X*X*X*X*X*X*X*X*X*X*X*X*X*X*X*X*X*X*X*X*X*X*X*X*X*X*X*X*X*X*X*X*X*X*X",
"*X*X*X*X*X*X*X*X*X*X*X*X*X*X*X*X*X*X*X*X*X*X*X*X*X*X*X*X*X*X*X*X*X*X*X*X*X*X*X*X*X*X*X*X*X*X*X*X",
"*X*X*X*X*X*X*X*X*X*X*X*X*X*X*X*X*X*X*X*X*X*X*X*X*X*X*X*X*X*X*X*X*X*X*X*X*X*X*X*X*X*X*X*X*X*X*X*X",
"*X*X*X*X*X*X*X*X*X*X*X*X*X*X*X*X*X*X*X*X*X*X*X*X*X*X*X*X*X*X*X*X*X*X*X*X*X*X*X*X*X*X*X*X*X*X*X*X",
"*X*X*X*X*X*X*X*X*X*X*X*X*X*X*X*X*X*X*X*X*X*X*X*X*X*X*X*X*X*X*X*X*X*X*X*X*X*X*X*X*X*X*X*X*X*X*X*X",
"*X*X*X*X*X*X*X*X*X*X*X*X*X*X*X*X*X*X*X*X*X*X*X*X*X*X*X*X*X*X*X*X*X*X*X*X*X*X*X*X*X*X*X*X*X*X*X*X",
"*X*X*X*X*X*X*X*X*X*X*X*X*X*X*X*X*X*X*X*X*X*X*X*X*X*X*X*X*X*X*Xc.$.k.*X*X*X*X*X*X*X*X*X*X*X*X*X*X",
"*X*X*X*X*X*X*X*X*X*X*X*X*X*X*X*X*X*X*X*X*X*X*X*X*X*X*X*XN.V.i.|..X^.n *X*X*X*X*X*X*X*X*X*X*X*X*X",
"*X*X*X*X*X*X*X*X*X*X*X*X*X*X*X*X*X*X*X*X*X*X*X*X*X*XM.*.Q.XXXX}.].[.XXZ v.*X*X*X*X*X*X*X*X*X*X*X",
"*X*X*X*X*X*X*X*X*X*X*X*X*X*X*X*X*X*X*X*X*X*X*X*Xb.$./.|.|.Z.$.[.[.[.[.XX%.a.*X*X*X*X*X*X*X*X*X*X",
"*X*X*X*X*X*X*X*X*X*X*X*X*X*X*X*X*X*X*X*X*X*X*X*Xz..X[.[.`.S Z.|.[.[.[.[..XR.p.*X*X*X*X*X*X*X*X*X",
"*X*X*X*X*X*X*X*X*X*X*X*X*X*X*X*X*X*X*X*X*X*X*Xx.Q.[.[.[.]..X|.[.[.[.[.[.[.|./.A *X*X*X*X*X*X*X*X",
"*X*X*X*X*X*X*X*X*X*X*X*X*X*X*X*X*X*Xx.%.V.Z.w.{.[.[.[.[.[.[.].[.[.[.[.[.[.[.[.{.V.*X*X*X*X*X*X*X",
"*X*X*X*X*X*X*X*X*X*X*X*X*X*X*X*Xz.*./.|.{.|.|.[.[.[.[.[.[.[.[.^.[.|.[.[.[.[.[.[.{.V.*X*X*X*X*X*X",
"*X*X*X*X*X*X*X*X*X*X*X*X*X*Xn.#.^.|.}.].[.[.[.[.[.[.[.[.[.[.[.{.`.` I.`.[.[.[.[.[./.x.*X*X*X*X*X",
"*X*X*X*X*X*X*X*X*X*X*X*X*XC Q.|.|.[.|.[.[.[.[.[.[.[.[.[.[.[.[.{.i ^ t.~ B  X].[.[. XQ.*X*X*X*X*X",
"*X*X*X*X*X*X*X*X*X*X*X0 I.XX].`.'.{ m `.[.[.[.[.[.[.[.[.[.[.[.[.V.m m B (.[.[.[.[.]..X#.*X*X*X*X",
"*X*X*X*X*X*X*X*X*Xg Z .XXXJ.' 0.q.y.u #..X].[.[.[.[.[.[.[.[.[.[.|.}.}.|.|.^.[.[.[.[.[.{.0 *X*X*X",
"*X*X*X*X*X*X*X*X1 R.XX|.H.) t.t.0.) r `.[.{.|.{.^.].[.[.[.[.[.[.].].^.].].].].^.[.[.]..X$.*X*X*X",
"*X*X*X*X*X*X+ v XX|.`.{.F.e T z b V.[.{.{.(.S.L.}.|.[.{.{.{.{.{..X.X.X.X.X|.|.{.{.|.|.[.#.*X*X*X",
"*X*X*X*X*XX E..X].].[.[.|.E.J.R.{..X|.#XA.c ] ) i OX#X@X+XoXP.L.D.j.A m n 8 8 4 4 4 4 e - *X*X*X",
"*X*X*X@ 5 |.|.^./.{.|..XXXXX$X#X@X_.OXK.T t.t.t.0.3 S M c c I I U ! ! ( / ..-.+.-.-.;.7.[ *X*X*X",
"*X*X*X1 *X}.}._.).P.L.D.A.j.A B M c Y I ) 0.+.+.z [ 6.6.r.r.r.r.r.r.r.t.7.r.r.r.r.7.t.4.s.*X*X*X",
"*X*X*XX h.Z M M I T ~ ( ..;.1.2.7.7.r.r.q.P.g.j.G.r.e.e.7.1.5.2.r.r.2.2.6.6.1.( 6.t.4.B *X*X*X*X",
"*X*X*X< = r.6.7.7.r.r.r.r.r.e.e.e.e.e.5.e.i.W.y.r.2.r.1.y > u t t -.7.6.6.r.l w 6.r.! *X*X*X*X*X",
"*X*X*X*X# r.6.6.r.;.-.7.e.e.e.e.e.e.e.e.e.5.2.2.e.e.1.q E  . . .E 2 8.6.e.e.1.e.6.r.= *X*X*X*X*X",
"*X*X*X*X  :.r.e.I | E Q r.e.e.e.e.e.e.5.e.e.e.e.5.r.y E o. . . .O.t B.r.e.e.e.6.6.y.% *X*X*X*X*X",
"*X*X*X*X. ! r.+.a o.o.a ..e.e.e.e.e.e.e.e.2.e.e.e.e.w o. . ... . .2 (.r.e.e.e.e.2.r.F *X*X*X*X*X",
"*X*X*X*X9 l r.5.t W  .s [ r.5.e.e.e.e.e.e.e.e.e.5.r.` q W } } G q Y.'.2.e.e.e.e.6.r.>.*X*X*X*X*X",
"*X*X*X*X*X& r.6.:.u u Q r.6.6.e.e.e.6.e.e.6.e.e.e.6.y.G.i i i d.oX X2.e.e.2.6.6.6.t.L *X*X*X*X*X",
"*X*X*X*X*X$ r.2.r.r.e.r.e.2.e.e.6.e.e.e.r.6.1.5.r.6.2.r.y.y.R.W.y.2.e.e.6.e.e.e.5.r.! *X*X*X*X*X",
"*X*X*X*X*XO 1.7.e.2.e.5.e.e.e.e.e.e.e.e.^ t > q -.r.e.5.6.6.2.2.6.e.e.e.e.6.e.e.2.7.) *X*X*X*X*X",
"*X*X*X*X*Xj H y.5.e.e.e.e.e.e.e.e.e.7.:.E X.O.d l r.5.e.e.e.5.e.e.2.2.t.r.t.e.6.5.6.S *X*X*X*X*X",
"*X*X*X*X*X*X: r.5.e.e.e.2.e.e.e.e.6.6.:.w a , t ;.e.5.e.5.e.e.t.t.r.r.=.D =.r.7.r.P *X*X*X*X*X*X",
"*X*X*X*X*X*Xp 7.5.e.e.e.t.r.5.5.e.e.e.t.t./ -.r.r.r.r.7.7.4.4.4.>.>.D *X*X*Xx _ *X*X*X*X*X*X*X*X",
"*X*X*X*X*X*X*X<.e.e.e.6.J =.u.r.r.6.2.<.=.=.J D F l l z m g.l.m.*X*X*X*X*X*X*X*X*X*X*X*X*X*X*X*X",
"*X*X*X*X*X*X*XK u.r.4.B *Xg & = * 1 9 f h b.%X&X*X*X*X*X*X*X*X*X*X*X*X*X*X*X*X*X*X*X*X*X*X*X*X*X",
"*X*X*X*X*X*X*Xm.R B.s.*X*X*X*X*X*X*X*X*X*X*X*X*X*X*X*X*X*X*X*X*X*X*X*X*X*X*X*X*X*X*X*X*X*X*X*X*X",
"*X*X*X*X*X*X*X*X*X*X*X*X*X*X*X*X*X*X*X*X*X*X*X*X*X*X*X*X*X*X*X*X*X*X*X*X*X*X*X*X*X*X*X*X*X*X*X*X",
"*X*X*X*X*X*X*X*X*X*X*X*X*X*X*X*X*X*X*X*X*X*X*X*X*X*X*X*X*X*X*X*X*X*X*X*X*X*X*X*X*X*X*X*X*X*X*X*X",
"*X*X*X*X*X*X*X*X*X*X*X*X*X*X*X*X*X*X*X*X*X*X*X*X*X*X*X*X*X*X*X*X*X*X*X*X*X*X*X*X*X*X*X*X*X*X*X*X",
"*X*X*X*X*X*X*X*X*X*X*X*X*X*X*X*X*X*X*X*X*X*X*X*X*X*X*X*X*X*X*X*X*X*X*X*X*X*X*X*X*X*X*X*X*X*X*X*X",
"*X*X*X*X*X*X*X*X*X*X*X*X*X*X*X*X*X*X*X*X*X*X*X*X*X*X*X*X*X*X*X*X*X*X*X*X*X*X*X*X*X*X*X*X*X*X*X*X",
"*X*X*X*X*X*X*X*X*X*X*X*X*X*X*X*X*X*X*X*X*X*X*X*X*X*X*X*X*X*X*X*X*X*X*X*X*X*X*X*X*X*X*X*X*X*X*X*X",
"*X*X*X*X*X*X*X*X*X*X*X*X*X*X*X*X*X*X*X*X*X*X*X*X*X*X*X*X*X*X*X*X*X*X*X*X*X*X*X*X*X*X*X*X*X*X*X*X",
"*X*X*X*X*X*X*X*X*X*X*X*X*X*X*X*X*X*X*X*X*X*X*X*X*X*X*X*X*X*X*X*X*X*X*X*X*X*X*X*X*X*X*X*X*X*X*X*X"
};
