/* XPM */
static char *result[] = {
/* columns rows colors chars-per-pixel */
"48 48 100 2 ",
"   c #5F524A",
".  c #62564B",
"X  c #6D5B4E",
"o  c #735C4D",
"O  c #7A5E4E",
"+  c #625B51",
"@  c #686057",
"#  c #796255",
"$  c #74655A",
"%  c #76695E",
"&  c #7F6C5D",
"*  c #846C5C",
"=  c #8B6C5A",
"-  c #916F5C",
";  c #96725D",
":  c #9B745F",
">  c #826F61",
",  c #847264",
"<  c #85766A",
"1  c #887769",
"2  c #86796C",
"3  c #897A6D",
"4  c #947463",
"5  c #9B7461",
"6  c #957867",
"7  c #9A7A66",
"8  c #957B6B",
"9  c #9B7C6A",
"0  c #8B7D70",
"q  c #A07762",
"w  c #A37B65",
"e  c #AA7E66",
"r  c #A47D68",
"t  c #AA7E69",
"y  c #97816F",
"u  c #9E816F",
"i  c #8E8275",
"p  c #8D8579",
"a  c #968273",
"s  c #9A8474",
"d  c #9A8779",
"f  c #938A7C",
"g  c #9C8B7C",
"h  c #AC8067",
"j  c #A0826F",
"k  c #AD8169",
"l  c #B4856C",
"z  c #B8876E",
"x  c #B7886F",
"c  c #BA896F",
"v  c #B98770",
"b  c #BD8C72",
"n  c #C08D73",
"m  c #898B88",
"M  c #968E81",
"N  c #998F84",
"B  c #9E9284",
"V  c #9C958A",
"C  c #9E988D",
"Z  c #9E9B92",
"A  c #A29385",
"S  c #A39588",
"D  c #A39A8D",
"F  c #A99D8E",
"G  c #A49C91",
"H  c #AB9F92",
"J  c #A7A092",
"K  c #ABA395",
"L  c #ADA699",
"P  c #AEAA9C",
"I  c #B1A69A",
"U  c #B2AB9F",
"Y  c #AEAEA1",
"T  c #B2AEA1",
"R  c #B6B1A5",
"E  c #B9B4A6",
"W  c #B9B6A8",
"Q  c #BEBAAC",
"!  c #C1BCAD",
"~  c #C2BFB4",
"^  c #C5C2B4",
"/  c #C8C4B5",
"(  c #CBC6B9",
")  c #CDCABB",
"_  c #D2CEBE",
"`  c #D4D2C2",
"'  c #D8D5C6",
"]  c #D9D6C8",
"[  c #DDDBCB",
"{  c #E0DDCD",
"}  c #E2DFD0",
"|  c #E2E1CF",
" . c #E5E3D3",
".. c #E8E6D6",
"X. c #ECE9D6",
"o. c #ECE6D8",
"O. c #EEEBD9",
"+. c #F0EBD7",
"@. c #F0EDDB",
"#. c #F3F0DE",
/* pixels */
"k n b b b b b b b b b b b b b b b b b h H O.O.@.O.o.O.@.@...Q 2 O k n b b b l d  .O.O.O.O.O.Q m ",
"b b b b b b b b b b b b b b b b b b b b 9 ) O.O.O.@.O.{ T 0 * r b b b b b b b r L O.O.O.O.O.O.Y ",
"b b b b b b b b b b b b b b b b b b b b l d  .O.o.` V > = k b n b b b b b b b b 7 / #.O.O.O.O.O.",
"b b b b b b b b b b b b b b b b c b b b n r B W p * 5 l n n b b b b b b b b b b c y [ O.O.O.O.O.",
"b b b b b b b b b b b b b b b b b b b c w = @ o t b b b b b b b b b b b b b b b b e A ..+.O.O.O.",
"v b b b b b b b b b b b b b b b b k ; & f ^ { A t n b b b b b b b b b b b b b b b b w R @.O.O.O.",
"5 b b b b b b b b b b b b b x 7 * 2 P ] @.#.+.[ 8 v b b b b b b b b b b b b b b b n b 8 ) #.o./ ",
"B l b b b b b b b b b b h = & V ( ..@.O.O.O.O.O.^ 8 b b b b b b b b v b b b b b b b b l 0 T i * ",
"_ j n b b b b b b l ; * p W | @.O.O.O.O.O.O.O.O.@.T r b b b b b b b b b b b b b b b l 4 $ X e c ",
"O.K k b b c c w = < K _ X.+.X.X.O.O.O.O.O.O.O.O.+...V k b b b b b b b b b b b b l ; , K [ U 7 n ",
"O.' u b l ; > f ^  .#.O.O.O.O.O.O.O.O.O.O.O.O.O.O.@.] 8 l b b b b b b b c n l = , P { @.@...B e ",
"#.O.V O < L ] O.@.O.O.O.O.O.O.O.O.O.O.O.O.O.O.O.O.O.@./ 9 b b b b b n c h = 2 R  .O.O.O.O.O.' 8 ",
"W f * % ' #.@.O.+.+.O.O.O.O.O.O.O.O.O.O.O.O.O.O.O.O.@.O.I w b b n b e = i W ..@.O.O.O.O.O.O.O.^ ",
"= w b r L O.O.O.O.O.O.O.O.O.O.O.O.O.O.O.O.O.O.O.O.O.O.O. .g l n e * i ! ..O.O.O.O.O.O.O.O.O.O.O.",
"n n b b 6 ) +.O.O.O.O.O.O.O.O.O.O.O.O.O.O.O.O.O.O.O.O.O.O.` > = p ~ ..O.O.O.O.O.O.O.O.O.O.O.O.O.",
"c n b c l d | @.O.O.O.O.O.O.O.O.O.O.O.O.O.O.O.O.O.O.O.O.] D . C O.#.O.O.O.O.O.O.O.O.O.O.O.O.O.O.",
"b b b b n r K O.O.O.O.O.O.O.O.O.O.O.O.O.O.O.O.O.O.#.] F > : l s { +.O.O.O.O.O.O.O.O.O.O.O.O.O.O.",
"b b b b b b 7 ^ O.O.O.O.O.O.O.O.O.O.O.O.O.O.@.@.] J , : x b n r H O.O.O.O.O.O.O.O.O.O.O.O.O.O.O.",
"b b b b b b c y [ O.O.O.O.O.O.O.O.O.O.O.O.@.] J > : c n b b b b 9 ^ @.O.O.O.O.O.O.O.O.O.O.O.O.O.",
"b b b b b b b k S O.O.O.O.O.O.O.O.O.O.O.' D , ; c c b b b b b b v s } O.O.O.O.O.O.O.O.O.O.O.O.O.",
"b b b b b b b b 9 E @.O.O.O.O.O.+.@.` D * 5 v n b b b b b b b b n t K O.O.O.O.O.O.O.O.O.O.O.O.O.",
"b b b b b b b b c 8 _ O.O.O.O.O.` B > 5 c b b v b b b b b b b b b b 9 ( @.O.O.O.O.O.O.O.O.O.O.O.",
"b v b b b b b c b l g ..@.O.) B * 5 v b b b b b b b b b b b b b b b l d  .O.O.O.O.O.O.O.O.@...~ ",
"b b b b b b b b b b r L ) M * q v b b b b b b b b b b b b b b b b b n r L O.O.O.O.O.O.@...W 3 = ",
"b b b b b b b b b c : . # w v n b b b b b b b b b b b b b b b b b b b b 9 ( @.O.@.@. .W 3 = k b ",
"b b b b b b n v 5 * C / a v b b b b b b b b b b b b b b x b b b b b b b l s | @. .R 3 = k b b v ",
"b b b b b l : > D ] O.@./ 9 b b b b b b b b b b b b b b b b b b b b b b b r F R 1 = l b b b b b ",
"b b b x 5 , F ] @.@.O.O.O.H t b b b b b b b b b b b b b b b b b b b b n x ; + # l n b b b b b b ",
"b l ; , J [ @.O.O.O.O.O.@.[ s c b b b b b b b b b b b b b b b b b b z ; & L ' d l n b b b b b b ",
"; , K [ O.O.O.O.O.O.O.O.O.O.Q r b b b b b b b b b b b b b b b b v 5 > G [ @.@.) 9 b b b b b b b ",
"T [ O.O.O.O.O.O.O.O.O.O.O.O...A l b b b b b b b b b b b b n x 7 > Z ] O.O.O.O.O.L t b b b b b b ",
"O.O.O.O.O.O.O.O.O.O.O.O.O.O.O._ y b b b b b b b b b b b c q * V ' O.O.O.O.O.O.+.} d l b b b b b ",
"O.O.O.O.O.O.O.O.O.O.O.O.O.O.O.O.K k n b b b b b b b b w * N ) O.@.O.O.O.O.O.O.O.O./ 7 b b c b b ",
"O.O.O.O.O.O.O.O.O.O.O.O.O.O.O.O.[ u v b b b b b n e * f ) O.@.O.O.O.O.O.O.O.O.O.O.O.K k n b b b ",
"O.O.O.O.O.O.O.O.O.O.O.O.O.O.O.O.O.E r c b b b k = i ^ O.+.+.O.O.O.O.O.O.O.O.O.O.O.O.[ s c b b b ",
"O.O.O.O.O.O.O.O.O.O.O.O.O.O.O.O.O...g c n l = 0 Q ..+.O.O.O.O.O.O.O.O.O.O.O.O.O.O.O.@.Q r b b b ",
"O.O.O.O.O.O.O.O.O.O.O.O.O.O.O.O.O.@./ 4 - < R  .@.O.O.O.O.O.O.O.O.O.O.O.O.O.O.O.O.O.O...A k n c ",
"O.O.O.O.O.O.O.O.O.O.O.O.O.O.O.O.@...U   Z  .@.O.O.O.O.O.O.O.O.O.O.O.O.O.O.O.O.O.O.O.O.@._ 8 c n ",
"O.O.O.O.O.O.O.O.O.O.O.O.O.O.O...Q 1 = 5 I @.O.O.O.O.O.O.O.O.O.O.O.O.O.O.O.O.O.O.O.O.O.@.O.L h c ",
"O.O.O.O.O.O.O.O.O.O.O.+.@...Q 0 = h n b 9 ` @.O.O.O.O.O.O.O.O.O.O.O.O.O.O.O.O.O.O.O...O.#.| & * ",
"R @.O.O.O.O.O.O.O.O.@...Q 3 = k b b b b l H O.O.O.O.O.O.O.O.X.@.O.O.O.O.O.O.O.O.O.O.O.@.[ D X V ",
"8 ` @.O.O.O.O.O.O...W 3 = h n n b b b b b 9 ( +.O.O.O.O.O.O.O.+.O.O.O.O.O.O.O.O.@.@...R , : x 4 ",
"l S ..+.O.O.@. .R 3 = h b b b b b b b b b l g ..@.X.O.O.O.O.O.X.O.O.O.O.O.O.O.O.O.) p = v n b k ",
"n 7 ( #.#.[ Y , = k n n b b b b b b b b b b j ! @.O.O.O.O.O.O.O.O.O.O.O.O.O.@.[ D = e b b b b b ",
"b l g ` K , ; l b b b b b b b b b b b b b b c a | O.O.O.O.O.O.O.O.O.O.O.@.O.Q , 5 b b b b b b b ",
"c h O @ ; l b b b b b b b b b b b b b b b b b h L O.O.O.O.O.O.O.O.O.+.@.] f = l b b b b b b b b ",
"* f ! g x b b b b b b b b b b b b b b b b b b b 9 _ O.O.O.O.O.O.O.O...T , 7 b b b b b b b b b b ",
") X.#.( 9 b b b b b b b b b b b b b b b b b b b k S O.O.O.O.O.@.O.[ i = v b b b b b b b b b b b "
};
