/* XPM */
static char *result[] = {
/* columns rows colors chars-per-pixel */
"120 48 2 1 ",
"  c black",
". c None",
/* pixels */
"........................................................................................................................",
"........................................................................................................................",
"........................................................................................................................",
"........................................................................................................................",
"....                                                                                                                ....",
"....                                                                                                                ....",
"....                                                                                                                ....",
"....                                                                                                                ....",
"....                                                                                                                ....",
"....                                                                                                                ....",
"....                                                                                                                ....",
"....                                                                                                                ....",
"....                                                                                                                ....",
"....                                                                                                                ....",
"....                                                                                                                ....",
"....                                                                                                                ....",
"....                                                                                                                ....",
"....                                                                                                                ....",
"....                                                                                                                ....",
"....                                                                                                                ....",
"....                                                                                                                ....",
"....                                                                                                                ....",
"....                                                                                                                ....",
"....                                                                                                                ....",
"....                                                                                                                ....",
"....                                                                                                                ....",
"....                                                                                                                ....",
"....                                                                                                                ....",
"....                                                                                                                ....",
"....                                                                                                                ....",
"....                                                                                                                ....",
"....                                                                                                                ....",
"....                                                                                                                ....",
"....                                                                                                                ....",
"....                                                                                                                ....",
"........................................................................................................................",
"........................................................................................................................",
"........................................................................................................................",
"........................................................................................................................",
"........................................................................................................................",
"........................................................................................................................",
"........................................................................................................................",
"........................................................................................................................",
"........................................................................................................................",
"........................................................................................................................",
"........................................................................................................................",
"........................................................................................................................",
"........................................................................................................................"
};