/* XPM */
static char *result[] = {
/* columns rows colors chars-per-pixel */
"45 48 224 2 ",
"   c #3F4959",
".  c #3C4D69",
"X  c #3D5577",
"o  c #3F5476",
"O  c #37537A",
"+  c #3E5579",
"@  c #3E567B",
"#  c #3F577D",
"$  c #3E597B",
"%  c #3A597F",
"&  c #3F587C",
"*  c #3E597E",
"=  c #4D5D74",
"-  c #41567B",
";  c #40577B",
":  c #40587C",
">  c #42597C",
",  c #43597D",
"<  c #41587E",
"1  c #41597E",
"2  c #40587F",
"3  c #43597F",
"4  c #415B7F",
"5  c #445A7F",
"6  c #455B7F",
"7  c #405E7D",
"8  c #445C7F",
"9  c #465D7F",
"0  c #4B607F",
"q  c #4E607D",
"w  c #80545B",
"e  c #B36B78",
"r  c #3F5A81",
"t  c #415A80",
"y  c #415A81",
"u  c #425A81",
"i  c #425C81",
"p  c #415C83",
"a  c #445C80",
"s  c #455D80",
"d  c #445C81",
"f  c #455D81",
"g  c #465E81",
"h  c #445D82",
"j  c #455D82",
"k  c #445D83",
"l  c #455D83",
"z  c #465D82",
"x  c #475D83",
"c  c #465E82",
"v  c #475E82",
"b  c #465E83",
"n  c #425E87",
"m  c #475F84",
"M  c #445E86",
"N  c #485E83",
"B  c #485F83",
"V  c #495F84",
"C  c #455F89",
"Z  c #486082",
"A  c #486083",
"S  c #496083",
"D  c #496283",
"F  c #4A6283",
"G  c #486084",
"H  c #4A6085",
"J  c #4B6185",
"K  c #4A6285",
"L  c #4A6186",
"P  c #4B6386",
"I  c #4B6387",
"U  c #4C6385",
"Y  c #4D6385",
"T  c #4E6385",
"R  c #4C6386",
"E  c #4D6485",
"W  c #4D6487",
"Q  c #4D6587",
"!  c #4F6686",
"~  c #486288",
"^  c #4A638B",
"/  c #4B678B",
"(  c #4E6788",
")  c #4F6789",
"_  c #4E658A",
"`  c #4D668B",
"'  c #4F668B",
"]  c #526786",
"[  c #51668A",
"{  c #51678B",
"}  c #55658E",
"|  c #516888",
" . c #526A89",
".. c #51698A",
"X. c #51688B",
"o. c #516A8B",
"O. c #536A8B",
"+. c #546889",
"@. c #546A89",
"#. c #566B8A",
"$. c #576B8A",
"%. c #556C8B",
"&. c #51688F",
"*. c #546B8D",
"=. c #526C8E",
"-. c #556C8C",
";. c #576C8C",
":. c #566C8D",
">. c #566E8D",
",. c #576D8E",
"<. c #586C8B",
"1. c #5D6F89",
"2. c #5F6C8B",
"3. c #586D8C",
"4. c #5A6E8D",
"5. c #5A6F8D",
"6. c #5B6D8E",
"7. c #596E8E",
"8. c #5A6F8E",
"9. c #5B6F8E",
"0. c #5C6F8E",
"q. c #5D718C",
"w. c #5D708D",
"e. c #5E718C",
"r. c #5E728D",
"t. c #5F738F",
"y. c #576B91",
"u. c #536C90",
"i. c #556C90",
"p. c #556E91",
"a. c #5B6F90",
"s. c #597091",
"d. c #5B7291",
"f. c #5D7090",
"g. c #5D7191",
"h. c #5E7290",
"j. c #5F7290",
"k. c #5E7291",
"l. c #5F7392",
"z. c #5E7493",
"x. c #587094",
"c. c #5C7494",
"v. c #5D7497",
"b. c #606E8C",
"n. c #656F8D",
"m. c #607490",
"M. c #607590",
"N. c #617590",
"B. c #607591",
"V. c #627691",
"C. c #617592",
"Z. c #637592",
"A. c #627493",
"S. c #627692",
"D. c #637692",
"F. c #647690",
"G. c #647791",
"H. c #627695",
"J. c #607696",
"K. c #647794",
"L. c #647893",
"P. c #607A96",
"I. c #657995",
"U. c #667A94",
"Y. c #677A95",
"T. c #667A96",
"R. c #677B96",
"E. c #687C97",
"W. c #6C7D96",
"Q. c #6C7D97",
"!. c #647B98",
"~. c #667C99",
"^. c #627C9D",
"/. c #697B98",
"(. c #697C98",
"). c #6A7F99",
"_. c #687C9B",
"`. c #6E7F9B",
"'. c #687F9C",
"]. c #817189",
"[. c #8A7A8F",
"{. c #A97F8E",
"}. c #C97D84",
"|. c #C87788",
" X c #6B809A",
".X c #6E819B",
"XX c #6F829B",
"oX c #6E829C",
"OX c #70839C",
"+X c #72839D",
"@X c #74849C",
"#X c #6F82A1",
"$X c #6D8BAB",
"%X c #7681A3",
"&X c #7586A0",
"*X c #7487A3",
"=X c #7A8AA2",
"-X c #7489A8",
";X c #798EAA",
":X c #7E90A9",
">X c #AD889C",
",X c #9589A1",
"<X c #B38EA1",
"1X c #DD878F",
"2X c #D38493",
"3X c #EB9AA7",
"4X c #ED98A5",
"5X c #EE98A6",
"6X c #EA9CA5",
"7X c #ED9CA7",
"8X c #F697A9",
"9X c #F09EA9",
"0X c #F59FAB",
"qX c #F59BAC",
"wX c #F2A3B0",
"eX c #F7A2B1",
"rX c #F5A4B1",
"tX c #FAA5B3",
"yX c #FCA7B6",
"uX c #FEA7B7",
"iX c #F4A8B5",
"pX c #F6A8B4",
"aX c #FEA9B4",
"sX c None",
/* pixels */
"sXsXsXsXsXsXsXsXsXsXsXsXsXsXsXsXsXsXsXsXsXsXsXsXsXsXsXsXsXsXsXsXsXsXsXsXsXsXsXsXsXsXsXsXsX",
"sXsXsXsXsXsXsXsXsXsXsXsXsXsXsXsXsXsXsXsXsXsXsXsXsXsXsXsXsXsXsXsXsXsXsXsXsXsXsXsXsXsXsXsXsX",
"sXsXsXsXsXsXsXsXsXsXsXsXsXsXsXsXsXsXsXsXsXsXsXsXsXsXsXsXsXsXsXsXsXsXsXsXsXsXsXsXsXsXsXsXsX",
"sXsXsXsXsXsXsXsXsXsXsXsXsXsXsXsXsXsXsXsXsXsXsXsXsXsXsXsXsXsXsXsXsXsXsXsXsXsXsXsXsXsXsXsXsX",
"sXsXsXsXsXsXsXsXsXsXsXsXsXsXsXsXsXsXsXsXsXsXsXsXsXsXsXsXsXsXsXsXsXsXsXsXsXsXsXsXsXsXsXsXsX",
"sXsXsXsXsXsXsXsXsXsXsXsXsXsXsXsXsXsXsXsXsXsXsXsXsXsXsXsXsXsXsXsXsXsXsXsXsXsXsXsXsXsXsXsXsX",
"sXsXsXsXsXsXsXsXsXsXsXsXsXsXsXsXsXsXsXsXsXsXsXsXsXsXsXsXsXsXsXsXsXsXsXsXsXsXsXsXsXsXsXsXsX",
"sXsXsXsXsXsXsXsXsXsXsXsXsXsXsXsXsXsXsXsXsXsXsXsXsXsXsXsXsXsXsXsXsXsXsXsXsXsXsXsXsXsXsXsXsX",
"sXsXsXsXsXsXsXsXsXsXsXsXsXU./.#X!.e.-.sXsXsXsXsXsXsXsXsXsXsXsXsXsXsXsXsXsXsXsXsXsXsXsXsXsX",
"sXsXsXsXsXsXsXsXsXsXsXsXU.;X@X`.I.J.v.-.sXsXsXsXsXsXsXsXsXsXsXsXsXsXsXsXsXsXsXsXsXsXsXsXsX",
"sXsXsXsXsXsXsXsXsXsXsXsX.X:XXXU.G.e.d.p.Q sXsXsXsXsXsXsXsXsXsXsXsXsXsXsXsXsXsXsXsXsXsXsXsX",
"sXsXsXsXsXsXsXsXsXsXsXM.*X=XOX(.H.d.-.Q / b sXsXsXsXsXsXsXsXsXsXsXsXsXsXsXsXsXsXsXsXsXsXsX",
"sXsXsXsXsXsXsXsXsXsXsXS.Q.&X+XL.m.8.O.Q b C b sXsXsXsXsXsXsXsXsXsXsXsXsXsXsXsXsXsXsXsXsXsX",
"sXsXsXsXsXsXsXsXsXsXF._.F.XXoXV.h.3...P b b % >X0X3XsXsXsXsXsXsXsXsXsXsXsXsXsXsXsXsXsXsXsX",
"sXsXsXsXsXsXsX^.z.sXz.M.N.). Xj.9.%.) H k , O >XaXiXpXyX3XsXsXsXsXsXsXsXsXsXsXsXsXsXsXsXsX",
"sXsXsXsXsXsXz.%X<Xz.B.t.r.E.R.0.;. .W N i # % >X0X4X5X3XrX3XsXsXsXsXsXsXsXsXsXsXsXsXsXsXsX",
"sXsXsXsXsXsX=.,X6Xb.z.D.q.E.S.$.@.! H l 4 + 7 >X5X5X5X5X5XwX3XsXsXsXsXsXsXsXsXsXsXsXsXsXsX",
"sXsXsXsXsXsXz.<X9Xn.s.K.S.T.w.<.#.I x d * o u.>XsXsXsXsX5X5XtX3XsXsXsXsXsXsXsXsXsXsXsXsXsX",
"sXsXsXsXsXsXP.<X7X2.o.Z.A.C.4.k.:.U a < @ g O.sXsXsXsXsXsXsX5XuX3XsXsXsXsXsXsXsXsXsXsXsXsX",
"sXsXsXsXsXY.$X{.1X6.E f.l.5.7.a.*.0 A u u y.sXsXsXsXsXsXsXsXsX5XeXsXsXsXsXsXsXsXsXsXsXsXsX",
"sXsXsXsXsXW.'.[.}.[ F | +.] ,.X.( 6 X g { ~.Q.sXsXsXsXsXsXsXsXsX5X3XsXsXsXsXsXsXsXsXsXsXsX",
"sXsXsXsXsX-XY.g.].L S K 9 Y *.V f s X X sXO.Q.sXsXsXsXsXsXsXsXsXsX8X3XsXsXsXsXsXsXsXsXsXsX",
"sXsXsXsX1.Y.1.>.~ h v G 5 R { 3 3 s X sXsXu =XsXsXsXsXsXsXsXsXsXsXsXqXsXsXsXsXsXsXsXsXsXsX",
"sXsXsXsX1.sX= i.6 t f z ; B J 3 3 3 sXsXsXu =XsXsXsXsXsXsXsXsXsXsXsX5X3XsXsXsXsXsXsXsXsXsX",
"sXsXsXsXc.  q ` : & 8 8 ; ; 3 3 3 sXsXsXsXsXsXsXsXsXsXsXsXsXsXsXsXsXsX5XsXsXsXsXsXsXsXsXsX",
"sXsXsXT x.=.' j $ - 8 8 & ; ; ; sXsXsXsXsXsXsX=XsXsXsXsXsXsXsXsXsXsXsXsX5XsXsXsXsXsXsXsXsX",
"sXsXsXT [ T m 2 > - 8 & & & sXsXsXsXsXsXsXsXsX=XsXsXsXsXsXsXsXsXsXsXsXsX5X4XsXsXsXsXsXsXsX",
"sXsXsXM Z c 1 p . . ^ sXsXsXsXsXsXsXsXsXsXsXsXsXsXsXsXsXsXsXsXsXsXsXsXsXsX5XsXsXsXsXsXsXsX",
"sXsXsX} y r r _ . T . sXsXsXsXsXsXsXsXsXsXsXsXsXsXsXsXsXsXsXsXsXsXsXsXsXsXsX5XsXsXsXsXsXsX",
"sXsXsX<X1 1 &.T g.g.sXsXsXsXsXsXsXsXsXsXsXsXsXsXsXsXsXsXsXsXsXsXsXsXsXsXsXsX5XsXsXsXsXsXsX",
"sXsXsXq n D g.sXY.sXsXsXsXsXsXsXsXsXsXsXsXsXsXsXsXsXsXsXsXsXsXsXsXsXsXsXsXsXsX5XsXsXsXsXsX",
"sXsXsXsXsXsXsXsXsXsXsXsXsXsXsXsXsXsXsXsXsXsXsXsXsXsXsXsXsXsXsXsXsXsXsXsXsXsXsX5XsXsXsXsXsX",
"sXsXsXsXsXsXsXsXsXsXsXsXsXsXsXsXsXsXsXsXsXsXsXsXsXsXsXsXsXsXsXsXsXsXsXsXsXsXsXsX2XsXsXsXsX",
"sXsXsXsXsXsXsXsXsXsXsXsXsXsXsXsXsXsXsXsXsXsXsXsXsXsXsXsXsXsXsXsXsXsXsXsXsXsXsXsXe w sXsXsX",
"sXsXsXsXsXsXsXsXsXsXsXsXsXsXsXsXsXsXsXsXsXsXsXsXsXsXsXsXsXsXsXsXsXsXsXsXsXsXsXsXsX|.sXsXsX",
"sXsXsXsXsXsXsXsXsXsXsXsXsXsXsXsXsXsXsXsXsXsXsXsXsXsXsXsXsXsXsXsXsXsXsXsXsXsXsXsXsXsXsXsXsX",
"sXsXsXsXsXsXsXsXsXsXsXsXsXsXsXsXsXsXsXsXsXsXsXsXsXsXsXsXsXsXsXsXsXsXsXsXsXsXsXsXsXsXsXsXsX",
"sXsXsXsXsXsXsXsXsXsXsXsXsXsXsXsXsXsXsXsXsXsXsXsXsXsXsXsXsXsXsXsXsXsXsXsXsXsXsXsXsXsXsXsXsX",
"sXsXsXsXsXsXsXsXsXsXsXsXsXsXsXsXsXsXsXsXsXsXsXsXsXsXsXsXsXsXsXsXsXsXsXsXsXsXsXsXsXsXsXsXsX",
"sXsXsXsXsXsXsXsXsXsXsXsXsXsXsXsXsXsXsXsXsXsXsXsXsXsXsXsXsXsXsXsXsXsXsXsXsXsXsXsXsXsXsXsXsX",
"sXsXsXsXsXsXsXsXsXsXsXsXsXsXsXsXsXsXsXsXsXsXsXsXsXsXsXsXsXsXsXsXsXsXsXsXsXsXsXsXsXsXsXsXsX",
"sXsXsXsXsXsXsXsXsXsXsXsXsXsXsXsXsXsXsXsXsXsXsXsXsXsXsXsXsXsXsXsXsXsXsXsXsXsXsXsXsXsXsXsXsX",
"sXsXsXsXsXsXsXsXsXsXsXsXsXsXsXsXsXsXsXsXsXsXsXsXsXsXsXsXsXsXsXsXsXsXsXsXsXsXsXsXsXsXsXsXsX",
"sXsXsXsXsXsXsXsXsXsXsXsXsXsXsXsXsXsXsXsXsXsXsXsXsXsXsXsXsXsXsXsXsXsXsXsXsXsXsXsXsXsXsXsXsX",
"sXsXsXsXsXsXsXsXsXsXsXsXsXsXsXsXsXsXsXsXsXsXsXsXsXsXsXsXsXsXsXsXsXsXsXsXsXsXsXsXsXsXsXsXsX",
"sXsXsXsXsXsXsXsXsXsXsXsXsXsXsXsXsXsXsXsXsXsXsXsXsXsXsXsXsXsXsXsXsXsXsXsXsXsXsXsXsXsXsXsXsX",
"sXsXsXsXsXsXsXsXsXsXsXsXsXsXsXsXsXsXsXsXsXsXsXsXsXsXsXsXsXsXsXsXsXsXsXsXsXsXsXsXsXsXsXsXsX",
"sXsXsXsXsXsXsXsXsXsXsXsXsXsXsXsXsXsXsXsXsXsXsXsXsXsXsXsXsXsXsXsXsXsXsXsXsXsXsXsXsXsXsXsXsX"
};
