/* XPM */
static char *result[] = {
/* columns rows colors chars-per-pixel */
"44 48 193 2 ",
"   c #3D465A",
".  c #3F5575",
"X  c #36557A",
"o  c #3B557B",
"O  c #3D547A",
"+  c #3C557B",
"@  c #3F587B",
"#  c #3E587C",
"$  c #3F587C",
"%  c #474956",
"&  c #40587D",
"*  c #415A7D",
"=  c #42597E",
"-  c #415A7F",
";  c #435A7F",
":  c #425B7F",
">  c #445B7F",
",  c #435D7F",
"<  c #465E7F",
"1  c #AF6F7A",
"2  c #435B82",
"3  c #445983",
"4  c #415C83",
"5  c #435E82",
"6  c #445C80",
"7  c #475D80",
"8  c #455E81",
"9  c #455C83",
"0  c #475C83",
"q  c #455F82",
"w  c #465E83",
"e  c #445D84",
"r  c #475E84",
"t  c #465F86",
"y  c #495F81",
"u  c #495F84",
"i  c #436084",
"p  c #456385",
"a  c #466186",
"s  c #4A6082",
"d  c #4B6083",
"f  c #496085",
"g  c #4B6284",
"h  c #4A6285",
"j  c #4B6285",
"k  c #4A6385",
"l  c #486086",
"z  c #486186",
"x  c #4A6187",
"c  c #496286",
"v  c #4B6386",
"b  c #4B6387",
"n  c #4C6385",
"m  c #4C6286",
"M  c #4D6286",
"N  c #4E6485",
"B  c #4C6586",
"V  c #4D6587",
"C  c #4E6587",
"Z  c #4F6687",
"A  c #4F6787",
"S  c #466188",
"D  c #486188",
"F  c #496589",
"G  c #4E6588",
"H  c #4D678A",
"J  c #4F688E",
"K  c #536385",
"L  c #516585",
"P  c #506785",
"I  c #506586",
"U  c #526786",
"Y  c #526687",
"T  c #526787",
"R  c #516887",
"E  c #506788",
"W  c #526788",
"Q  c #536789",
"!  c #50668A",
"~  c #50678A",
"^  c #516888",
"/  c #52688A",
"(  c #52698A",
")  c #506A8A",
"_  c #556988",
"`  c #54688B",
"'  c #556A8A",
"]  c #576C8B",
"[  c #52698F",
"{  c #536B8E",
"}  c #546B8C",
"|  c #566D8C",
" . c #566D8D",
".. c #566E8F",
"X. c #576F8F",
"o. c #586D8B",
"O. c #596D8B",
"+. c #586D8C",
"@. c #596E8D",
"#. c #596F8D",
"$. c #5A6F8C",
"%. c #596E8E",
"&. c #5A6E8F",
"*. c #5D728B",
"=. c #58708C",
"-. c #5B708E",
";. c #5C708D",
":. c #5D718D",
">. c #5E718D",
",. c #5D718F",
"<. c #5D738F",
"1. c #5F748F",
"2. c #566F92",
"3. c #5B7191",
"4. c #5E7291",
"5. c #5F7391",
"6. c #5E7392",
"7. c #5F7392",
"8. c #5E7490",
"9. c #5F7491",
"0. c #5B7295",
"q. c #606C84",
"w. c #6A6A87",
"e. c #616E8A",
"r. c #647389",
"t. c #61758F",
"y. c #627691",
"u. c #607593",
"i. c #627692",
"p. c #627792",
"a. c #637792",
"s. c #637793",
"d. c #647692",
"f. c #617694",
"g. c #6F7791",
"h. c #677991",
"j. c #647893",
"k. c #677993",
"l. c #657894",
"z. c #657994",
"x. c #667995",
"c. c #647A95",
"v. c #667B95",
"b. c #667A97",
"n. c #687B95",
"m. c #687C95",
"M. c #687C96",
"N. c #697C97",
"B. c #6B7C96",
"V. c #6A7E97",
"C. c #637999",
"Z. c #61799B",
"A. c #677B98",
"S. c #677C99",
"D. c #687C98",
"F. c #6A7E98",
"G. c #687D9B",
"H. c #6D7F98",
"J. c #6F7F99",
"K. c #6E7F9A",
"L. c #757590",
"P. c #7A7793",
"I. c #7E7893",
"U. c #817993",
"Y. c #847F94",
"T. c #B87C87",
"R. c #6F809A",
"E. c #6B809D",
"W. c #6B819E",
"Q. c #6F809E",
"!. c #6D829F",
"~. c #70819B",
"^. c #6D82A0",
"/. c #6D82A1",
"(. c #6F85A0",
"). c #6D87A2",
"_. c #7286A0",
"`. c #7688A2",
"'. c #778AA3",
"]. c #7A8DA8",
"[. c #83829E",
"{. c #AE8A9E",
"}. c #978AA1",
"|. c #998CA9",
" X c #E58385",
".X c #F2999E",
"XX c #C793A6",
"oX c #F6A1AA",
"OX c #F6A3AD",
"+X c #F8A0AA",
"@X c #F9A7B5",
"#X c #FAA7B5",
"$X c None",
/* pixels */
"$X$X$X$X$X$X$X$X$X$X$X$X$X$X$X$X$X$X$X$X$X$X$X$X$X$X$X$X$X$X$X$X$X$X$X$X$X$X$X$X$X$X$X$X",
"$X$X$X$X$X$X$X$X$X$X$X$X$X$X$X$X$X$X$X$X$X$X$X$X$X$X$X$X$X$X$X$X$X$X$X$X$X$X$X$X$X$X$X$X",
"$X$X$X$X$X$X$X$X$X$X$X$X$X$X$X$X$X$X$X$X$X$X$X$X$X$X$X$X$X$X$X$X$X$X$X$X$X$X$X$X$X$X$X$X",
"$X$X$X$X$X$X$X$X$X$X$X$X$X$X$X$X$X$X$X$X$X$X$X$X$X$X$X$X$X$X$X$X$X$X$X$X$X$X$X$X$X$X$X$X",
"$X$X$X$X$X$X$X$X$X$X$X$X$X$X$X$X$X$X$X$X$X$X$X$X$X$X$X$X$X$X$X$X$X$X$X$X$X$X$X$X$X$X$X$X",
"$X$X$X$X$X$X$X$X$X$X$X$X$X$X$X$X$X$X$X$X$X$X$X$X$X$X$X$X$X$X$X$X$X$X$X$X$X$X$X$X$X$X$X$X",
"$X$X$X$X$X$X$X$X$X$X$X$X$X$X$X$X$X$X$X$X$X$X$X$X$X$X$X$X$X$X$X$X$X$X$X$X$X$X$X$X$X$X$X$X",
"$X$X$X$X$X$X$X$X$X$X$X$X$X$X$X$X$X$X$X$X$X$X$X$X$X$X$X$X$X$X$X$X$X$X$X$X$X$X$X$X$X$X$X$X",
"$X$X$X$X$X$X$X$X$X$X$X$X$X$X$X$X$X$X$X$X$X$X$X$X$X$X$X#.#.S.5.$X$X$X$X$X$X$X$X$X$X$X$X$X",
"$X$X$X$X$X$X$X$X$X$X$X$X$X$X$X$X$X$X$X$X$X$X$X$X$X` X.0.C.W.G.E.$X$X$X$X$X$X$X$X$X$X$X$X",
"$X$X$X$X$X$X$X$X$X$X$X$X$X$X$X$X$X$X$X$X$X$X$X$Xl ~ ` o.>.S.E./._.$X$X$X$X$X$X$X$X$X$X$X",
"$X$X$X$X$X$X$X$X$X$X$X$X$X$X$X$XOXOXOX$X$X$XO a 8 j ` #.5.s.K._.n.$X$X$X$X$X$X$X$X$X$X$X",
"$X$X$X$X$X$X$X$X$X$X$X$X$XOXOXOX#XOXOX@XOX{.X 8 8 b R %.9.v.N.~.]._.$X$X$X$X$X$X$X$X$X$X",
"$X$X$X$X$X$X$X$X$X$X$X$XOXOXOXOXOXOXOXOXOX{.X 3 9 g ^ @.9.z.F.R.`.h.$X$X$X$X$X$X$X$X$X$X",
"$X$X$X$X$X$X$X$X$X$X$XOXOX.X.X.X.X.XOXOXOX{.X O = k A | 4.a.V.R.J.!.$X$X$X$X$X$X$X$X$X$X",
"$X$X$X$X$X$X$X$X$X$XOX+X.X$X$X$X$X$X$X$X X{.X + + z G } -.i.m.H.B.^.d.$X$X$X$X$X$X$X$X$X",
"$X$X$X$X$X$X$X$X$XoX+X$X$X$X$X$X$X$X$X$X$X$X$X+ + < B ( @.9.z.M.M.D.d.$X$X$X$X$X$X$X$X$X",
"$X$X$X$X$X$X$X$XoX+X$X$X$X$X$X$X$X$X$X$X$X$X$X$XO r h E ] -.8.l.z.d.b.$X$X=.$X$X$X$X$X$X",
"$X$X$X$X$X$X$X$X+X$X$X$X$X$X$X$X$X$X$X$X$X$X$X$X, t r V Q ,.j.t.y.1.c.c.c.Z.$X$X$X$X$X$X",
"$X$X$X$X$X$X$XoX.X$X$X$X$X$X$X$X$X$X$X$X$X$X$X$XO , , d L 7.x.y.:.<.=.g.XXQ.$X$X$X$X$X$X",
"$X$X$X$X$X$XoX+X$X$X$X$X$X$X$X$X$X$X$X$X$X$X$X$Xr r 0 u N 6.f.p.$.;.) P.oX[.=.$X$X$X$X$X",
"$X$X$X$X$X$X+X$X$X$X$X$X$X$X$X$X$X$X$X$X$X$X$X$Xg u N u g  .+.u.] O.H U.+X|.=.$X$X$X$X$X",
"$X$X$X$X$XoX.X$X$X$X$X$X$X$X$X$X$X$X$X$X$X$X$X$X' 0 + 0 C C ' &.U _ F I..X}.*.$X$X$X$X$X",
"$X$X$X$X$X+X$X$X$X$X$X$X$X$X$X$X$X$X$X$X$X$X$X$X1.u ' + w ~ } Z Y T p L. XY.).$X$X$X$X$X",
"$X$X$X$X$X$X$X$X$X$X$X$X$X$X$X$X$X$X$X$X$X$X$X$X1.$X4.$X* v ~ s W I i w.T.k.'.k.$X$X$X$X",
"$X$X$X$X+X$X$X$X$X$X$X$X$X$X$X$X$X$X$X$X$X$X$X$Xd.$X$X$X$Xx * * m n 5 K e.3.(.k.$X$X$X$X",
"$X$X$X$X$X$X$X$X$X$X$X$X$X$X$X$X$X$X$X$X$X$X$X$XJ.$X$XR.$X* * . 7 w 6 4 b 4.*.A.$X$X$X$X",
"$X$X$X1 $X$X$X$X$X$X$X$X$X$X$X$X$X$X$X$X$X$X$X$X~.$X$X$X$X$X> > > > - & y 2.% k.P $X$X$X",
"$X$X$X$X$X$X$X$X$X$X$X$X$X$X$X$X$X$X$X$X$X$X$X$XY.$X$X$X$X$X$X- $ > $ @ ; {   *.P $X$X$X",
"$X$X$X$X$X$X$X$X$X$X$X$X$X$X$X$X$X$X$X$X$X$X$X$X$X$X$X$X$X$X$X$X$ : # : # c / ..P $X$X$X",
"$X$X$X$X$X$X$X$X$X$X$X$X$X$X$X$X$X$X$X$X$X$X$X$X$X$X$X$X$X$X$X$X$Xc # c c 2 M P [ $X$X$X",
"$X$X$X$X$X$X$X$X$X$X$X$X$X$X$X$X$X$X$X$X$X$X$X$X$X$X$X$X$X$X$X$X$X$Xc f M # q f J $X$X$X",
"$X$X$X$X$X$X$X$X$X$X$X$X$X$X$X$X$X$X$X$X$X$X$X$X$X$X$X$X$X$X$X$X$X$XP $XP D e e S e $X$X",
"$X$X$X$X$X$X$X$X$X$X$X$X$X$X$X$X$X$X$X$X$X$X$X$X$X$X$X$X$X$X$X$X$X$X$X*.$X/ e o / Y.$X$X",
"$X$X$X$X$X$X$X$X$X$X$X$X$X$X$X$X$X$X$X$X$X$X$X$X$X$X$X$X$X$X$X$X$X$X$Xr.$X$X! e / oX$X$X",
"$X$X$X$X$X$X$X$X$X$X$X$X$X$X$X$X$X$X$X$X$X$X$X$X$X$X$X$X$X$X$X$X$X$X$Xq.$X$X$XM e $X$X$X",
"$X$X$X$X$X$X$X$X$X$X$X$X$X$X$X$X$X$X$X$X$X$X$X$X$X$X$X$X$X$X$X$X$X$X$X$X$X$X$X$X$X$X$X$X",
"$X$X$X$X$X$X$X$X$X$X$X$X$X$X$X$X$X$X$X$X$X$X$X$X$X$X$X$X$X$X$X$X$X$X$X$X$X$X$X$X$X$X$X$X",
"$X$X$X$X$X$X$X$X$X$X$X$X$X$X$X$X$X$X$X$X$X$X$X$X$X$X$X$X$X$X$X$X$X$X$X$X$X$X$X$X$X$X$X$X",
"$X$X$X$X$X$X$X$X$X$X$X$X$X$X$X$X$X$X$X$X$X$X$X$X$X$X$X$X$X$X$X$X$X$X$X$X$X$X$X$X$X$X$X$X",
"$X$X$X$X$X$X$X$X$X$X$X$X$X$X$X$X$X$X$X$X$X$X$X$X$X$X$X$X$X$X$X$X$X$X$X$X$X$X$X$X$X$X$X$X",
"$X$X$X$X$X$X$X$X$X$X$X$X$X$X$X$X$X$X$X$X$X$X$X$X$X$X$X$X$X$X$X$X$X$X$X$X$X$X$X$X$X$X$X$X",
"$X$X$X$X$X$X$X$X$X$X$X$X$X$X$X$X$X$X$X$X$X$X$X$X$X$X$X$X$X$X$X$X$X$X$X$X$X$X$X$X$X$X$X$X",
"$X$X$X$X$X$X$X$X$X$X$X$X$X$X$X$X$X$X$X$X$X$X$X$X$X$X$X$X$X$X$X$X$X$X$X$X$X$X$X$X$X$X$X$X",
"$X$X$X$X$X$X$X$X$X$X$X$X$X$X$X$X$X$X$X$X$X$X$X$X$X$X$X$X$X$X$X$X$X$X$X$X$X$X$X$X$X$X$X$X",
"$X$X$X$X$X$X$X$X$X$X$X$X$X$X$X$X$X$X$X$X$X$X$X$X$X$X$X$X$X$X$X$X$X$X$X$X$X$X$X$X$X$X$X$X",
"$X$X$X$X$X$X$X$X$X$X$X$X$X$X$X$X$X$X$X$X$X$X$X$X$X$X$X$X$X$X$X$X$X$X$X$X$X$X$X$X$X$X$X$X",
"$X$X$X$X$X$X$X$X$X$X$X$X$X$X$X$X$X$X$X$X$X$X$X$X$X$X$X$X$X$X$X$X$X$X$X$X$X$X$X$X$X$X$X$X"
};
