/* XPM */
static char *result[] = {
/* columns rows colors chars-per-pixel */
"44 48 193 2 ",
"   c #3D465A",
".  c #3F5575",
"X  c #36557A",
"o  c #3B557B",
"O  c #3D547A",
"+  c #3C557B",
"@  c #3F587B",
"#  c #3E587C",
"$  c #3F587C",
"%  c #474956",
"&  c #40587D",
"*  c #415A7D",
"=  c #42597E",
"-  c #415A7F",
";  c #435A7F",
":  c #425B7F",
">  c #445B7F",
",  c #435D7F",
"<  c #465E7F",
"1  c #AF6F7A",
"2  c #435B82",
"3  c #445983",
"4  c #415C83",
"5  c #435E82",
"6  c #445C80",
"7  c #475D80",
"8  c #455E81",
"9  c #455C83",
"0  c #475C83",
"q  c #455F82",
"w  c #465E83",
"e  c #445D84",
"r  c #475E84",
"t  c #465F86",
"y  c #495F81",
"u  c #495F84",
"i  c #436084",
"p  c #456385",
"a  c #466186",
"s  c #4A6082",
"d  c #4B6083",
"f  c #496085",
"g  c #4B6284",
"h  c #4A6285",
"j  c #4B6285",
"k  c #4A6385",
"l  c #486086",
"z  c #486186",
"x  c #4A6187",
"c  c #496286",
"v  c #4B6386",
"b  c #4B6387",
"n  c #4C6385",
"m  c #4C6286",
"M  c #4D6286",
"N  c #4E6485",
"B  c #4C6586",
"V  c #4D6587",
"C  c #4E6587",
"Z  c #4F6687",
"A  c #4F6787",
"S  c #466188",
"D  c #486188",
"F  c #496589",
"G  c #4E6588",
"H  c #4D678A",
"J  c #4F688E",
"K  c #536385",
"L  c #516585",
"P  c #506785",
"I  c #506586",
"U  c #526786",
"Y  c #526687",
"T  c #526787",
"R  c #516887",
"E  c #506788",
"W  c #526788",
"Q  c #536789",
"!  c #50668A",
"~  c #50678A",
"^  c #516888",
"/  c #52688A",
"(  c #52698A",
")  c #506A8A",
"_  c #556988",
"`  c #54688B",
"'  c #556A8A",
"]  c #576C8B",
"[  c #52698F",
"{  c #536B8E",
"}  c #546B8C",
"|  c #566D8C",
" . c #566D8D",
".. c #566E8F",
"X. c #576F8F",
"o. c #586D8B",
"O. c #596D8B",
"+. c #586D8C",
"@. c #596E8D",
"#. c #596F8D",
"$. c #5A6F8C",
"%. c #596E8E",
"&. c #5A6E8F",
"*. c #5D728B",
"=. c #58708C",
"-. c #5B708E",
";. c #5C708D",
":. c #5D718D",
">. c #5E718D",
",. c #5D718F",
"<. c #5D738F",
"1. c #5F748F",
"2. c #566F92",
"3. c #5B7191",
"4. c #5E7291",
"5. c #5F7391",
"6. c #5E7392",
"7. c #5F7392",
"8. c #5E7490",
"9. c #5F7491",
"0. c #5B7295",
"q. c #606C84",
"w. c #6A6A87",
"e. c #616E8A",
"r. c #647389",
"t. c #61758F",
"y. c #627691",
"u. c #607593",
"i. c #627692",
"p. c #627792",
"a. c #637792",
"s. c #637793",
"d. c #647692",
"f. c #617694",
"g. c #6F7791",
"h. c #677991",
"j. c #647893",
"k. c #677993",
"l. c #657894",
"z. c #657994",
"x. c #667995",
"c. c #647A95",
"v. c #667B95",
"b. c #667A97",
"n. c #687B95",
"m. c #687C95",
"M. c #687C96",
"N. c #697C97",
"B. c #6B7C96",
"V. c #6A7E97",
"C. c #637999",
"Z. c #61799B",
"A. c #677B98",
"S. c #677C99",
"D. c #687C98",
"F. c #6A7E98",
"G. c #687D9B",
"H. c #6D7F98",
"J. c #6F7F99",
"K. c #6E7F9A",
"L. c #757590",
"P. c #7A7793",
"I. c #7E7893",
"U. c #817993",
"Y. c #847F94",
"T. c #B87C87",
"R. c #6F809A",
"E. c #6B809D",
"W. c #6B819E",
"Q. c #6F809E",
"!. c #6D829F",
"~. c #70819B",
"^. c #6D82A0",
"/. c #6D82A1",
"(. c #6F85A0",
"). c #6D87A2",
"_. c #7286A0",
"`. c #7688A2",
"'. c #778AA3",
"]. c #7A8DA8",
"[. c #83829E",
"{. c #AE8A9E",
"}. c #978AA1",
"|. c #998CA9",
" X c #E58385",
".X c #F2999E",
"XX c #C793A6",
"oX c #F6A1AA",
"OX c #F6A3AD",
"+X c #F8A0AA",
"@X c #F9A7B5",
"#X c #FAA7B5",
"$X c None",
/* pixels */
"$X$X$X$X$X$X$X$X$X$X$X$X$X$X$X$X$X$X$X$X$X$X$X$X$X$X$X$X$X$X$X$X$X$X$X$X$X$X$X$X$X$X$X$X",
"$X$X$X$X$X$X$X$X$X$X$X$X$X$X$X$X$X$X$X$X$X$X$X$X$X$X$X$X$X$X$X$X$X$X$X$X$X$X$X$X$X$X$X$X",
"$X$X$X$X$X$X$X$X$X$X$X$X$X$X$X$X$X$X$X$X$X$X$X$X$X$X$X$X$X$X$X$X$X$X$X$X$X$X$X$X$X$X$X$X",
"$X$X$X$X$X$X$X$X$X$X$X$X$X$X$X$X$X$X$X$X$X$X$X$X$X$X$X$X$X$X$X$X$X$X$X$X$X$X$X$X$X$X$X$X",
"$X$X$X$X$X$X$X$X$X$X$X$X$X$X$X$X$X$X$X$X$X$X$X$X$X$X$X$X$X$X$X$X$X$X$X$X$X$X$X$X$X$X$X$X",
"$X$X$X$X$X$X$X$X$X$X$X$X$X$X$X$X$X$X$X$X$X$X$X$X$X$X$X$X$X$X$X$X$X$X$X$X$X$X$X$X$X$X$X$X",
"$X$X$X$X$X$X$X$X$X$X$X$X$X$X$X$X$X$X$X$X$X$X$X$X$X$X$X$X$X$X$X$X$X$X$X$X$X$X$X$X$X$X$X$X",
"$X$X$X$X$X$X$X$X$X$X$X$X$X$X$X$X$X$X$X$X$X$X$X$X$X$X$X$X$X$X$X$X$X$X$X$X$X$X$X$X$X$X$X$X",
"$X$X$X$X$X$X$X$X$X$X$X$X$X5.S.#.#.$X$X$X$X$X$X$X$X$X$X$X$X$X$X$X$X$X$X$X$X$X$X$X$X$X$X$X",
"$X$X$X$X$X$X$X$X$X$X$X$XE.G.W.C.0.X.` $X$X$X$X$X$X$X$X$X$X$X$X$X$X$X$X$X$X$X$X$X$X$X$X$X",
"$X$X$X$X$X$X$X$X$X$X$X_./.E.S.>.o.` ~ l $X$X$X$X$X$X$X$X$X$X$X$X$X$X$X$X$X$X$X$X$X$X$X$X",
"$X$X$X$X$X$X$X$X$X$X$Xn._.K.s.5.#.` j 8 a O $X$X$XOXOXOX$X$X$X$X$X$X$X$X$X$X$X$X$X$X$X$X",
"$X$X$X$X$X$X$X$X$X$X_.].~.N.v.9.%.R b 8 8 X {.OX@XOXOX#XOXOXOX$X$X$X$X$X$X$X$X$X$X$X$X$X",
"$X$X$X$X$X$X$X$X$X$Xh.`.R.F.z.9.@.^ g 9 3 X {.OXOXOXOXOXOXOXOXOX$X$X$X$X$X$X$X$X$X$X$X$X",
"$X$X$X$X$X$X$X$X$X$X!.J.R.V.a.4.| A k = O X {.OXOXOX.X.X.X.X.XOXOX$X$X$X$X$X$X$X$X$X$X$X",
"$X$X$X$X$X$X$X$X$Xd.^.B.H.m.i.-.} G z + + X {. X$X$X$X$X$X$X$X.X+XOX$X$X$X$X$X$X$X$X$X$X",
"$X$X$X$X$X$X$X$X$Xd.D.M.M.z.9.@.( B < + + $X$X$X$X$X$X$X$X$X$X$X$X+XoX$X$X$X$X$X$X$X$X$X",
"$X$X$X$X$X$X=.$X$Xb.d.z.l.8.-.] E h r O $X$X$X$X$X$X$X$X$X$X$X$X$X$X+XoX$X$X$X$X$X$X$X$X",
"$X$X$X$X$X$XZ.c.c.c.1.y.t.j.,.Q V r t , $X$X$X$X$X$X$X$X$X$X$X$X$X$X$X+X$X$X$X$X$X$X$X$X",
"$X$X$X$X$X$XQ.XXg.=.<.:.y.x.7.L d , , O $X$X$X$X$X$X$X$X$X$X$X$X$X$X$X.XoX$X$X$X$X$X$X$X",
"$X$X$X$X$X=.[.oXP.) ;.$.p.f.6.N u 0 r r $X$X$X$X$X$X$X$X$X$X$X$X$X$X$X$X+XoX$X$X$X$X$X$X",
"$X$X$X$X$X=.|.+XU.H O.] u.+. .g u N u g $X$X$X$X$X$X$X$X$X$X$X$X$X$X$X$X$X+X$X$X$X$X$X$X",
"$X$X$X$X$X*.}..XI.F _ U &.' C C 0 + 0 ' $X$X$X$X$X$X$X$X$X$X$X$X$X$X$X$X$X.XoX$X$X$X$X$X",
"$X$X$X$X$X).Y. XL.p T Y Z } ~ w + ' u 1.$X$X$X$X$X$X$X$X$X$X$X$X$X$X$X$X$X$X+X$X$X$X$X$X",
"$X$X$X$Xk.'.k.T.w.i I W s ~ v * $X4.$X1.$X$X$X$X$X$X$X$X$X$X$X$X$X$X$X$X$X$X$X$X$X$X$X$X",
"$X$X$X$Xk.(.3.e.K 5 n m * * x $X$X$X$Xd.$X$X$X$X$X$X$X$X$X$X$X$X$X$X$X$X$X$X$X+X$X$X$X$X",
"$X$X$X$XA.*.4.b 4 6 w 7 . * * $XR.$X$XJ.$X$X$X$X$X$X$X$X$X$X$X$X$X$X$X$X$X$X$X$X$X$X$X$X",
"$X$X$XP k.% 2.y & - > > > > $X$X$X$X$X~.$X$X$X$X$X$X$X$X$X$X$X$X$X$X$X$X$X$X$X$X1 $X$X$X",
"$X$X$XP *.  { ; @ $ > $ - $X$X$X$X$X$XY.$X$X$X$X$X$X$X$X$X$X$X$X$X$X$X$X$X$X$X$X$X$X$X$X",
"$X$X$XP ../ c # : # : $ $X$X$X$X$X$X$X$X$X$X$X$X$X$X$X$X$X$X$X$X$X$X$X$X$X$X$X$X$X$X$X$X",
"$X$X$X[ P M 2 c c # c $X$X$X$X$X$X$X$X$X$X$X$X$X$X$X$X$X$X$X$X$X$X$X$X$X$X$X$X$X$X$X$X$X",
"$X$X$XJ f q # M f c $X$X$X$X$X$X$X$X$X$X$X$X$X$X$X$X$X$X$X$X$X$X$X$X$X$X$X$X$X$X$X$X$X$X",
"$X$Xe S e e D P $XP $X$X$X$X$X$X$X$X$X$X$X$X$X$X$X$X$X$X$X$X$X$X$X$X$X$X$X$X$X$X$X$X$X$X",
"$X$XY./ o e / $X*.$X$X$X$X$X$X$X$X$X$X$X$X$X$X$X$X$X$X$X$X$X$X$X$X$X$X$X$X$X$X$X$X$X$X$X",
"$X$XoX/ e ! $X$Xr.$X$X$X$X$X$X$X$X$X$X$X$X$X$X$X$X$X$X$X$X$X$X$X$X$X$X$X$X$X$X$X$X$X$X$X",
"$X$X$Xe M $X$X$Xq.$X$X$X$X$X$X$X$X$X$X$X$X$X$X$X$X$X$X$X$X$X$X$X$X$X$X$X$X$X$X$X$X$X$X$X",
"$X$X$X$X$X$X$X$X$X$X$X$X$X$X$X$X$X$X$X$X$X$X$X$X$X$X$X$X$X$X$X$X$X$X$X$X$X$X$X$X$X$X$X$X",
"$X$X$X$X$X$X$X$X$X$X$X$X$X$X$X$X$X$X$X$X$X$X$X$X$X$X$X$X$X$X$X$X$X$X$X$X$X$X$X$X$X$X$X$X",
"$X$X$X$X$X$X$X$X$X$X$X$X$X$X$X$X$X$X$X$X$X$X$X$X$X$X$X$X$X$X$X$X$X$X$X$X$X$X$X$X$X$X$X$X",
"$X$X$X$X$X$X$X$X$X$X$X$X$X$X$X$X$X$X$X$X$X$X$X$X$X$X$X$X$X$X$X$X$X$X$X$X$X$X$X$X$X$X$X$X",
"$X$X$X$X$X$X$X$X$X$X$X$X$X$X$X$X$X$X$X$X$X$X$X$X$X$X$X$X$X$X$X$X$X$X$X$X$X$X$X$X$X$X$X$X",
"$X$X$X$X$X$X$X$X$X$X$X$X$X$X$X$X$X$X$X$X$X$X$X$X$X$X$X$X$X$X$X$X$X$X$X$X$X$X$X$X$X$X$X$X",
"$X$X$X$X$X$X$X$X$X$X$X$X$X$X$X$X$X$X$X$X$X$X$X$X$X$X$X$X$X$X$X$X$X$X$X$X$X$X$X$X$X$X$X$X",
"$X$X$X$X$X$X$X$X$X$X$X$X$X$X$X$X$X$X$X$X$X$X$X$X$X$X$X$X$X$X$X$X$X$X$X$X$X$X$X$X$X$X$X$X",
"$X$X$X$X$X$X$X$X$X$X$X$X$X$X$X$X$X$X$X$X$X$X$X$X$X$X$X$X$X$X$X$X$X$X$X$X$X$X$X$X$X$X$X$X",
"$X$X$X$X$X$X$X$X$X$X$X$X$X$X$X$X$X$X$X$X$X$X$X$X$X$X$X$X$X$X$X$X$X$X$X$X$X$X$X$X$X$X$X$X",
"$X$X$X$X$X$X$X$X$X$X$X$X$X$X$X$X$X$X$X$X$X$X$X$X$X$X$X$X$X$X$X$X$X$X$X$X$X$X$X$X$X$X$X$X",
"$X$X$X$X$X$X$X$X$X$X$X$X$X$X$X$X$X$X$X$X$X$X$X$X$X$X$X$X$X$X$X$X$X$X$X$X$X$X$X$X$X$X$X$X"
};
