/* XPM */
static char *result[] = {
/* columns rows colors chars-per-pixel */
"48 48 220 2 ",
"   c #354C71",
".  c #364D71",
"X  c #364E72",
"o  c #395070",
"O  c #395173",
"+  c #3D5377",
"@  c #3A5178",
"#  c #3D5378",
"$  c #3C5578",
"%  c #3C5479",
"&  c #3E547A",
"*  c #3E577B",
"=  c #3E547C",
"-  c #3D567C",
";  c #3D567D",
":  c #3F577C",
">  c #3F577D",
",  c #3D587F",
"<  c #3E587E",
"1  c #3F587E",
"2  c #464E5B",
"3  c #445064",
"4  c #455165",
"5  c #545A6A",
"6  c #40567A",
"7  c #40567E",
"8  c #415879",
"9  c #40587D",
"0  c #40597D",
"q  c #41597D",
"w  c #425A7D",
"e  c #435A7D",
"r  c #40587E",
"t  c #40597E",
"y  c #41597E",
"u  c #405A7E",
"i  c #415A7E",
"p  c #405B7F",
"a  c #475A7E",
"s  c #425C7F",
"d  c #605F75",
"f  c #395980",
"g  c #3F5C82",
"h  c #415A80",
"j  c #415B80",
"k  c #425B80",
"l  c #455B80",
"z  c #425C81",
"x  c #435C81",
"c  c #455D80",
"v  c #455D81",
"b  c #465D81",
"n  c #455D82",
"m  c #465D83",
"M  c #465E82",
"N  c #475E82",
"B  c #475E83",
"V  c #445E84",
"C  c #455E84",
"Z  c #465E86",
"A  c #495D81",
"S  c #485F82",
"D  c #485E83",
"F  c #485F84",
"G  c #4A5F84",
"H  c #466081",
"J  c #476085",
"K  c #496083",
"L  c #496184",
"P  c #4A6084",
"I  c #4A6085",
"U  c #4B6085",
"Y  c #4A6185",
"T  c #4B6285",
"R  c #4B6385",
"E  c #496187",
"W  c #4A6286",
"Q  c #4B6286",
"!  c #4B6386",
"~  c #4B6287",
"^  c #4C6286",
"/  c #4C6387",
"(  c #4B6485",
")  c #4D6486",
"_  c #4C6587",
"`  c #4D6587",
"'  c #4D6686",
"]  c #4E6686",
"[  c #4E6687",
"{  c #4F6787",
"}  c #466388",
"|  c #496388",
" . c #4A6388",
".. c #4B6388",
"X. c #4D6388",
"o. c #4A658B",
"O. c #4C6588",
"+. c #4F6788",
"@. c #4D668D",
"#. c #4F688B",
"$. c #536687",
"%. c #556787",
"&. c #556986",
"*. c #506788",
"=. c #536788",
"-. c #516888",
";. c #516889",
":. c #526888",
">. c #526889",
",. c #536A89",
"<. c #50688A",
"1. c #536A8A",
"2. c #54698A",
"3. c #546A8A",
"4. c #546A8B",
"5. c #546B8B",
"6. c #51688D",
"7. c #536A8C",
"8. c #556A8D",
"9. c #576B8C",
"0. c #576C8C",
"q. c #566C8D",
"w. c #576D8E",
"e. c #5A6E8B",
"r. c #586D8C",
"t. c #586D8D",
"y. c #586E8D",
"u. c #596F8F",
"i. c #5A6F8E",
"p. c #5A6F8F",
"a. c #5B708E",
"s. c #5C718E",
"d. c #5D718F",
"f. c #5D728F",
"g. c #5E738E",
"h. c #5E738F",
"j. c #5D748E",
"k. c #537292",
"l. c #5B7092",
"z. c #5E7390",
"x. c #5F7390",
"c. c #5E7391",
"v. c #5B7699",
"b. c #5A799B",
"n. c #66738E",
"m. c #617591",
"M. c #607593",
"N. c #617693",
"B. c #607594",
"V. c #6B7293",
"C. c #647993",
"Z. c #677B93",
"A. c #637894",
"S. c #617A95",
"D. c #637997",
"F. c #667A95",
"G. c #657896",
"H. c #647B97",
"J. c #677B96",
"K. c #697D97",
"L. c #6A7D96",
"P. c #617899",
"I. c #627999",
"U. c #607A99",
"Y. c #657E9B",
"T. c #697D98",
"R. c #687D99",
"E. c #6B7F98",
"W. c #717B97",
"Q. c #81728B",
"!. c #84718A",
"~. c #A97786",
"^. c #6F829D",
"/. c #6E839D",
"(. c #6C839F",
"). c #728399",
"_. c #73849F",
"`. c #6781A0",
"'. c #6E84A3",
"]. c #7489A3",
"[. c #7688A3",
"{. c #768CAB",
"}. c #7A8FA9",
"|. c #7C91AE",
" X c #BE828A",
".X c #A3889F",
"XX c #BF8FA4",
"oX c #C28595",
"OX c #E3929E",
"+X c #C299AE",
"@X c #D291A2",
"#X c #D194A4",
"$X c #EC9DA7",
"%X c #E69FAF",
"&X c #EA9AA8",
"*X c #F59BA9",
"=X c #F19EA8",
"-X c #F09DAA",
";X c #F09FAE",
":X c #F69FAD",
">X c #F89DAF",
",X c #EEA2AD",
"<X c #F6A1AB",
"1X c #F4A2AE",
"2X c #F3A1B0",
"3X c #F4A5B0",
"4X c #F7A6B4",
"5X c #F8A4B2",
"6X c #FFA6B1",
"7X c #FCA4B2",
"8X c #FAA4B4",
"9X c #FDA7B5",
"0X c #FEA7B4",
"qX c #FFA5B6",
"wX c #FCA6B6",
"eX c #F7A8B5",
"rX c #FBA9B7",
"tX c #FEA9B8",
"yX c #FFAAB9",
"uX c None",
/* pixels */
"uXuXuXuXuXuXuXuXuXuXuXuXuXuXuXuXuXuXuXuXuXuXuXuXuXuXuXuXuXuXuXuXuXuXuXuXuXuXuXuXuXuXuXuXuXuXuXuX",
"uXuXuXuXuXuXuXuXuXuXuXuXuXuXuXuXuXuXuXuXuXuXuXuXuXuXuXuXuXuXuXuXuXuXuXuXuXuXuXuXuXuXuXuXuXuXuXuX",
"uXuXuXuXuXuXuXuXuXuXuXuXuXuXuXuXuXuXuXuXuXuXuXuXuXuXuXuXuXuXuXuXuXuXuXuXuXuXuXuXuXuXuXuXuXuXuXuX",
"uXuXuXuXuXuXuXuXuXuXuXuXuXuXuXuXuXuXuXuXuXuXuXuXuXuXuXuXuXuXuXuXuXuXuXuXuXuXuXuXuXuXuXuXuXuXuXuX",
"uXuXuXuXuXuXuXuXuXuXuXuXuXuXuXuXuXuXuXuXuXuXuXuXuXuXuXuXuXuXuXuXuXuXuXuXuXuXuXuXuXuXuXuXuXuXuXuX",
"uXuXuXuXuXuXuXuXuXuXuXuXuXuXuXuXuXuXuXuXuXuXuXuXuXuXuXuXuXuXuXuXuXuXuXuXuXuXuXuXuXuXuXuXuXuXuXuX",
"uXuXuXuXuXuXuXuXuXuXuXuXuXuXuXuXuXuXuXuXuXuXuXuXuXuXuXuXuXuXuXuXuXuXuXuXuXuXuXuXuXuXuXuXuXuXuXuX",
"uXuXuXuXuXuXuXuXuXuXuXuXuXuXuXuXuXuXuXuXuXuXuXuXuXuXuXuXuXuXuXuXuXuXuXuXuXuXuXuXuXuXuXuXuXuXuXuX",
"uXuXuXuXuXuXuXuXuXuXuXuXuXuXuXuXuXuXuXuXuXuXuXuXuXuXuXuXuXuXuXuXuXuXuXuXuXuXuXuXuXuXuXuXuXuXuXuX",
"uXuXuXuXuXuXuXuXuXuXuXuXuXuXuXuXuXuXuXuXuXuXuXuXuXuXuXuXuXuXuXuXuXuXuXuXuXuXuXuXuXuXuXuXuXuXuXuX",
"uXuXuXuXuXuXuXuXuXuXuXuXuXuXuXuXuXuXg.T.uXuXuXuXuXuXuXuXuXuXuXuXuXuXuXuXuXuXuXuXuXuXuXuXuXuXuXuX",
"uXuXuXuXuXuXuXuXuXuXuXuXuXuXuXuXuXg.{.}.).L.uXuXuXuXuXuXuXuXuXuXuXuXuXuXuXuXuXuXuXuXuXuXuXuXuXuX",
"uXuXuXuXuXuXuXuXuXuXuXz.`.uXuXuXc.(.F.E.].|.K.uXuXuXuXuXuXuXuXuXuXuXuXuXuXuXuXuXuXuXuXuXuXuXuXuX",
"uXuXuXuXuXuXuXuXuXuXuXU.`.uXuXe.P.g.C.T.L./.^.uXuXuXuXuXuXuXuXuXuXuXuXuXuXuXuXuXuXuXuXuXuX=XuXuX",
"uXuXuXuXuXuXuXuXuXuX`.W.+XuXuXu.e.c.A.J.K.Z.'.G.uXuXuXuXuXuXuXuXuXuXuXuXuXuXuXuXuXuXuXuX:X=XuXuX",
"uXuXuXuXuXuXuXuXuX_.`..X6Xd } w.0.f.M.A.F.G.D.H.uXuXuXuXuXuXuXuXuXuXuXuXuXuXuXuXuXuXuX8X=XuXuXuX",
"uXuXuXuXuXuXuXuXR.[.S.XX<XV.} $.q.a.z.N.N.B.x.I.p.uXuXuXuXuXuXuXuXuXuXuXuXuXuXuXuXuX,X=XuXuXuXuX",
"uXuXuXuXuXuXuX4.m.n.Y. XOX=.H *.2.t.a.z.h.j.d.l.p.uXuXuXuXuXuXuXuXuXuXuXuXuXuXuXuX$X=XuXuXuXuXuX",
"uXuXuXuXuXuX4.v.2 5 b.~.oXg U _ ;.3.y.i.s.a.p.p.p.uXuXuXuXuXuXuXuXuXuXuXuXuXuXuX$X=XuXuXuXuXuXuX",
"uXuXuXuXuXuXo.4.4 3 k.Q.!.f G T [ -.5.9.r.t.q.>.>.] uXuXuXuXuXuXuXuXuXuXuXuXuX@XtX=XuXuXuXuXuXuX",
"uXuXuXuXuX.XE | 7.&.<.%.A t b P ! [ ;.:.,.1.1.] ] >.uXuXuXuXuXuXuXuXuXuXuXuXuXeX=XuXuXuXuXuXuXuX",
"uXuXuXuXuX@X4.s ^ O.~ c 9 u x l I ( ' ) { +.*.X.F F G.uXuXuXuXuXuXuXuXuXuXuX$X=XuXuXuXuXuXuXuXuX",
"uXuXuXuXuXuX| 0 n V C 6 r 1 z y b L Q R ` / X.K S , G.@XuXuXuXuXuXuXuXuXuX$XqXuXuXuXuXuXuXuXuXuX",
"uXuXuXuXuXuX| | ; > + & 7 = j h k J B N Y G I K q.X.a %X$XuXuXuXuXuXuXuX$XyX=XuXuXuXuXuXuXuXuXuX",
"uXuXuXuXuXuXuX4. .Z | 8.#.: p < % i $ w D M M ..p.p.>.@X0X@XuXuXuXuXuX$XrX=XuXuXuXuXuXuXuXuXuXuX",
"uXuXuXuXuXuXuXuX4.4.4.uXq p q -   . o 8 v m M S uXuXuX#X=X;X5X$X$X$X$X4X=XuXuXuXuXuXuXuXuXuXuXuX",
"uXuXuXuXuXuXuXuXuXuXuXuXuXuX@.* # X O e m m m uXuXuXuXuX7X$X&X2XwX9X3X*XuXuXuXuXuXuXuXuXuXuXuXuX",
"uXuXuXuXuXuXuXuXuXuXuXuXuXuXW 6.W @ # # m m uXuXuXuXuXuX=X>X1X$X$X-X=X=XuXuXuXuXuXuXuXuXuXuXuXuX",
"uXuXuXuXuXuXuXuXuXuXuXuXuXuXuXuXW W uXuXW uXuXuXuXuXuXuXuXuX=X=X=X=XuXuXuXuXuXuXuXuXuXuXuXuXuXuX",
"uXuXuXuXuXuXuXuXuXuXuXuXuXuXuXuXuXW uXuXm uXuXuXuXuXuXuXuXuXuXuXuXuXuXuXuXuXuXuXuXuXuXuXuXuXuXuX",
"uXuXuXuXuXuXuXuXuXuXuXuXuXuXuXuXuXW uXuXuXuXuXuXuXuXuXuXuXuXuXuXuXuXuXuXuXuXuXuXuXuXuXuXuXuXuXuX",
"uXuXuXuXuXuXuXuXuXuXuXuXuXuXuXuXuX$.uXd.uXuXuXuXuXuXuXuXuXuXuXuXuXuXuXuXuXuXuXuXuXuXuXuXuXuXuXuX",
"uXuXuXuXuXuXuXuXuXuXuXuXuXuXuXuXuXuXuXn.uXuXuXuXuXuXuXuXuXuXuXuXuXuXuXuXuXuXuXuXuXuXuXuXuXuXuXuX",
"uXuXuXuXuXuXuXuXuXuXuXuXuXuXuXuXuXuXuXuXuXuXuXuXuXuXuXuXuXuXuXuXuXuXuXuXuXuXuXuXuXuXuXuXuXuXuXuX",
"uXuXuXuXuXuXuXuXuXuXuXuXuXuXuXuXuXuXuXuXuXuXuXuXuXuXuXuXuXuXuXuXuXuXuXuXuXuXuXuXuXuXuXuXuXuXuXuX",
"uXuXuXuXuXuXuXuXuXuXuXuXuXuXuXuXuXuXuXuXuXuXuXuXuXuXuXuXuXuXuXuXuXuXuXuXuXuXuXuXuXuXuXuXuXuXuXuX",
"uXuXuXuXuXuXuXuXuXuXuXuXuXuXuXuXuXuXuXuXuXuXuXuXuXuXuXuXuXuXuXuXuXuXuXuXuXuXuXuXuXuXuXuXuXuXuXuX",
"uXuXuXuXuXuXuXuXuXuXuXuXuXuXuXuXuXuXuXuXuXuXuXuXuXuXuXuXuXuXuXuXuXuXuXuXuXuXuXuXuXuXuXuXuXuXuXuX",
"uXuXuXuXuXuXuXuXuXuXuXuXuXuXuXuXuXuXuXuXuXuXuXuXuXuXuXuXuXuXuXuXuXuXuXuXuXuXuXuXuXuXuXuXuXuXuXuX",
"uXuXuXuXuXuXuXuXuXuXuXuXuXuXuXuXuXuXuXuXuXuXuXuXuXuXuXuXuXuXuXuXuXuXuXuXuXuXuXuXuXuXuXuXuXuXuXuX",
"uXuXuXuXuXuXuXuXuXuXuXuXuXuXuXuXuXuXuXuXuXuXuXuXuXuXuXuXuXuXuXuXuXuXuXuXuXuXuXuXuXuXuXuXuXuXuXuX",
"uXuXuXuXuXuXuXuXuXuXuXuXuXuXuXuXuXuXuXuXuXuXuXuXuXuXuXuXuXuXuXuXuXuXuXuXuXuXuXuXuXuXuXuXuXuXuXuX",
"uXuXuXuXuXuXuXuXuXuXuXuXuXuXuXuXuXuXuXuXuXuXuXuXuXuXuXuXuXuXuXuXuXuXuXuXuXuXuXuXuXuXuXuXuXuXuXuX",
"uXuXuXuXuXuXuXuXuXuXuXuXuXuXuXuXuXuXuXuXuXuXuXuXuXuXuXuXuXuXuXuXuXuXuXuXuXuXuXuXuXuXuXuXuXuXuXuX",
"uXuXuXuXuXuXuXuXuXuXuXuXuXuXuXuXuXuXuXuXuXuXuXuXuXuXuXuXuXuXuXuXuXuXuXuXuXuXuXuXuXuXuXuXuXuXuXuX",
"uXuXuXuXuXuXuXuXuXuXuXuXuXuXuXuXuXuXuXuXuXuXuXuXuXuXuXuXuXuXuXuXuXuXuXuXuXuXuXuXuXuXuXuXuXuXuXuX",
"uXuXuXuXuXuXuXuXuXuXuXuXuXuXuXuXuXuXuXuXuXuXuXuXuXuXuXuXuXuXuXuXuXuXuXuXuXuXuXuXuXuXuXuXuXuXuXuX",
"uXuXuXuXuXuXuXuXuXuXuXuXuXuXuXuXuXuXuXuXuXuXuXuXuXuXuXuXuXuXuXuXuXuXuXuXuXuXuXuXuXuXuXuXuXuXuXuX"
};
