/* XPM */
static char *result[] = {
/* columns rows colors chars-per-pixel */
"48 48 191 2 ",
"   c #343E4F",
".  c #344052",
"X  c #3D455A",
"o  c #3C4B5C",
"O  c #394F74",
"+  c #3A5173",
"@  c #395174",
"#  c #3C5275",
"$  c #3C5378",
"%  c #39577B",
"&  c #3C5479",
"*  c #3E547A",
"=  c #3D567A",
"-  c #3B577D",
";  c #39577E",
":  c #3F567C",
">  c #3D587D",
",  c #3F597D",
"<  c #46474E",
"1  c #4E5C74",
"2  c #40577A",
"3  c #40567B",
"4  c #43577B",
"5  c #41577C",
"6  c #405879",
"7  c #425A7B",
"8  c #41587C",
"9  c #41597D",
"0  c #43597C",
"q  c #42597D",
"w  c #425A7D",
"e  c #42587F",
"r  c #42597F",
"t  c #435C7F",
"y  c #455C7E",
"u  c #445D7F",
"i  c #49617F",
"p  c #4D607D",
"a  c #435980",
"s  c #425B80",
"d  c #435B80",
"f  c #445A80",
"g  c #435C81",
"h  c #435D81",
"j  c #435E82",
"k  c #435E83",
"l  c #445C81",
"z  c #455C81",
"x  c #445D81",
"c  c #455D81",
"v  c #475D81",
"b  c #475E80",
"n  c #465E81",
"m  c #475F81",
"M  c #455D82",
"N  c #445C83",
"B  c #465E83",
"V  c #475E83",
"C  c #475F84",
"Z  c #465F85",
"A  c #485E82",
"S  c #495F83",
"D  c #485F84",
"F  c #495F84",
"G  c #485F85",
"H  c #456184",
"J  c #486083",
"K  c #496084",
"L  c #496184",
"P  c #4A6184",
"I  c #4A6185",
"U  c #4B6185",
"Y  c #4B6284",
"T  c #4A6086",
"R  c #4A6286",
"E  c #4B6286",
"W  c #4C6384",
"Q  c #4C6286",
"!  c #4D6386",
"~  c #4C6287",
"^  c #4D6387",
"/  c #4B6486",
"(  c #4E6685",
")  c #4E6586",
"_  c #4F6587",
"`  c #4E6686",
"'  c #4F6686",
"]  c #4F6887",
"[  c #456188",
"{  c #4A6389",
"}  c #4D6589",
"|  c #4E6488",
" . c #4E6688",
".. c #4F6688",
"X. c #4C658A",
"o. c #4E658A",
"O. c #4E678A",
"+. c #5E6D85",
"@. c #516788",
"#. c #506789",
"$. c #516888",
"%. c #516889",
"&. c #526988",
"*. c #526989",
"=. c #536A89",
"-. c #52688B",
";. c #516A8B",
":. c #536A8A",
">. c #54698A",
",. c #546A8A",
"<. c #556B8A",
"1. c #566B8A",
"2. c #566B8B",
"3. c #546C8B",
"4. c #556C8B",
"5. c #576B8C",
"6. c #506C8F",
"7. c #566C8C",
"8. c #566D8C",
"9. c #546C8E",
"0. c #576F8E",
"q. c #5B6B8D",
"w. c #586D8C",
"e. c #586E8C",
"r. c #586E8D",
"t. c #5B6F8D",
"y. c #596E8E",
"u. c #5A6F8E",
"i. c #5B718E",
"p. c #5C718F",
"a. c #5D718F",
"s. c #5D738F",
"d. c #5F728E",
"f. c #506890",
"g. c #576F93",
"h. c #5B7191",
"j. c #597092",
"k. c #5C7190",
"l. c #5D7290",
"z. c #5E7192",
"x. c #5E7392",
"c. c #5B7693",
"v. c #5E7491",
"b. c #5F7491",
"n. c #5C7294",
"m. c #5C7295",
"M. c #5F7394",
"N. c #6E6B87",
"B. c #6E6B88",
"V. c #72728A",
"C. c #667192",
"Z. c #617492",
"A. c #627692",
"S. c #647693",
"D. c #637795",
"F. c #637796",
"G. c #637A95",
"H. c #657895",
"J. c #657995",
"K. c #667894",
"L. c #677A94",
"P. c #667A95",
"I. c #6B7E97",
"U. c #6C7C97",
"Y. c #657A99",
"T. c #617E9B",
"R. c #667C9A",
"E. c #677D9A",
"W. c #687F9C",
"Q. c #747E9A",
"!. c #96798C",
"~. c #8D7899",
"^. c #BE7F8D",
"/. c #71839C",
"(. c #6C86A2",
"). c #768BA7",
"_. c #798CA6",
"`. c #768CA8",
"'. c #788CA8",
"]. c #7D90AD",
"[. c #8F849B",
"{. c #A18599",
"}. c #8E8AA1",
"|. c #E2898C",
" X c #EC9DA9",
".X c #F29CA7",
"XX c #F89BA4",
"oX c #F19FAD",
"OX c #F7A4B2",
"+X c #FFAAB2",
"@X c None",
/* pixels */
"@X@X@X@X@X@X@X@X@X@X@X@X@X@X@X@X@X@X@X@X@X@X@X@X@X@X@X@X@X@X@X@X@X@X@X@X@X@X@X@X@X@X@X@X@X@X@X@X",
"@X@X@X@X@X@X@X@X@X@X@X@X@X@X@X@X@X@X@X@X@X@X@X@X@X@X@X@X@X@X@X@X@X@X@X@X@X@X@X@X@X@X@X@X@X@X@X@X",
"@X@X@X@X@X@X@X@X@X@X@X@X@X@X@X@X@X@X@X@X@X@X@X@X@X@X@X@X@X@X@X@X@X@X@X@X@X@X@X@X@X@X@X@X@X@X@X@X",
"@X@X@X@X@X@X@X@X@X@X@X@X@X@X@X@X@X@X@X@X@X@X@X@X@X@X@X@X@X@X@X@X@X@X@X@X@X@X@X@X@X@X@X@X@X@X@X@X",
"@X@X@X@X@X@X@X@X@X@X@X@X@X@X@X@X@X@X@X@X@X@X@X@X@X@X@X@X@X@X@X@X@X@X@X@X@X@X@X@X@X@X@X@X@X@X@X@X",
"@X@X@X@X@X@X@X@X@X@X@X@X@X@X@X@X@X@X@X@X@X@X@X@X@X@X@X@X@X@X@X@X@X@X@X@X@X@X@X@X@X@X@X@X@X@X@X@X",
"@X@X@X@X@X@X@X@X@X@X@X@X@X@X@X@X@X@X@X@X@X@X@X@X@X@X@X@X@X@X@X@X@X@X@X@X+.. @X@X@X@X@X@X@X@X@X@X",
"@X@X@X@X@X@X@X@X@X@X@X@X@X@X@X@X@X@X@X@X@X@X@X@X@X@X@X@X@X@X@X@X@X@X@X@Xi.G.@X@X@X@X@X@X@X@X@X@X",
"@X@X@X@X@X@X@X@X@X@X@X@X@X@X@X@X@X@X@X@X@X@X@X@X@X@X@X@X@X@X@X@X@X@X@X+.}.z.@X@X@X@X@X@X@X@X@X@X",
"@X@X@X@X@X@X@X@X@X@X@X@X@X@X@X@X@X@X@X@X@X@X@X@X@X@X@X@X@X@X@X@X@X@X@X{.OXQ.G.@X@X@X@X@X@X@X@X@X",
"@X@X@X@X@X@X@X@X@X@X@X@X@X@X@X@X@X@X@X@X@X@X@X@X@X@X@X@X@X@XL.p.i.@X@X{.+X[.(.U.@X@X@X@X@X@X@X@X",
"@X@X@X@X@X@X@X@X@X@X@X@X@X@X@X@X@X@X@X@X@X@X@X@X@X@X@X@XL._.`.W.Y.i.= {.XX{.G.'.+.@X@X@X@X@X@X@X",
"@X@X@X@X@X@X@X@X@X@X@X@X@X@X@X@X@X@X@X@X@X@X@X@X@X@X@XL.]./.L.S.i.m.6.C.|.!.T.+.H.p @X@X@X@X@X@X",
"@X@X@X@X@X@X@X@X@X@X@X@X@X@X@X@X@X@X@X@X@X@X@X@X@X@XK.).I.P.J.Z.p.1.( } ^.V.c.< 1 g.@X@X@X@X@X@X",
"@X@X@X@X@X@X@X@X@X@X@X@X@X@X@X@X@X@X@X@X@X@X@X@X@X@XP.E.K.P.D.v.t.2.] H B.q.0.X p 9.J @X@X@X@X@X",
"@X@X@X@X@X@X@X@X@X@X@X@X@X@X@X@X@X@X@X@X@X@X@X@X@Xd.R.P.F.A.b.a.e.>._ L j / -.1.&.J J @X@X@X@X@X",
"@X@X@X@X@X@X@X@X@X@X@X@X@X@X@X@X@X@X@X@X@X@X@X@X@Xh.M.d.s.x.l.u.7.%.! S e z R E ~ ; ~.^.@X@X@X@X",
"@X@X@X@X@X@X@X@X@X@X@X@X@X@X@X@X@X@X@X@X@X@X@X@X@Xn.h.h.p.k.y.8.*.` P D 9 : M l N - +.@X@X@X@X@X",
"@X@X@X@X@X@X@X@X@X@X@X@X@X@X@X@X@X@X@X@X@X@X@X@X=.j.<.0.r.w.5.,.' Y L k t 2 & : = [ - @X@X@X@X@X",
"@X@X@X@X@X@X@X@X@X@X@X@X@X@X@X@X@X@X@X@X@X@X@X@X| ;.=.3.4.:.*.%.Q v G w h O.o.} { J @X@X@X@X@X@X",
"@X@X@X@X@X@X@X X@X@X@X@X@X@X@X@X@X@X@X@X@X@X@X@Xf.#.#.@.$.%... .q 8 V d d @X1 i.&.@X@X@X@X@X@X@X",
"@X@X@X@X@X@X@X X@X@X@X@X@X@X@X@X@X@X@X@X@X@X@Xc X.| | ) W  .^ K O r u d @X@X@X@X@X@X@X@X@X@X@X@X",
"@X@X@X@X@X@X@X@X X@X@X@X@X@X@X@X@X@X@X@X@X@X@Xs c c I U m I T 5 3 F F d @X@X@X@X@X@X@X@X@X@X@X@X",
"@X@X@X@X@X@X@X@X.X@X@X@X@X@X@X@X@X@X@X@X@X@X@XI s s n A y C Z * f 0 f @X@X@X@X@X@X@X@X@X@X@X@X@X",
"@X@X@X@X@X@X@X@X@XoX@X@X@X@X@X@X@X@X@X@X@X@XI g a s x B 7 x , $ # $ $ @X@X@X@X@X@X@X@X@X@X@X@X@X",
"@X@X@X@X@X@X@X@X@XoX X@X@X@X@X@X@X@X@X@X@X@XN.% i > g b 4 6 @ + @ $ @X@X@X@X@X@X@X@X@X@X@X@X@X@X",
"@X@X@X@X@X@X@X@X@X@XoX X@X@X@X@X@X@X@X@X XoXN.i i s b b b b 6 6 $ @X@X@X@X@X@X@X@X@X@X@X@X@X@X@X",
"@X@X@X@X@X@X@X@X@X@X@XoX X@X@X@X@X@X@X XoX.X X<.b s s > @X6 6 @X@X@X@X@X@X@X@X@X@X@X@X@X@X@X@X@X",
"@X@X@X@X@X@X@X@X@X@X@X.XoXoXoX.XoXoXoXoX X.X.X@X@Xi @X@X@X@X@X@X@X@X@X@X@X@X@X@X@X@X@X@X@X@X@X@X",
"@X@X@X@X@X@X@X@X@X@X@X@X.XoXoXoXoXoXoXoXoX@X@X@X@X@XS.@X@X@X@X@X@X@X@X@X@X@X@X@X@X@X@X@X@X@X@X@X",
"@X@X@X@X@X@X@X@X@X@X@X@X@X.X.X.XoX.X.X.X@X@X@X@X@X  @X@X@X@X@X@X@X@X@X@X@X@X@X@X@X@X@X@X@X@X@X@X",
"@X@X@X@X@X@X@X@X@X@X@X@X@X@X@X@X@X@X@X@X@X@X@X@X@Xo @X@X@X@X@X@X@X@X@X@X@X@X@X@X@X@X@X@X@X@X@X@X",
"@X@X@X@X@X@X@X@X@X@X@X@X@X@X@X@X@X@X@X@X@X@X@X@X@X@X@X@X@X@X@X@X@X@X@X@X@X@X@X@X@X@X@X@X@X@X@X@X",
"@X@X@X@X@X@X@X@X@X@X@X@X@X@X@X@X@X@X@X@X@X@X@X@X@X@X@X@X@X@X@X@X@X@X@X@X@X@X@X@X@X@X@X@X@X@X@X@X",
"@X@X@X@X@X@X@X@X@X@X@X@X@X@X@X@X@X@X@X@X@X@X@X@X@X@X@X@X@X@X@X@X@X@X@X@X@X@X@X@X@X@X@X@X@X@X@X@X",
"@X@X@X@X@X@X@X@X@X@X@X@X@X@X@X@X@X@X@X@X@X@X@X@X@X@X@X@X@X@X@X@X@X@X@X@X@X@X@X@X@X@X@X@X@X@X@X@X",
"@X@X@X@X@X@X@X@X@X@X@X@X@X@X@X@X@X@X@X@X@X@X@X@X@X@X@X@X@X@X@X@X@X@X@X@X@X@X@X@X@X@X@X@X@X@X@X@X",
"@X@X@X@X@X@X@X@X@X@X@X@X@X@X@X@X@X@X@X@X@X@X@X@X@X@X@X@X@X@X@X@X@X@X@X@X@X@X@X@X@X@X@X@X@X@X@X@X",
"@X@X@X@X@X@X@X@X@X@X@X@X@X@X@X@X@X@X@X@X@X@X@X@X@X@X@X@X@X@X@X@X@X@X@X@X@X@X@X@X@X@X@X@X@X@X@X@X",
"@X@X@X@X@X@X@X@X@X@X@X@X@X@X@X@X@X@X@X@X@X@X@X@X@X@X@X@X@X@X@X@X@X@X@X@X@X@X@X@X@X@X@X@X@X@X@X@X",
"@X@X@X@X@X@X@X@X@X@X@X@X@X@X@X@X@X@X@X@X@X@X@X@X@X@X@X@X@X@X@X@X@X@X@X@X@X@X@X@X@X@X@X@X@X@X@X@X",
"@X@X@X@X@X@X@X@X@X@X@X@X@X@X@X@X@X@X@X@X@X@X@X@X@X@X@X@X@X@X@X@X@X@X@X@X@X@X@X@X@X@X@X@X@X@X@X@X",
"@X@X@X@X@X@X@X@X@X@X@X@X@X@X@X@X@X@X@X@X@X@X@X@X@X@X@X@X@X@X@X@X@X@X@X@X@X@X@X@X@X@X@X@X@X@X@X@X",
"@X@X@X@X@X@X@X@X@X@X@X@X@X@X@X@X@X@X@X@X@X@X@X@X@X@X@X@X@X@X@X@X@X@X@X@X@X@X@X@X@X@X@X@X@X@X@X@X",
"@X@X@X@X@X@X@X@X@X@X@X@X@X@X@X@X@X@X@X@X@X@X@X@X@X@X@X@X@X@X@X@X@X@X@X@X@X@X@X@X@X@X@X@X@X@X@X@X",
"@X@X@X@X@X@X@X@X@X@X@X@X@X@X@X@X@X@X@X@X@X@X@X@X@X@X@X@X@X@X@X@X@X@X@X@X@X@X@X@X@X@X@X@X@X@X@X@X",
"@X@X@X@X@X@X@X@X@X@X@X@X@X@X@X@X@X@X@X@X@X@X@X@X@X@X@X@X@X@X@X@X@X@X@X@X@X@X@X@X@X@X@X@X@X@X@X@X",
"@X@X@X@X@X@X@X@X@X@X@X@X@X@X@X@X@X@X@X@X@X@X@X@X@X@X@X@X@X@X@X@X@X@X@X@X@X@X@X@X@X@X@X@X@X@X@X@X"
};
