/* XPM */
static char *result[] = {
/* columns rows colors chars-per-pixel */
"46 37 214 2 ",
"   c #364D6D",
".  c #395270",
"X  c #39557A",
"o  c #3F5778",
"O  c #3C557A",
"+  c #3F577A",
"@  c #3E567D",
"#  c #3F577D",
"$  c #3D577E",
"%  c #3F577F",
"&  c #3E587D",
"*  c #3F587F",
"=  c #3F5B7F",
"-  c #435063",
";  c #425779",
":  c #40577D",
">  c #40577E",
",  c #415979",
"<  c #40587A",
"1  c #415A7A",
"2  c #435A7B",
"3  c #42597C",
"4  c #40597F",
"5  c #42597F",
"6  c #405A7F",
"7  c #425B7F",
"8  c #455D7D",
"9  c #465E7F",
"0  c #4E607A",
"q  c #576276",
"w  c #3A5A80",
"e  c #3D5A80",
"r  c #405880",
"t  c #405A80",
"y  c #415A81",
"u  c #435B81",
"i  c #415C80",
"p  c #435C80",
"a  c #435D81",
"s  c #425D82",
"d  c #435C83",
"f  c #445C80",
"g  c #455D80",
"h  c #445D81",
"j  c #465D80",
"k  c #465D81",
"l  c #475F80",
"z  c #445D82",
"x  c #455D82",
"c  c #455E83",
"v  c #475E82",
"b  c #465F82",
"n  c #475E83",
"m  c #475F83",
"M  c #425B84",
"N  c #465D85",
"B  c #445E84",
"V  c #445F84",
"C  c #475E84",
"Z  c #475F86",
"A  c #485E80",
"S  c #495F84",
"D  c #476083",
"F  c #466084",
"G  c #476187",
"H  c #496082",
"J  c #496182",
"K  c #4A6083",
"L  c #496084",
"P  c #486085",
"I  c #496085",
"U  c #496185",
"Y  c #4A6184",
"T  c #4B6185",
"R  c #4B6285",
"E  c #496386",
"W  c #4C6285",
"Q  c #4D6385",
"!  c #4D6386",
"~  c #4C6287",
"^  c #4D6387",
"/  c #4D6486",
"(  c #4D6487",
")  c #4D6587",
"_  c #4E6586",
"`  c #4F6687",
"'  c #486188",
"]  c #49618A",
"[  c #4C6388",
"{  c #4D6388",
"}  c #4F6588",
"|  c #4E6689",
" . c #49638C",
".. c #4C658C",
"X. c #4C688C",
"o. c #4E688D",
"O. c #516787",
"+. c #536786",
"@. c #5C6382",
"#. c #596C87",
"$. c #516688",
"%. c #506788",
"&. c #506689",
"*. c #536788",
"=. c #50678B",
"-. c #506889",
";. c #516889",
":. c #526989",
">. c #526A88",
",. c #526A8A",
"<. c #546A8A",
"1. c #536C8B",
"2. c #566C8A",
"3. c #566D8B",
"4. c #50688D",
"5. c #576C8C",
"6. c #566D8C",
"7. c #576D8D",
"8. c #546C8E",
"9. c #5B6A8A",
"0. c #596B8C",
"q. c #586C8C",
"w. c #5A6E8C",
"e. c #5A6F8C",
"r. c #5B6F8C",
"t. c #596F8E",
"y. c #586F8F",
"u. c #5A6F8E",
"i. c #5B6F8F",
"p. c #5B718D",
"a. c #5A708E",
"s. c #5B718E",
"d. c #5B708F",
"f. c #5C718E",
"g. c #5F728F",
"h. c #5F738F",
"j. c #566D91",
"k. c #566E91",
"l. c #596F91",
"z. c #5D7290",
"x. c #5D7291",
"c. c #5E7390",
"v. c #5E7490",
"b. c #5F7491",
"n. c #5E7591",
"m. c #5E7593",
"M. c #567298",
"N. c #68728C",
"B. c #617491",
"V. c #657792",
"C. c #647793",
"Z. c #627694",
"A. c #637794",
"S. c #617796",
"D. c #647795",
"F. c #627995",
"G. c #657997",
"H. c #657B97",
"J. c #667A96",
"K. c #6A7D97",
"L. c #607C99",
"P. c #7F7594",
"I. c #787F99",
"U. c #657FA1",
"Y. c #827189",
"T. c #877A91",
"R. c #857A98",
"E. c #6C809C",
"W. c #6F829F",
"Q. c #6F849F",
"!. c #6D82A0",
"~. c #7281A1",
"^. c #7587A3",
"/. c #7186A4",
"(. c #738AA6",
"). c #788BA7",
"_. c #7B8DAB",
"`. c #898398",
"'. c #A2859A",
"]. c #B18496",
"[. c #CD848C",
"{. c #EB888E",
"}. c #D397AB",
"|. c #EA97A7",
" X c #EC97A5",
".X c #EC96A6",
"XX c #ED97A7",
"oX c #E99CA7",
"OX c #E59DA9",
"+X c #E89EAA",
"@X c #EE9DA8",
"#X c #EC9EAA",
"$X c #FA9EA5",
"%X c #F196A8",
"&X c #F19EAA",
"*X c #EFA0AD",
"=X c #F0A1AF",
"-X c #F9A4AE",
";X c #F0A3B1",
":X c #F5A3B0",
">X c #F4A4B0",
",X c #F6A4B0",
"<X c #F6A4B2",
"1X c #F7A7B2",
"2X c #FDA1B0",
"3X c #F8A6B0",
"4X c #F8A6B2",
"5X c #F9A6B3",
"6X c #FBA6B3",
"7X c #FFA8B6",
"8X c #FFA9B8",
"9X c #FEAABA",
"0X c #FFABBA",
"qX c None",
/* pixels */
"qXqXqXqXqXqXqXqXqXqXqXqXqXqXqXqXqXqXqXqXqXqXqXqXqXqXqXqXqXqXqXqXqXqXqXqXqXqXqXqXqXqXqXqXqXqX",
"qXqXqXqXqXqXqXqXqXqXqXqXqXqXqXqXqXqXqXqXqXqXqXqXqXqXqXqXqXqXqXqXqXqXqXqXqXqXqXqXqXqXqXqXqXqX",
"qXqXqXqXqXqXqXqXqXqXqXqXqXqXqXqXqXqXqXqXqXqXqXqXqXqXqXqXqXqXqXqXqXqXqXqXqXqXqXqXqXqXqXqXqXqX",
"qXqXqXqXqXqXqXqXqXqXqXqXqXqXqXqXqXqXqXqXqXqXqXqXqXqXqXqXqXqXqXqXqXqXqXqXqXqXqXqXqXqXqXqXqXqX",
"qXqXqXqXqXqXqXqXqXqXqXqXqXqXqXqXqXqXqXqXqXqXqXqXqXqXqXqXqXqXqXqXqXqXqXqXqXqXqXqXqXqXqXqXqXqX",
"qXqXqXqXqXqXqXqXqXqXqXqXqXqXqXqXqXqXqXqXqXqXqXqXqXqXqXqXqXqXqXqXqXqXqXqXqXqXqXqXqXqXqXqXqXqX",
"qXqXqXqXqXqXqXqXqXqXqXqXqXqXqXqXqXqXqXqXqXqXqXqXqXqXqXqXqXqXqXqXqXqXqXqXqXqXqXqXqXqXqXqXqXqX",
"qXqXqXqXqXqXqXqXqXqXqXqXqXqXqXqXqXqXqXqXqXqXqXqXqXqXqXqXqXqXqXqXqXqXqXqXqXqXqXqXqXqXqXqXqXqX",
"qXqXqXqXqXqXqXqXqXqXqXqXqXqXqXqXqXqXqXqXqXqXqXqXqXqXqXqXqXqXqXqXqXqXqXqXqXqXqXqXqXqXqXqXqXqX",
"qXqXqXqXqXqXqXqXqXqXqXqXqXqXqXqXqXqXqXqXqXqXqXqXqXqXqXqXqXqXqXqXqXqXqXqXqXqXqXqXqXqXqXqXqXqX",
"qXqXqXqXqXqXqXqXqX9.qXqXqXqXqXqXqXqXqXqXqXqXqXqXqXqXqXqXqXqXqXqXqXqXqXqXqXqXqXqXqXqXqXqXqXqX",
"qXqXqXqXqXqXqXqX(.U.qXqXqXqXqXqXqXqXqXqXqXqXqXqXqXqXqXqXqXqXqXqXqXqXqXqXqXqXqXqXqXqXqXqXqXqX",
"qXqXqXqXqXqXqXqXm.~.I.qXqXqXqX!.W.Q.qXqXqXqXqXqXqXqXqXqXqXqXqXqXqXqXqXqXqXqXqXqXqXqXqXqXqXqX",
"qXqXqXqXqXqXqX(.F.}.`.qXqXqXA.!.Q._.V.qXqXqXqXqXqXqXqXqXqXqXqXqXqXqXqXqXqXqXqXqXqXqXqXqXqXqX",
"qXqXqXqXqXqXE.(.I.-X].qXu.r.m.v.C.K.).C.qXqXqXqXqXqXqXqXqXqXqXqXqXqXqXqXqXqXqXqXqXqXqXqXqXqX",
"qXqXqXqXqX#.^.H.`.$X'.B l.j.u.n.D.C.J./.D.qXqXqXqXqXqXqXqXqXqXqXqXqXqXqXqXqXqXqXqXqXqXqXqXqX",
"qXqXqXqX0 g.q L.T.{.R.B +.<.w.z.b.Z.B.G.f.qXqXqXqXqXqXqXqXqXqXqXqXqXqXqXqXqXqXqXqXqXqXqXqXqX",
"qXqXqX! M.0 qXp.N.[.9.B | >.2.i.x.c.h.s.S.5.qXqXqXqXqXqXqXqXqXqXqXqXqXqXqXqXqXqXqXoXXXqXqXqX",
"qXqXqXa ! *.- 2.0.Y.h P { $.1.q.t.a.d.e.y.5.qXqXqXqXqXqXqXqXqXqXqXqXqXqXqXqXqXqX0XXXqXqXqXqX",
"qXqXqXP.e &.8.;.} V y v U / ;.<.3.6.7.5.,.k.qXqXqXqXqXqXqXqXqXqXqXqXqXqXqXqXqX9XXXqXqXqXqXqX",
"qXqXqXR.w F D Y c 4 5 c k L ) %.:.:.<.:.O.=.O.qXqXqXqXqXqXqXqXqXqXqXqXqXqXqX;XXXqXqXqXqXqXqX",
"qXqXqXa d 3 a d > + = s f x ~ ( _ _ -.` _ [ E qXqXqXqXqXqXqXqXqXqXqXqXqXqXoX2XqXqXqXqXqXqXqX",
"qXqXqXqX] d d d d % # i p g n T R W ) ^ [ I ..qXqXqXqXqXqXqXqXqXqXqXqXqXoX7X{.qXqXqXqXqXqXqX",
"qXqXqXqXqXQ X.o.*.G @ 6 t J v C H K U S I 5 Z h qXqXqXqXqXqXqXqXqXqXqXoX8XXXqXqXqXqXqXqXqXqX",
"qXqXqXqXqXqX*.9.qXqX6 & 4 1 8 k 9 l m b h 5 5 @.oXqXqXqXqXqXqXqXqXqXoX6XXXqXqXqXqXqXqXqXqXqX",
"qXqXqXqXqXqXqXqXqXqXG M O * < ; o 2 z 7 u , X @.>XoXqXqXqXqXqXqXoX=X:XXXqXqXqXqXqXqXqXqXqXqX",
"qXqXqXqXqXqXqXqXqXqXqX4.G j : .   $ Z r 7 u X @.@X3XOX@XoX@XoX+X5X&XXXqXqXqXqXqXqXqXqXqXqXqX",
"qXqXqXqXqXqXqXqXqXqXqXqXG : N $ $ $ A Z r qXX @.XXoX*X<X4X1X,X#X%X{.qXqXqXqXqXqXqXqXqXqXqXqX",
"qXqXqXqXqXqXqXqXqXqXqXqXqX: G : $ qXZ ' r qXqX@.XXXXXX X|..XXXXX{.qXqXqXqXqXqXqXqXqXqXqXqXqX",
"qXqXqXqXqXqXqXqXqXqXqXqXqXqXqXA qXqXqX .Z qXqXqXqXXXXXXXXX{.{.qXqXqXqXqXqXqXqXqXqXqXqXqXqXqX",
"qXqXqXqXqXqXqXqXqXqXqXqXqXqXqXqXqXqXZ :.qXqXqXqXqXqXqXqXqXqXqXqXqXqXqXqXqXqXqXqXqXqXqXqXqXqX",
"qXqXqXqXqXqXqXqXqXqXqXqXqXqXqXqXqXQ.:.D.qXqXqXqXqXqXqXqXqXqXqXqXqXqXqXqXqXqXqXqXqXqXqXqXqXqX",
"qXqXqXqXqXqXqXqXqXqXqXqXqXqXqXqXqXqXe.qXqXqXqXqXqXqXqXqXqXqXqXqXqXqXqXqXqXqXqXqXqXqXqXqXqXqX",
"qXqXqXqXqXqXqXqXqXqXqXqXqXqXqXqXqXqXqXqXqXqXqXqXqXqXqXqXqXqXqXqXqXqXqXqXqXqXqXqXqXqXqXqXqXqX",
"qXqXqXqXqXqXqXqXqXqXqXqXqXqXqXqXqXqXqXqXqXqXqXqXqXqXqXqXqXqXqXqXqXqXqXqXqXqXqXqXqXqXqXqXqXqX",
"qXqXqXqXqXqXqXqXqXqXqXqXqXqXqXqXqXqXqXqXqXqXqXqXqXqXqXqXqXqXqXqXqXqXqXqXqXqXqXqXqXqXqXqXqXqX",
"qXqXqXqXqXqXqXqXqXqXqXqXqXqXqXqXqXqXqXqXqXqXqXqXqXqXqXqXqXqXqXqXqXqXqXqXqXqXqXqXqXqXqXqXqXqX"
};
