/* XPM */
static char *result[] = {
/* columns rows colors chars-per-pixel */
"48 40 221 2 ",
"   c #3B3F4D",
".  c #27446A",
"X  c #3A506F",
"o  c #2E4E72",
"O  c #394F74",
"+  c #3A5076",
"@  c #3D567A",
"#  c #3E577B",
"$  c #3F567C",
"%  c #3F577C",
"&  c #3F587C",
"*  c #3E587D",
"=  c #455262",
"-  c #4C5360",
";  c #4C5569",
":  c #40567B",
">  c #41587B",
",  c #42597B",
"<  c #41597C",
"1  c #42587C",
"2  c #445B7D",
"3  c #445D7E",
"4  c #445E7F",
"5  c #475F7E",
"6  c #465E7F",
"7  c #5D677C",
"8  c #425A82",
"9  c #435A82",
"0  c #425C81",
"q  c #455D81",
"w  c #455F83",
"e  c #465E84",
"r  c #475F84",
"t  c #485F83",
"y  c #485F85",
"u  c #466084",
"i  c #456087",
"p  c #466387",
"a  c #486082",
"s  c #486083",
"d  c #4A6182",
"f  c #4A6183",
"g  c #4A6282",
"h  c #4B6283",
"j  c #4D6280",
"k  c #4C6382",
"l  c #486084",
"z  c #496184",
"x  c #496185",
"c  c #4A6185",
"v  c #4A6284",
"b  c #4B6285",
"n  c #496186",
"m  c #496286",
"M  c #4C6384",
"N  c #4C6485",
"B  c #4C6585",
"V  c #4F6584",
"C  c #4C6486",
"Z  c #4C6487",
"A  c #4D6487",
"S  c #4D6587",
"D  c #4F6586",
"F  c #4E6587",
"G  c #4E6687",
"H  c #4F6687",
"J  c #4A6288",
"K  c #4A6489",
"L  c #4B658B",
"P  c #4B668A",
"I  c #4D6488",
"U  c #4D6588",
"Y  c #4F6688",
"T  c #4E6788",
"R  c #4F6788",
"E  c #4C658A",
"W  c #4F678A",
"Q  c #4D668D",
"!  c #4F678D",
"~  c #4F698A",
"^  c #4B6A8E",
"/  c #506685",
"(  c #506787",
")  c #526887",
"_  c #5A6C87",
"`  c #506788",
"'  c #516788",
"]  c #506789",
"[  c #516988",
"{  c #526889",
"}  c #526989",
"|  c #536A89",
" . c #51688B",
".. c #52698A",
"X. c #536A8A",
"o. c #526A8B",
"O. c #546889",
"+. c #546A8A",
"@. c #546B8A",
"#. c #556B8B",
"$. c #566A8B",
"%. c #576B8C",
"&. c #566C8C",
"*. c #566D8C",
"=. c #576D8C",
"-. c #566D8D",
";. c #576E8C",
":. c #596D8D",
">. c #596E8D",
",. c #596F8D",
"<. c #5A6F8D",
"1. c #586F8E",
"2. c #596F8E",
"3. c #5A6F8E",
"4. c #57708F",
"5. c #5B708E",
"6. c #5B708F",
"7. c #5B718F",
"8. c #5C718D",
"9. c #5C718E",
"0. c #5C708F",
"q. c #5C718F",
"w. c #5C728F",
"e. c #526A90",
"r. c #577090",
"t. c #567394",
"y. c #577595",
"u. c #5C7190",
"i. c #5D7290",
"p. c #5D7291",
"a. c #5E7390",
"s. c #5E7391",
"d. c #5F7391",
"f. c #5E7392",
"g. c #5F7490",
"h. c #5F7491",
"j. c #5E7592",
"k. c #597394",
"l. c #5C7396",
"z. c #5E7494",
"x. c #5F7A98",
"c. c #606987",
"v. c #73718B",
"b. c #617591",
"n. c #617691",
"m. c #617692",
"M. c #617693",
"N. c #627693",
"B. c #637693",
"V. c #627794",
"C. c #647894",
"Z. c #647994",
"A. c #657A94",
"S. c #657A95",
"D. c #667A95",
"F. c #677B95",
"G. c #677A96",
"H. c #687A95",
"J. c #687B95",
"K. c #687C96",
"L. c #687D97",
"P. c #6A7C97",
"I. c #6B7C97",
"U. c #6E7C97",
"Y. c #6D7E97",
"T. c #627999",
"R. c #637A98",
"E. c #697D99",
"W. c #697E98",
"Q. c #6B7F99",
"!. c #697E9D",
"~. c #6A7F9D",
"^. c #8E768E",
"/. c #B27B86",
"(. c #A37F96",
"). c #D27F86",
"_. c #6D809A",
"`. c #6D809B",
"'. c #6B819F",
"]. c #708298",
"[. c #70829B",
"{. c #70849F",
"}. c #72849F",
"|. c #7F829D",
" X c #6881A9",
".X c #7288A5",
"XX c #7488A7",
"oX c #768AA7",
"OX c #7A8EAA",
"+X c #7A90AA",
"@X c #7E91AF",
"#X c #928298",
"$X c #B1839A",
"%X c #BD8FA1",
"&X c #DF919A",
"*X c #CE93A3",
"=X c #D999A8",
"-X c #DE9CAE",
";X c #E79BA7",
":X c #E899A6",
">X c #E19DAC",
",X c #EE9EA9",
"<X c #EF9DAA",
"1X c #EB9EAC",
"2X c #F199A7",
"3X c #F69CA7",
"4X c #F59AAA",
"5X c #F39CAA",
"6X c #F49CAA",
"7X c #F59CAB",
"8X c #F1A1AE",
"9X c #F3A2AE",
"0X c #F3A2AF",
"qX c #F6A0AD",
"wX c #F7A5B3",
"eX c #F4A6B3",
"rX c #FFA7B1",
"tX c #FDA4B5",
"yX c #FFA5B5",
"uX c #FFA8B6",
"iX c None",
/* pixels */
"iXiXiXiXiXiXiXiXiXiXiXiXiXiXiXiXiXiXiXiXiXiXiXiXiXiXiXiXiXiXiXiXiXiXiXiXiXiXiXiXiXiXiXiXiXiXiXiX",
"iXiXiXiXiXiXiXiXiXiXiXiXiXiXiXiXiXiXiXiXiXiXiXiXiXiXiXiXiXiXiXiXiXiXiXiXiXiXiXiXiXiXiXiXiXiXiXiX",
"iXiXiXiXiXiXiXiXiXiXiXiXiXiXiXiXiXiXiXiXiXiXiXiXiXiXiXiXiXiXiXiXiXiXiXiXiXiXiXiXiXiXiXiXiXiXiXiX",
"iXiXiXiXiXiXiXiXiXiXiXiXiXiXiXiXiXiXiXiXiXiXiXiXiXiXiXiXiXiXiXiXiXiXiXiXiXiXiXiXiXiXiXiXiXiXiXiX",
"iXiXiXiXiXiXiXiXiXiXiXiXiXiXiXiXiXiXiXiXiXiXiXiXiXiXiXiXiXiXiXiXiXiXiXiXiXiXiXiXiXiXiXiXiXiXiXiX",
"iXiXiXiXiXiXiXiXiXiXiXiXiXiXiXiXiXiXiXiXiXiXiXiXiXiXiXiXiXiXiXiXiXiXiXiXiXiXiXiXiXiXiXiXiXiXiXiX",
"iXiXiXiXiXiXiXiXiXiX<.iXiXiXiXiXiXiXiXiXiXiXiXiXiXiXiXiXiXiXiXiXiXiXiXiXiXiXiXiXiXiXiXiXiXiXiXiX",
"iXiXiXiXiXiXiXiXiX_  Xy.iXiXiXiXiXiXiXiXiXiXiXiXiXiXiXiXiXiXiXiXiXiXiXiXiXiXiXiXiXiXiXiXiXiXiXiX",
"iXiXiXiXiXiXiXiXiXy.|.#XiXiXiXiXiXiXiXiXiXiXiXiXiXiXiXiXiXiXiXiXiXiXiXiXiXiXiXiXiXiXiXiXiXiXiXiX",
"iXiXiXiXiXiXiXiXE.x.%X>XiXiXiXiXiXiXiXiXiXiXiXiXiXiXiXiXiXiXiXiXiXiXiXiXiXiXiXiXiXiXiXiXiXiXiXiX",
"iXiXiXiXiXiXiXiXOXL.=X-XiXiXiXiXJ.iXiXiXiXiXiXiXiXiXiXiXiXiXiXiXiXiXiXiXiXiXiXiXiXiXiXiXiXiXiXiX",
"iXiXiXiXiXiXiXI.{.U.&X*Xy.8.8.!.XXoXY.iXiXiXiXiXiXiXiXiXiXiXiXiXiXiXiXiXiXiXiXiXiXiXiXiXiXiXiXiX",
"iXiXiXiXiXiXE.'.S.E.).$X^ l.j.n.G.[.@XY.iXiXiXiXiXiXiXiXiXiXiXiXiXiXiXiXiXiXiXiXiXiXiXiXiXiXiXiX",
"iXiXiXiXiXiXz.- 7 y./.^.p _ 8.m.J.Y.].+XF.iXiXiXiXiXiXiXiXiXiXiXiXiXiXiXiXiXiXiXiXiXiXiXiXiXiXiX",
"iXiXiXiXiX~ k.  ; t.v.c.P -.p.V.F.`._.}.H.iXiXiXiXiXiXiXiXiXiXiXiXiXiXiXiXiXiXiXiXiXiXiXiXiXiXiX",
"iXiXiXiXiXQ ~ j V o.m x ' -.0.b.D.W.Q.P..Xw.iXiXiXiXiXiXiXiXiXiXiXiXiXiXiXiXiXiXiXiXiXiXiXiXiXiX",
"iXiXiXiX7 i h  .R f 9 l ` #.5.g.C.K.K.F.~.B.iXiXiXiXiXiXiXiXiXiXiXiXiXiXiXiXiXiXiXiXiXiXiXiXiXiX",
"iXiXiXiX&Xh 0 t w 4 & l Y +.3.s.M.Z.D.A.N.R.iXiXiXiXiXiXiXiXiXiXiXiXiXiXiXiXiXiXiXiXiXiXiXiXiXiX",
"iXiXiXiXiXh * 3 8 $ @ n S { %.7.h.m.B.B.a.T.d.iXiXiXiXiXiXiXiXiXiXiXiXiXiXiXiXiXiXiXiXiXiXiXiXiX",
"iXiXiXiXiX0 8 8 8 8 L r Z H O.2.q.f.d.d.w.i.6.iXiXiXiXiXiXiXiXiXiXiXiXiXiXiXiXiXiXiXiXiXiXiXiXiX",
"iXiXiXiXiXiX~ ! e.N N r N S / =.>.u.9.q.6.=.4.iXiXiXiXiXiXiXiXiXiXiXiXiXiXiXiXiXiXiXiXiXiXiXiXiX",
"iXiXiXiXiXiXiXiXiXiXiXI U B h ) &.:.,.1.;.| r.[ iXiXiXiXiXiXiXiXiXiXiXiXiXiXiXiXiXiXiXiXiXiXiXiX",
"iXiXiXiXiXiXiXiXiXiXiXiXI I b k X.$.*.*.@.[ ] A iXiXiXiXiXiXiXiXiXiXiXiXiXiXiXiXiXiXiX5XiXiXiXiX",
"iXiXiXiXiXiXiXiXiXiXiXiX> J g 5 D ..} ( ` T A E iXiXiXiXiXiXiXiXiXiXiXiXiXiXiXiXiXiX5X3XiXiXiXiX",
"iXiXiXiXiXiXiXiXiXiXiXiXiX6 6 2 d G F M F A A K u iXiXiXiXiXiXiXiXiXiXiXiXiXiXiXiXiX5XiXiXiXiXiX",
"iXiXiXiXiXiXiXiXiXiXiXiXiX> 6 , > A C a v c 1 u e iXiXiXiXiXiXiXiXiXiXiXiXiXiXiXiX5XiXiXiXiXiXiX",
"iXiXiXiXiXiXiXiXiXiXiXiXiXiX> > : : z < s u % e u (.iXiXiXiXiXiXiXiXiXiXiXiXiXiXiX5XiXiXiXiXiXiX",
"iXiXiXiXiXiXiXiXiXiXiXiXiXiXiX: : : : + s e # O + (.iXiXiXiXiXiXiXiXiXiXiXiXiXiX5XiXiXiXiXiXiXiX",
"iXiXiXiXiXiXiXiXiXiXiXiXiXiXiX: + + + + # W q + o (.,XiXiXiXiXiXiXiXiXiXiXiXiXiX5XiXiXiXiXiXiXiX",
"iXiXiXiXiXiXiXiXiXiXiXiXiXiXiXiXiXiXiXiXiXX y X . (.rX5XiXiXiXiXiXiXiXiXiXiXiX5XiXiXiXiXiXiXiXiX",
"iXiXiXiXiXiXiXiXiXiXiXiXiXiXiXiXiXiXiXiXiXiX+ X iX(.3X9X5XiXiXiXiXiXiXiXiXiX5X5XiXiXiXiXiXiXiXiX",
"iXiXiXiXiXiXiXiXiXiXiXiXiXiXiXiXiXiXiXiXiXiXiXq iXiX3XqX0X5XiXiXiXiXiXiXiX5XyXiXiXiXiXiXiXiXiXiX",
"iXiXiXiXiXiXiXiXiXiXiXiXiXiXiXiXiXiXiXiXiXiXiX@.iXiXiX3X5X8X1X5XiXiXiXiX5XtX3XiXiXiXiXiXiXiXiXiX",
"iXiXiXiXiXiXiXiXiXiXiXiXiXiXiXiXiXiXiXiXiXiX`.B.iXiXiXiX5X4X<XeXwX;X5X:XuX3XiXiXiXiXiXiXiXiXiXiX",
"iXiXiXiXiXiXiXiXiXiXiXiXiXiXiXiXiXiXiXiXiXiXiXY.iXiXiXiXiX3X3X3X2X7X6X3X).iXiXiXiXiXiXiXiXiXiXiX",
"iXiXiXiXiXiXiXiXiXiXiXiXiXiXiXiXiXiXiXiXiXiXiX= iXiXiXiXiXiXiX3X3X3X3XiXiXiXiXiXiXiXiXiXiXiXiXiX",
"iXiXiXiXiXiXiXiXiXiXiXiXiXiXiXiXiXiXiXiXiXiXiXiXiXiXiXiXiXiXiXiXiXiXiXiXiXiXiXiXiXiXiXiXiXiXiXiX",
"iXiXiXiXiXiXiXiXiXiXiXiXiXiXiXiXiXiXiXiXiXiXiXiXiXiXiXiXiXiXiXiXiXiXiXiXiXiXiXiXiXiXiXiXiXiXiXiX",
"iXiXiXiXiXiXiXiXiXiXiXiXiXiXiXiXiXiXiXiXiXiXiXiXiXiXiXiXiXiXiXiXiXiXiXiXiXiXiXiXiXiXiXiXiXiXiXiX",
"iXiXiXiXiXiXiXiXiXiXiXiXiXiXiXiXiXiXiXiXiXiXiXiXiXiXiXiXiXiXiXiXiXiXiXiXiXiXiXiXiXiXiXiXiXiXiXiX"
};
