/* XPM */
static char *result[] = {
/* columns rows colors chars-per-pixel */
"47 48 190 2 ",
"   c #3B4555",
".  c #3D4759",
"X  c #3E5778",
"o  c #3B577E",
"O  c #3D567D",
"+  c #3E577C",
"@  c #3F587E",
"#  c #495363",
"$  c #445775",
"%  c #445977",
"&  c #435979",
"*  c #425A7C",
"=  c #445B7E",
"-  c #475C7E",
";  c #4F607C",
":  c #5B6A7C",
">  c #435A80",
",  c #405A82",
"<  c #425C82",
"1  c #435C82",
"2  c #455E80",
"3  c #475F81",
"4  c #475C82",
"5  c #465D82",
"6  c #455E82",
"7  c #475F83",
"8  c #4A5F81",
"9  c #495F83",
"0  c #466082",
"q  c #476185",
"w  c #466486",
"e  c #496081",
"r  c #486083",
"t  c #4C6083",
"y  c #4C6282",
"u  c #4C6482",
"i  c #496084",
"p  c #4B6385",
"a  c #496286",
"s  c #4C6384",
"d  c #4D6385",
"f  c #4B6485",
"g  c #4B6486",
"h  c #4D6484",
"j  c #4E6585",
"k  c #4D6587",
"l  c #4F6586",
"z  c #4E6587",
"x  c #4E6786",
"c  c #4E6687",
"v  c #466289",
"b  c #4B6288",
"n  c #4B6388",
"m  c #4B638A",
"M  c #486788",
"N  c #4C6589",
"B  c #4F678A",
"V  c #4F698A",
"C  c #516480",
"Z  c #506685",
"A  c #506787",
"S  c #5C6786",
"D  c #506788",
"F  c #506789",
"G  c #516789",
"H  c #526788",
"J  c #51678A",
"K  c #506888",
"L  c #516889",
"P  c #526889",
"I  c #536889",
"U  c #536A89",
"Y  c #536B89",
"T  c #51698B",
"R  c #53698A",
"E  c #53688B",
"W  c #536B8B",
"Q  c #546A8A",
"!  c #536C8A",
"~  c #546C8B",
"^  c #51698D",
"/  c #516A8D",
"(  c #50688E",
")  c #55698C",
"_  c #576B8C",
"`  c #556D8C",
"'  c #576C8C",
"]  c #566D8C",
"[  c #576E8D",
"{  c #556D8E",
"}  c #576D8F",
"|  c #586D8C",
" . c #586C8D",
".. c #596E8D",
"X. c #5A6E8C",
"o. c #5A6E8D",
"O. c #596F8E",
"+. c #5A6F8E",
"@. c #5A6F8F",
"#. c #5C6E8E",
"$. c #5B708B",
"%. c #5C708E",
"&. c #5C708F",
"*. c #5C718F",
"=. c #5C728F",
"-. c #5D728F",
";. c #5E728F",
":. c #516B90",
">. c #536B94",
",. c #567394",
"<. c #557496",
"1. c #587090",
"2. c #5A7191",
"3. c #5C7190",
"4. c #5C7290",
"5. c #5E7391",
"6. c #5E7292",
"7. c #5E7392",
"8. c #5D7491",
"9. c #5F7493",
"0. c #5F7696",
"q. c #5B7599",
"w. c #696D88",
"e. c #607592",
"r. c #617692",
"t. c #617693",
"y. c #627692",
"u. c #627693",
"i. c #637793",
"p. c #667791",
"a. c #637794",
"s. c #647795",
"d. c #647893",
"f. c #657894",
"g. c #657994",
"h. c #657895",
"j. c #657995",
"k. c #667894",
"l. c #667A95",
"z. c #677B95",
"x. c #6B7A97",
"c. c #687C96",
"v. c #687C97",
"b. c #697C97",
"n. c #6A7E97",
"m. c #6C7D95",
"M. c #627698",
"N. c #637B98",
"B. c #60789A",
"V. c #657C99",
"C. c #697D98",
"Z. c #697E99",
"A. c #6B7F98",
"S. c #6B7F99",
"D. c #697D9B",
"F. c #687E9B",
"G. c #6D7F99",
"H. c #88758D",
"J. c #A7798B",
"K. c #6D809A",
"L. c #6D809B",
"P. c #6F809A",
"I. c #6F809B",
"U. c #6D829B",
"Y. c #6A809E",
"T. c #70839C",
"R. c #71829D",
"E. c #70839E",
"W. c #73869E",
"Q. c #6783A3",
"!. c #6C81A0",
"~. c #6D83A1",
"^. c #6F84A1",
"/. c #6F85A1",
"(. c #7185A0",
"). c #7387A1",
"_. c #758AA6",
"`. c #768DA9",
"'. c #8F869F",
"]. c #AA8295",
"[. c #D08083",
"{. c #DF8F96",
"}. c #C78FA0",
"|. c #CA93A2",
" X c #D597A8",
".X c #DF9CA8",
"XX c #DE9BAC",
"oX c #E699A6",
"OX c #FFAEBC",
"+X c None",
/* pixels */
"+X+X+X+X+X+X+X+X+X+X+X+X+X+X+X+X+X+X+X+X+X+X+X+X+X+X+X+X+X+X+X+X+X+X+X+X+X+X+X+X+X+X+X+X+X+X+X",
"+X+X+X+X+X+X+X+X+X+X+X+X+X+X+X+X+X+X+X+X+X+X+X+X+X+X+X+X+X+X+X+X+X+X+X+X+X+X+X+X+X+X+X+X+X+X+X",
"+X+X+X+X+X+X+X+X+X+X+X+X+X+X+X+X+X+X+X+X+X+X+X+X+X+X+X+X+X+X+X+X+X+X+X+X+X+X+X+X+X+X+X+X+X+X+X",
"+X+X+X+X+X+X+X+X+X+X+X+X+X+X+X+X+X+X+X+X+X+X+X+X+X+X+X+X+X+X+X+X+X+X+X+X+X+X+X+X+X+X+X+X+X+X+X",
"+X+X+X+X+X+X+X+X+X+X+X+X+X+X+X+X+X+X+X+X+X+X+X+X+X+X+X+X+X+X+X+X+X+X+X+X+X+X+X+X+X+X+X+X+X+X+X",
"+X+X+X+X+X+X+X+X+X+X+X+X+X+X+X+X+X+X+X+X+X+X+X+X+X+X+X+X+X+X+X+X+X+X+X+X+X+X+X+X+X+X+X+X+X+X+X",
"+X+X+X+X+X+X+X+X+X+X+X+X+X+X+X+X+X+X+X+X+X+X+X+X+X+X+X+X+X+X+X+X+X+X+X+X+X+X+X+X+X+X+X+X+X+X+X",
"+X+X+X+X+X+X+X+X+X+X+X+X+X+X+X+X+X+X+X+X+X+X+X+X+X+X+X+X+X+X+X+X+X+X+X+XM.+X+X+X+X+X+X+X+X+X+X",
"+X+X+X+X+X+X+X+X+X+X+X+X+X+X+X+X+X+X+X+X+X+X+X+X+X+X+X+X+X+X+X+X+X+X+X$.Q.D.+X+X+X+X+X+X+X+X+X",
"+X+X+X+X+X+X+X+X+X+X+X+X+X+X+X+X+X+X+X+X+X+X+X+X+X+X+X+X+X$.X.+X+X+X+X|.'.:.+X+X+X+X+X+X+X+X+X",
"+X+X+X+X+X+X+X+X+X+X+X+X+X+X+X+X+X+X+X+X+X+X+X+X+X+X+X+Xz.!.Y.=.X.+X+X.X|.N.m.+X+X+X+X+X+X+X+X",
"+X+X+X+X+X+X+X+X+X+X+X+X+X+X+X+X+X+X+X+X+X+X+X+X+X+X+XS.).R.Z.a.B.} $  XXXD.`.+X+X+X+X+X+X+X+X",
"+X+X+X+X+X+X+X+X+X+X+X+X+X+X+X+X+X+X+X+X+X+X+X+X+X+XU._.(.S.z.t.$.X.:.}.{.m.W.p.+X+X+X+X+X+X+X",
"+X+X+X+X+X+X+X+X+X+X+X+X+X+X+X+X+X+X+X+X+X+X+X+X+X+X/.E.I.L.b.a.8.X.w ].[.x.k.~.k.+X+X+X+X+X+X",
"+X+X+X+X+X+X+X+X+X+X+X+X+X+X+X+X+X+X+X+X+X+X+X+X+Xy.^.S.T.P.C.s.6.#.M H.J.<.: : 1.+X+X+X+X+X+X",
"+X+X+X+X+X+X+X+X+X+X+X+X+X+X+X+X+X+X+X+X+X+X+X+X+XF.n.G.U.K.v.i.;...V S w.,.# +Xq.y +X+X+X+X+X",
"+X+X+X+X+X+X+X+X+X+X+X+X+X+X+X+X+X+X+X+X+X+X+X+Xe.V.g.n.A.S.l.r.-.' P q 0 ! C ; T m +X+X+X+X+X",
"+X+X+X+X+X+X+X+X+X+X+X+X+X+X+X+X+X+X+X+X+X+X+X+X*.e.d.z.v.c.g.e.&._ L r > b ( ^ y y = +X+X+X+X",
"+X+X+X+X+X+X+X+X+X+X+X+X+X+X+X+X+X+X+X+X+X+X+X@.0.*.y.f.j.h.u.-.O.Q x r O 2 7 r < T |.+X+X+X+X",
"+X+X+X+X+X+X+X+X+X+X+X+X+X+X+X+X+X+X+X+X+X+X+X@.2.*.e.r.r.t.9.*.[ h d 8 X + = 1 o T  X+X+X+X+X",
"+X+X+X+X+X+X+X+X+X+X+X+X+X+X+X+X+X+X+X+X+X+X+X{ R @.4.7.5.5.3.@.A s f v B 1 + 1 1 < +X+X+X+X+X",
"+X+X+X+X+X+X+X+X+X+X+X+X+X+X+X+X+X+X+X+X+X+XG R R  .+.%.&.&.o.' l z F f +XX./ N g y +X+X+X+X+X",
"+X+X+X+X+X+X+X+X+X+X+X+X+X+X+X+X+X+X+X+X+X+XG z G U ] | | [ ` Y j g F +X+X+X+Xk.+X+X+X+X+X+X+X",
"+X+X+X+X+X+X+X+X+X+X+X+X+X+X+X+X+X+X+X+X+X4 4 3 z K U W ~ Q ) H t >.g +X+X+X+X+X+X+X+X+X+X+X+X",
"+X+X+X+X+X+X+X+X+X+X+X+X+X+X+X+X+X+X+X+X X ., 4 n c D J E I A e g j +X+X+X+X+X+X+X+X+X+X+X+X+X",
"+X+X+X+X+X+X+X+X+X+X+X+X+X+X+X+X+X+X+X.XXX@ & % a p k Z u 3 - - g +X+X+X+X+X+X+X+X+X+X+X+X+X+X",
"+X+X+X+X.X+X+X+X+X+X+X+X+X+X+X+X+X+X.XXXoX .@ @ 5 9 i * * * * * * +X+X+X+X+X+X+X+X+X+X+X+X+X+X",
"+X+X+X+X.X+X+X+X+X+X+X+X+X+X+X+X+X+X.X.X.X+X+X@ 6 6 6 * * * +X+X* +X+X+X+X+X+X+X+X+X+X+X+X+X+X",
"+X+X+X+X.X+X+X+X+X+X+X+X+X+X+X+X+X.X.X.X+X+X+X, 6 6 6 +X+X+X+X+X+X+X+X+X+X+X+X+X+X+X+X+X+X+X+X",
"+X+X+X+X+X.X+X+X+X+X+X+X+X+X+X+X.X.X.X+X+X+X+X, , , +X+X+X+X+X+X+X+X+X+X+X+X+X+X+X+X+X+X+X+X+X",
"+X+X+X+X+X.X+X+X+X+X+X+X+X+X+X+X.X.X+X+X+X+X+X, 6 +X+X+X+X+X+X+X+X+X+X+X+X+X+X+X+X+X+X+X+X+X+X",
"+X+X+X+X+X+X.X+X+X+X+X+X+X+X+X.X.X.X+X+X+X+X+X+X- +X+X+X+X+X+X+X+X+X+X+X+X+X+X+X+X+X+X+X+X+X+X",
"+X+X+X+X+X+X.X.X+X+X+X+X+X+X.XOX.X+X+X+X+X+X+X+X+X+X+X+X+X+X+X+X+X+X+X+X+X+X+X+X+X+X+X+X+X+X+X",
"+X+X+X+X+X+X+XXX.X+X+X+X+X.XXX.X+X+X+X+X+X+X+X+X+X+X+X+X+X+X+X+X+X+X+X+X+X+X+X+X+X+X+X+X+X+X+X",
"+X+X+X+X+X+X+X.XXX.X+X+X.XXX.X+X+X+X+X+X+X+X+X+X+X+X+X+X+X+X+X+X+X+X+X+X+X+X+X+X+X+X+X+X+X+X+X",
"+X+X+X+X+X+X+X+X.XXX.X.X.X.X+X+X+X+X+X+X+X+X+X.   +X+X+X+X+X+X+X+X+X+X+X+X+X+X+X+X+X+X+X+X+X+X",
"+X+X+X+X+X+X+X+X+X.X.X.X.X+X+X+X+X+X+X+X+X+X+X+X+X+X+X+X+X+X+X+X+X+X+X+X+X+X+X+X+X+X+X+X+X+X+X",
"+X+X+X+X+X+X+X+X+X+X+X+X+X+X+X+X+X+X+X+X+X+X+X+X+X+X+X+X+X+X+X+X+X+X+X+X+X+X+X+X+X+X+X+X+X+X+X",
"+X+X+X+X+X+X+X+X+X+X+X+X+X+X+X+X+X+X+X+X+X+X+X+X+X+X+X+X+X+X+X+X+X+X+X+X+X+X+X+X+X+X+X+X+X+X+X",
"+X+X+X+X+X+X+X+X+X+X+X+X+X+X+X+X+X+X+X+X+X+X+X+X+X+X+X+X+X+X+X+X+X+X+X+X+X+X+X+X+X+X+X+X+X+X+X",
"+X+X+X+X+X+X+X+X+X+X+X+X+X+X+X+X+X+X+X+X+X+X+X+X+X+X+X+X+X+X+X+X+X+X+X+X+X+X+X+X+X+X+X+X+X+X+X",
"+X+X+X+X+X+X+X+X+X+X+X+X+X+X+X+X+X+X+X+X+X+X+X+X+X+X+X+X+X+X+X+X+X+X+X+X+X+X+X+X+X+X+X+X+X+X+X",
"+X+X+X+X+X+X+X+X+X+X+X+X+X+X+X+X+X+X+X+X+X+X+X+X+X+X+X+X+X+X+X+X+X+X+X+X+X+X+X+X+X+X+X+X+X+X+X",
"+X+X+X+X+X+X+X+X+X+X+X+X+X+X+X+X+X+X+X+X+X+X+X+X+X+X+X+X+X+X+X+X+X+X+X+X+X+X+X+X+X+X+X+X+X+X+X",
"+X+X+X+X+X+X+X+X+X+X+X+X+X+X+X+X+X+X+X+X+X+X+X+X+X+X+X+X+X+X+X+X+X+X+X+X+X+X+X+X+X+X+X+X+X+X+X",
"+X+X+X+X+X+X+X+X+X+X+X+X+X+X+X+X+X+X+X+X+X+X+X+X+X+X+X+X+X+X+X+X+X+X+X+X+X+X+X+X+X+X+X+X+X+X+X",
"+X+X+X+X+X+X+X+X+X+X+X+X+X+X+X+X+X+X+X+X+X+X+X+X+X+X+X+X+X+X+X+X+X+X+X+X+X+X+X+X+X+X+X+X+X+X+X",
"+X+X+X+X+X+X+X+X+X+X+X+X+X+X+X+X+X+X+X+X+X+X+X+X+X+X+X+X+X+X+X+X+X+X+X+X+X+X+X+X+X+X+X+X+X+X+X"
};
