/* XPM */
static char *result[] = {
/* columns rows colors chars-per-pixel */
"46 41 204 2 ",
"   c #3D4552",
".  c #3C4656",
"X  c #31476D",
"o  c #354D70",
"O  c #3D5275",
"+  c #3B5479",
"@  c #3E5578",
"#  c #3E5479",
"$  c #3F567E",
"%  c #3F597E",
"&  c #3D5A7E",
"*  c #404851",
"=  c #41567C",
"-  c #40577C",
";  c #445B7B",
":  c #40587C",
">  c #43597C",
",  c #425A7D",
"<  c #43597E",
"1  c #445B7C",
"2  c #425C7E",
"3  c #4F617B",
"4  c #82565E",
"5  c #8E606A",
"6  c #AD737E",
"7  c #3D5881",
"8  c #445B80",
"9  c #435D80",
"0  c #475E81",
"q  c #475F81",
"w  c #465D83",
"e  c #455E83",
"r  c #425F84",
"t  c #465E84",
"y  c #495F83",
"u  c #476083",
"i  c #486083",
"p  c #496083",
"a  c #4B6283",
"s  c #496185",
"d  c #4A6284",
"f  c #4A6384",
"g  c #4A6285",
"h  c #4B6385",
"j  c #486287",
"k  c #4B6286",
"l  c #4B6287",
"z  c #4C6385",
"x  c #4D6385",
"c  c #4A6485",
"v  c #4B6487",
"b  c #4D6485",
"n  c #4D6585",
"m  c #4E6685",
"M  c #4C6486",
"N  c #4D6486",
"B  c #4D6587",
"V  c #4E6587",
"C  c #4E6686",
"Z  c #4E6787",
"A  c #4F6787",
"S  c #4D6886",
"D  c #4C6489",
"F  c #4E6488",
"G  c #4F6488",
"H  c #4A658E",
"J  c #4F678C",
"K  c #4D6A8B",
"L  c #4E688F",
"P  c #4F698F",
"I  c #516781",
"U  c #506686",
"Y  c #516786",
"T  c #506687",
"R  c #506887",
"E  c #556B86",
"W  c #5D6B83",
"Q  c #506788",
"!  c #506789",
"~  c #516789",
"^  c #526689",
"/  c #526789",
"(  c #50668A",
")  c #50678A",
"_  c #51678B",
"`  c #536889",
"'  c #526989",
"]  c #536989",
"[  c #526A89",
"{  c #51688A",
"}  c #536A8A",
"|  c #546A89",
" . c #54698A",
".. c #576C8B",
"X. c #50688C",
"o. c #51698C",
"O. c #536A8C",
"+. c #526B8E",
"@. c #566B8C",
"#. c #556B8E",
"$. c #556C8C",
"%. c #556C8D",
"&. c #576D8C",
"*. c #576C8D",
"=. c #576E8F",
"-. c #5A6F8B",
";. c #5B6F8B",
":. c #586C8C",
">. c #586D8C",
",. c #596D8D",
"<. c #586E8D",
"1. c #596E8D",
"2. c #5A6E8D",
"3. c #586E8E",
"4. c #5D6F8E",
"5. c #5B708C",
"6. c #5B708E",
"7. c #5B708F",
"8. c #5C728E",
"9. c #536C93",
"0. c #5D7090",
"q. c #5C7190",
"w. c #5E7390",
"e. c #5E7391",
"r. c #5F7391",
"t. c #5F7491",
"y. c #5E7591",
"u. c #5E7495",
"i. c #5F7996",
"p. c #706C88",
"a. c #70738D",
"s. c #616F91",
"d. c #607490",
"f. c #607491",
"g. c #607492",
"h. c #607592",
"j. c #617592",
"k. c #607593",
"l. c #617593",
"z. c #627593",
"x. c #627692",
"c. c #637692",
"v. c #637693",
"b. c #647793",
"n. c #607795",
"m. c #637796",
"M. c #647794",
"N. c #647893",
"B. c #627996",
"V. c #667995",
"C. c #677B94",
"Z. c #667A95",
"A. c #657996",
"S. c #677A96",
"D. c #687C96",
"F. c #687D96",
"G. c #697D96",
"H. c #687C97",
"J. c #697C97",
"K. c #6B7C97",
"L. c #6A7E97",
"P. c #637999",
"I. c #627B98",
"U. c #657B99",
"Y. c #697C98",
"T. c #6A7F98",
"R. c #6B7F98",
"E. c #6B7F99",
"W. c #767693",
"Q. c #977B8F",
"!. c #B87581",
"~. c #B87E89",
"^. c #67809D",
"/. c #6B8099",
"(. c #6B809B",
"). c #6C8099",
"_. c #6E8099",
"`. c #6E809A",
"'. c #6F819A",
"]. c #6E829B",
"[. c #6E819D",
"{. c #6C809E",
"}. c #6D809E",
"|. c #6D819E",
" X c #70839C",
".X c #72869F",
"XX c #74869F",
"oX c #6D88A3",
"OX c #7589A7",
"+X c #798DAA",
"@X c #7B90AB",
"#X c #87839B",
"$X c #9F8496",
"%X c #9B879E",
"&X c #E3858C",
"*X c #C098AF",
"=X c #F397A0",
"-X c #F29CAA",
";X c #F3A5B2",
":X c #FBA6B1",
">X c #FAA7B5",
",X c #FFA4B4",
"<X c #F9A8B5",
"1X c None",
/* pixels */
"1X1X1X1X1X1X1X1X1X1X1X1X1X1X1X1X1X1X1X1X1X1X1X1X1X1X1X1X1X1X1X1X1X1X1X1X1X1X1X1X1X1X1X1X1X1X",
"1X1X1X1X1X1X1X1X1X1X1X1X1X1X1X1X1X1X1X1X1X1X1X1X1X1X1X1X1X1X1X1X1X1X1X1X1X1X1X1X1X1X1X1X1X1X",
"1X1X1X1X1X1X1X1X1X1X1X1X1X1X1X1X1X1X1X1X1X1X1X1X1X1X1X1X1X1X1X1X1X1X1X1X1X1X1X1X1X1X1X1X1X1X",
"1X1X1X1X1X1X1X1X1X1X1X1X1X1X1X1X1X1X1X1X1X1X1X1X1X1X1X1X1X1X1X1X1X1X1X1X1X1X1X1X1X1X1X1X1X1X",
"1X1X1X1X1X1X1X1X1X1X1X1X1X1X1X1X1X1X1X1X1X1X1X1X1X1X1X1X1X1X1X1X1X1X1X1X1X1X1X1X1X1X1X1X1X1X",
"1X1X1X1X1X1X1X1X1X1X1X1X1X1X1X1X1X1X1X1X1X1X1X1X1X1X1X1X1X1X1X1X1X1X1X1X1X1X1X1X1X1X1X1X1X1X",
"1X1X1X1X1X1X1X1X1X1X1X1X1X1X1X1X1X1X1X1X1X1X1X1X1X1X1X1X1X1X1X1X1X1X1X1X1X1X1X1X1X1X1X1X1X1X",
"1X1X1X1X1X1X1X1X1X1X1X1X1X1X1X1X1X1X1X1X1X1X1X1X1X1X1X1X1X1X1X1X1X1X1X1X1X1X1X1X1X1X1X1X1X1X",
"1X1X1X1X1X1X1X1X1X1X1X1X1X1X1X1X1X1X1X1X1X1X1X1X1X1X1X1X1X1X1X1X1X1X1X1X1X1X1X1X1X1X1X1X1X1X",
"1X1X1X1X1X1X1X1X3 I.1X1X1X1X1X1X1X1X1X1X1X1X1X1X1X1X1X1X1X1X1X1X1X1X1X1X1X1X1X1X1X1X1X1X1X1X",
"1X1X1X1X1X1X1X1XB.0.1X1X1X1Xd.K.[.Y.1X1X1X1X1X1X1X1X1X1X1X1X1X1X1X1X1X1X1X1X1X1X1X1X1X1X1X1X",
"1X1X1X1X1X1X1X1Xm.*X$X1X0.y.{.(..X@XY.1X1X1X1X1X1X1X1X1X1X1X1X1X1X1X1X1X1X1X1X1X1X1X1X1X1X1X",
"1X1X1X1X1X1X1Xi.#X=X$Xr P.d.v.G.)._.+XD.1X1X1X1X1X1X1X1X1X1X1X1X1X1X1X1X1X1X1X1X1X1X1X1X1X1X",
"1X1X1X1X1X1X^.oX%X:X=XK 0.f.A.T. X'./.}.1X1X1X1X1X1X1X1X1X1X1X1X1X1X1X1X1X1X1X1X1X1X1X1X1X1X",
"1X1X1X1X1X1XXX^.$X=XW.S 4.h.V.L.`.].D.|.j.1X1X1X1X1X1X1X1X1X1X1X1X1X1X1X1X1X1X1X1X1X1X1X1X1X",
"1X1X1X1X1X^.OXI.Q.&Xs.A ;.w.N.H.R.E.Y.Y.U.1X1X1X1X1X1X1X1X1X1X1X1X1X1X1X1X1X1X1X1X1X1X1X1X1X",
"1X1X1X1X1Xz.W i.a.~._ o.3.w.c.S.F.J.C.j.n.>.1X1X1X1X1X1X1X1X1X1X1X1X1X1X1X1X1X1X1X1X1X1X1X1X",
"1X1X1X1Xh i.1X-.2.p.c [ *.8.g.M.Z.Z.b.k.5.u.1X1X1X1X1X1X1X1X1X1X1X1X1X1X1X1X1X1X1X1X1X1X1X1X",
"1X1X1X1X+.I . E / t l ! ] 1.e.j.x.c.l.w.5.=.Y 1X1X1X1X1X1X1X1X1X1X1X1X1X1X1X1X1X1X1X1X1X1X1X",
"1X1X1Xe X.^ #.J u , i B U >.6.w.r.r.t.q.>.%.9.v 1X1X1X1X1X1X1X1X1X1X1X1X1X1X1X1X1X1X1X1X1X1X",
"1X1X1Xe e h x s 2 - q N b } &.7.q.q.7.<.%.Y n v 1X1X1X1X1X1X1X1X1X1X1X1X1X1X1X1X1X1X1X1X1X1X",
"1X1X1X$X7 e r 9 # % 8 z f C $.:.,.>...$.O.n n v >.1X1X1X1X1X1X1X1X1X1X1X1X1X1X1X1X1X1X1X1X1X",
"1X1X1X$X& = : : 8 D M M f a '  .@.| ` ] R v y > W.-X1X1X1X1X1X1X1X1X1X1X1X1X1X1X1X1X1X1X1X1X",
"1X1X1X1XH e 9 P i.8 8 0 d 0 Z Q { ( a ~ B g > @ W.-X-X1X1X1X1X1X1X1X1X1X1X1X1X1X1X1X1X1X1X1X",
"1X1X1X1X1Xh h I.1X1X1Xd j O z V G T 1 m g y @ @ W.-X-X-X1X1X1X1X1X1X1X1X1X1X1X1X1X1X1X1X1X1X",
"1X1X1X1X1X1X1X1X1X1X1X9 $ $ $ p k F < : ) w w 1XW.-X-X-X-X1X1X1X1X1X1X1X1X1X1X1X1X1X1X1X1X1X",
"1X1X1X1X1X1X1X1X1X1X1X$ 1X$ $ + + + o X ; L w 1X1X1X-X-X-X1X1X1X1X1X1X1X1X1X1X1X1X1X1X1X1X1X",
"1X1X1X1X1X1X1X1X1X1X1X8 1X1X1XX o o o o o w y 1X1X1X1X-X-X-X1X1X1X1X1X1X1X1X1X1X1X1X1X5 1X1X",
"1X1X1X1X1X1X1X1X1X1X1X1X1X1X1X1X1X1X1Xo w X + 1X1X1X1X1X-X>X-X1X1X1X1X1X1X1X1X1X1X1X1X1X1X1X",
"1X1X1X1X1X1X1X1X1X1X1X1X1X1X1X1X1X1X1X1Xw X 1X1X1X1X1X1X1X-X<X1X1X1X1X1X1X1X1X1X1X1X4 1X1X1X",
"1X1X1X1X1X1X1X1X1X1X1X1X1X1X1X1X1X1X1X1X1X1X1X1X1X1X1X1X1X1X-X-X1X1X1X1X1X1X1X1X1X1X6 1X1X1X",
"1X1X1X1X1X1X1X1X1X1X1X1X1X1X1X1X1X1X1X1X1X1X1X1X1X1X1X1X1X1X1X,X1X1X1X1X1X1X1X1X1X1X!.1X1X1X",
"1X1X1X1X1X1X1X1X1X1X1X1X1X1X1X1X1X1X1X1X1X1X1X1X1X1X1X1X1X1X1X-X-X1X1X1X1X1X1X1X1X-X1X1X1X1X",
"1X1X1X1X1X1X1X1X1X1X1X1X1X1X1X1X1X1X1X1X1X1X1X1X  1X1X1X1X1X1X1X-X-X1X1X1X1X1X1X1X-X1X1X1X1X",
"1X1X1X1X1X1X1X1X1X1X1X1X1X1X1X1X1X1X1X1X1X1X1X1X* 1X1X1X1X1X1X1X1X-X-X1X1X1X1X1X-X=X1X1X1X1X",
"1X1X1X1X1X1X1X1X1X1X1X1X1X1X1X1X1X1X1X1X1X1X1X1X1X1X1X1X1X1X1X1X1X1X-X-X-X-X-X-X-X1X1X1X1X1X",
"1X1X1X1X1X1X1X1X1X1X1X1X1X1X1X1X1X1X1X1X1X1X1X1X1X1X1X1X1X1X1X1X1X1X1X-X-X;X-X-X=X1X1X1X1X1X",
"1X1X1X1X1X1X1X1X1X1X1X1X1X1X1X1X1X1X1X1X1X1X1X1X1X1X1X1X1X1X1X1X1X1X1X1X=X=X=X=X1X1X1X1X1X1X",
"1X1X1X1X1X1X1X1X1X1X1X1X1X1X1X1X1X1X1X1X1X1X1X1X1X1X1X1X1X1X1X1X1X1X1X1X1X1X1X1X1X1X1X1X1X1X",
"1X1X1X1X1X1X1X1X1X1X1X1X1X1X1X1X1X1X1X1X1X1X1X1X1X1X1X1X1X1X1X1X1X1X1X1X1X1X1X1X1X1X1X1X1X1X",
"1X1X1X1X1X1X1X1X1X1X1X1X1X1X1X1X1X1X1X1X1X1X1X1X1X1X1X1X1X1X1X1X1X1X1X1X1X1X1X1X1X1X1X1X1X1X"
};
