/* XPM */
static char *result[] = {
/* columns rows colors chars-per-pixel */
"45 48 221 2 ",
"   c #3B475B",
".  c #354A6A",
"X  c #374D73",
"o  c #3E557B",
"O  c #3D577C",
"+  c #3F567C",
"@  c #3F5C7F",
"#  c #545A6C",
"$  c #465771",
"%  c #41587D",
"&  c #42597E",
"*  c #43597E",
"=  c #435A7E",
"-  c #425A7F",
";  c #445B7E",
":  c #445B7F",
">  c #737476",
",  c #757577",
"<  c #757678",
"1  c #757779",
"2  c #76797A",
"3  c #797A79",
"4  c #946A72",
"5  c #8B7379",
"6  c #A16471",
"7  c #435B82",
"8  c #445D81",
"9  c #475E80",
"0  c #475F80",
"q  c #475E81",
"w  c #465D82",
"e  c #475D82",
"r  c #445F83",
"t  c #475E82",
"y  c #455D84",
"u  c #495F85",
"i  c #446083",
"p  c #476185",
"a  c #456387",
"s  c #486181",
"d  c #4A6181",
"f  c #496182",
"g  c #496083",
"h  c #496183",
"j  c #4C6382",
"k  c #4C6383",
"l  c #4D6383",
"z  c #486084",
"x  c #486185",
"c  c #4B6285",
"v  c #4C6385",
"b  c #4C6386",
"n  c #4F6484",
"m  c #4F6584",
"M  c #4D6588",
"N  c #4F678E",
"B  c #526785",
"V  c #516787",
"C  c #526686",
"Z  c #556486",
"A  c #506886",
"S  c #5A6688",
"D  c #506888",
"F  c #536888",
"G  c #526889",
"H  c #536989",
"J  c #52688A",
"K  c #556B89",
"L  c #55698B",
"P  c #546A8B",
"I  c #566B8A",
"U  c #556C8B",
"Y  c #566C8A",
"T  c #576C8B",
"R  c #516A8C",
"E  c #506A8E",
"W  c #546B8E",
"Q  c #576C8C",
"!  c #586B89",
"~  c #586B8A",
"^  c #586C8A",
"/  c #596C8A",
"(  c #586D8B",
")  c #5A6E8B",
"_  c #586D8D",
"`  c #5A6E8D",
"'  c #586D8E",
"]  c #586F8F",
"[  c #596F8F",
"{  c #5B6F8E",
"}  c #5A6E8F",
"|  c #5D6D8C",
" . c #5B708C",
".. c #5A708F",
"X. c #5B708F",
"o. c #5C708E",
"O. c #5C718E",
"+. c #5E718F",
"@. c #5F728F",
"#. c #5C7090",
"$. c #5D7191",
"%. c #5E7290",
"&. c #5E7390",
"*. c #5E7291",
"=. c #5E7391",
"-. c #5F7492",
";. c #5F7493",
":. c #61758F",
">. c #78748D",
",. c #607390",
"<. c #607491",
"1. c #627591",
"2. c #627690",
"3. c #637691",
"4. c #607592",
"5. c #607493",
"6. c #617593",
"7. c #627592",
"8. c #627593",
"9. c #637692",
"0. c #627693",
"q. c #617694",
"w. c #607795",
"e. c #627694",
"r. c #637694",
"t. c #657893",
"y. c #647894",
"u. c #657894",
"i. c #657994",
"p. c #657895",
"a. c #667A94",
"s. c #677B94",
"d. c #667A95",
"f. c #677A95",
"g. c #647996",
"h. c #677B96",
"j. c #697891",
"k. c #687C96",
"l. c #687C97",
"z. c #697D97",
"x. c #6B7E97",
"c. c #617798",
"v. c #637999",
"b. c #647998",
"n. c #667B98",
"m. c #607C9C",
"M. c #697D98",
"N. c #6A7E98",
"B. c #6A7E99",
"V. c #6C7F98",
"C. c #6C7F9D",
"Z. c #A07786",
"A. c #A37980",
"S. c #AB7B8B",
"D. c #B57682",
"F. c #B17983",
"G. c #CB7F8D",
"H. c #D17E8F",
"J. c #65819E",
"K. c #6D8099",
"L. c #6D819A",
"P. c #6C809B",
"I. c #6D819B",
"U. c #6E809A",
"Y. c #6F809A",
"T. c #6E819A",
"R. c #6D829B",
"E. c #6D829D",
"W. c #6F829C",
"Q. c #6F829E",
"!. c #6F849C",
"~. c #6C849F",
"^. c #70819B",
"/. c #71829C",
"(. c #72829C",
"). c #72839D",
"_. c #70849D",
"`. c #71849E",
"'. c #72859E",
"]. c #73849F",
"[. c #6B81A2",
"{. c #6C82A0",
"}. c #6B84A1",
"|. c #6F84A2",
" X c #7587A0",
".X c #788CA7",
"XX c #7488A8",
"oX c #808183",
"OX c #8E8F91",
"+X c #88839C",
"@X c #909194",
"#X c #979899",
"$X c #B98491",
"%X c #B38FA6",
"&X c #AF9BA0",
"*X c #BE92A3",
"=X c #DC909B",
"-X c #D79DAC",
";X c #E696A7",
":X c #EC9CA5",
">X c #ED9BA8",
",X c #E89CA9",
"<X c #EA9CA9",
"1X c #EF9DAA",
"2X c #F09AAA",
"3X c #F0A2AD",
"4X c #F0A1AF",
"5X c #F8A0AE",
"6X c #F2A2B0",
"7X c #F3A4B1",
"8X c #F6A4B2",
"9X c #FAA7B4",
"0X c #FDA6B6",
"qX c #F8A8B5",
"wX c #FBA8B8",
"eX c #FDA9B9",
"rX c #FFA8B9",
"tX c #FFAAB8",
"yX c #FFADBB",
"uX c #FFAFBF",
"iX c None",
/* pixels */
"iXiXiXiXiXiXiXiXiXiXiXiXiXiXiXiXiXiXiXiXiXiXiXiXiXiXiXiXiXiXiXiXiXiXiXiXiXiXiXiXiXiXiXiXiX",
"iXiXiXiXiXiXiXiXiXiXiXiXiXiXiXiXiXiXiXiXiXiXiXiXiXiXiXiXiXiXiXiXiXiXiXiXiXiXiXiXiXiXiXiXiX",
"iXiXiXiXiXiXiXiXiXiXiXiXiXiXiXiXiXiXiXiXiXiXiXiXiXiXiXiXiXiXiXiXiXiXiXiXiXiXiXiXiXiXiXiXiX",
"iXiXiXiXiXiXiXiXiXiXiXiXiXiXiXiXiXiXiXiXiXiXiXiXiXiXiXiXiXiXiXiXiXiXiXiXiXiXiXiXiXiXiXiXiX",
"iXiXiXiXiXiXiXiXiXiXiXiXiXiXiXiXiXiXiXiXiXiXiXiXiXiXiXiXiXiXiXiXiXiXiXiXiXiXiXiXiXiXiXiXiX",
"iXiXiXiXiXiXiXiXiXiXiXiXiXiXiXiXiXiXiXiXiXiXiXiXiXiXiXiXiXiXiXiXiXiXiXiXiXiXiXiXiXiXiXiXiX",
"iXiXiXiXiXiXiXiXiXiXiXiXiXiXiXiXiXiXiXiXiXiXiXiXiXiXiXiXiXiXiXiXiXiXiXiXiXiXiXiXiXiXiXiXiX",
"iXiXiXiXiXiXiXiXiXiXiXiXiXiXiXiXiXiXiXiXiXiXiXiXiXiXiXiXiXiXiXiXiXiXiXiXiXiXiXiXiXiXiXiXiX",
"iXiXiXiXiXiXiXiXiXiXiXiXiXiXiXiXiXiXiXiXiXiXiXiXiXiXiXiXiXiXiXiXiXiXiXiXiXiXiXiXiXiXiXiXiX",
"iXiXiXiXiXiXiXiXiXiXiXiXiXiXiXiXiXiXiXiXiXiXiXiXiXiXiXiXiXiXiXiXiXiXiXiXiXiXiXiXiXiXiXiXiX",
"iXiXiXiXiXiXiXiXiXiXiXiXiXiX@.p.C.n.t.iXiXiXiXiXiXiXiXiXiXiXiXiXiXiXiXiXiXiXiXiXiXiXiXiXiX",
"iXiXiXiXiXiXiXiXc.iXiXiXiX@.XX!._.E.|.%.iXiXiXiXiXiXiXiXiXiXiXiXiXiXiXiXiXiXiXiXiXiXiXiXiX",
"iXiXiXiXiXiXiX@.[.^.iXiX{ ~.`.^.U.'.L.{.t.iXiXiXiXiXiXiXiXiXiXiXiXiXiXiXiXiXiXiXiXiXiXiXiX",
"iXiXiXiXiXiXiXA +X-XiXiXv.s.W.].Y.V.I.M.b.iXiXiXiXiXiXiXiXiXiXiXiXiXiXiXiXiXiXiXiXiXiXiXiX",
"iXiXiXiXiXiXiXA %X1X| A @.N.N. X/.K.z.t.g.O.iXiXiXiXiXiXiXiXiXiXiXiXiXiXiXiXiXiXiXiXiXiXiX",
"iXiXiXiXiXiXiXJ.*X<X| A { z.a.).(.x.k.u.0.0.iXiXiXiXiXiXiXiXiXiXiXiXiXiXiXiXiXiXiXiX@XiXiX",
"iXiXiXiXiXiXj.}.$X=XL G ) d.M.K.T.k.h.0.%.O.V iXiXiXiXiXiXiXiXiXiXiXiXiXiXiXiXiXiXiXiXiXiX",
"iXiXiXiXiXiX.Xm.S.G.M U +.@.B.R.B.i.y.4.O.Y O.V iXiXiXiXiXiXiXiXiXiXiXiXiXiXiXiXiXiXiXiXiX",
"iXiXiXiXiX%.Q.w.>.Z.a ^ 6.) f.P.p.1.<.&. .Y V V iXiXiXiXiXiXiXiXiXiXiXiXiXiXiXiXiXiX> iXiX",
"iXiXiXiXiX%.# %.T S p F 5.O.9.l.:.2.@.o.` K V i ^.:X;XiXiXiXiXiXiXiXiXiXiXiXiXiXiXiXiXiXiX",
"iXiXiXiXm.%.iX! D ; z l X.q.p.i.3.l.7./ #.Q j i %.4XqX;XiXiXiXiXiXiXiXiXiXiXiXiXiXiXiXiXiX",
"iXiXiXiXW B $ R x @ t d H ;.e.,.r.p.8.~ *.' h r Z ;X:X6X,XiXiXiXiXiXiXiXiXiXiXiXiXiXoXiXiX",
"iXiXiXiXE B W c 7 O : f 0 ] #.) r.5.%.o.$.P s b Z >X>X>X3X>XiXiXiXiXiXiXiXiXiXiXiXiXiXiXiX",
"iXiXiXX g g u w o = % t * v C ( -.I T =.[ b b b iXiXiX>X2X8X>XiXiXiXiXiXiXiXiXiXiXiXiXiXiX",
"iXiXiX^.y y 8 + - q X e & 9 k _ } n m ..J b r iXiXiXiXiX>X>X9X>XiXiXiXiXiXiXiXiXiXiXiXiXiX",
"iXiXiX$Xg y y y W q e N & & k _ J n m J J J b iXiXiXiXiXiX>X5X>XiXiXiXiXiXiXiXiXiXiX< iXiX",
"iXiXiXiXy y g W iXW q iXX & & J J b P n r b b r iXiXiXiXiXiX>XtX>XiXiXiXiXiXiXiXiXiXoXiXiX",
"iXiXiXiXg g _ iXiXW iXiXiXiXX & s & k iXiXX b b iXiXiXiXiXiXiX>X7XiXiXiXiXiXiXiXiXiXiXiXiX",
"iXiXiXiXiXiXiXiXiXiXiXiXiXiXiXiXiXiXiXiXiXiXiX. iXiXiXiXiXiXiXiXyX;XiXiXiXiXiXiXiXiXiXiXiX",
"iXiXiXiXiXiXiXiXiXiXiXiXiXiXiXiXiXiXiXiXiXiXiXiXiXiXiXiXiXiXiXiX>X>XiXiXiXiXiXiXiXiXiXiXiX",
"iXiXiXiXiXiXiXiXiXiXiXiXiXiXiXiXiXiXiXiXiXiXiXiXiXiXiXiXiXiXiXiXiXrX>XiXiXiXiXiXiXiXiXiXiX",
"iXiXiXiXiXiXiXiXiXiXiXiXiXiXiXiXiXiXiXiXiXiXiXiX  iXiXiXiXiXiXiXiX>XwXiXiXiXiXiXiXiXiXiXiX",
"iXiXiXiXiXiXiXiXiXiXiXiXiXiXiXiXiXiXiXiXiXiXiXiXiXiXiXiXiXiXiXiXiXiX0X>XiXiXiXiXiXiXiXiXiX",
"iXiXiXiXiXiXiXiXiXiXiXiXiXiXiXiXiXiXiXiXiXiXiXiXiXiXiXiXiXiXiXiXiXiX>XuX;XiXiXiXiXiXiXiXiX",
"iXiXiXiXiXiXiXiXiXiXiXiXiXiXiXiXiXiXiXiXiXiXiXiXiXiXiXiXiXiXiXiXiXiXiX>XyXiXiXiXiXiX1 iXiX",
"iXiXiXiXiXiXiXiXiXiXiXiXiXiXiXiXiXiXiXiXiXiXiXiXiXiXiXiXiXiXiXiXiXiXiXiX>XeXiXiXiXiXOX, iX",
"iXiXiXiXiXiXiXiXiXiXiXiXiXiXiXiXiXiXiXiXiXiXiXiXiXiXiXiXiXiXiXiXiXiXiXiXiX>X>XF.iXiXiXiXiX",
"iXiXiXiXiXiXiXiXiXiXiXiXiXiXiXiXiXiXiXiXiXiXiXiXiXiXiXiXiXiXiXiXiXiXiXiXiXiXiX6 H.A.5 4 iX",
"iXiXiXiXiXiXiXiXiXiXiXiXiXiXiXiXiXiXiXiXiXiXiXiXiXiXiXiXiXiXiXiXiXiXiXiXiXiXiXiXiXiX&XD.iX",
"iXiXiXiXiXiXiXiXiXiXiXiXiXiXiXiXiXiXiXiXiXiXiXiXiXiXiXiXiXiXiXiXiXiXiXiXiXiXiXiXiXiXiXiXiX",
"iXiXiXiXiXiXiXiXiXiXiXiXiXiXiXiXiXiXiXiXiXiXiXiXiXiXiXiXiXiXiXiXiXiXiXiXiXiXiXiXiXiX2 iXiX",
"iXiXiXiXiXiXiXiXiXiXiXiXiXiXiXiXiXiXiXiXiXiXiXiXiXiXiXiXiXiXiXiXiXiXiXiXiXiXiXiXiXiXiXiXiX",
"iXiXiXiXiXiXiXiXiXiXiXiXiXiXiXiXiXiXiXiXiXiXiXiXiXiXiXiXiXiXiXiXiXiXiXiXiXiXiXiXiXiX3 iXiX",
"iXiXiXiXiXiXiXiXiXiXiXiXiXiXiXiXiXiXiXiXiXiXiXiXiXiXiXiXiXiXiXiXiXiXiXiXiXiXiXiXiXiXiXiXiX",
"iXiXiXiXiXiXiXiXiXiXiXiXiXiXiXiXiXiXiXiXiXiXiXiXiXiXiXiXiXiXiXiXiXiXiXiXiXiXiXiXiXiX#XiXiX",
"iXiXiXiXiXiXiXiXiXiXiXiXiXiXiXiXiXiXiXiXiXiXiXiXiXiXiXiXiXiXiXiXiXiXiXiXiXiXiXiXiXiXiXiXiX",
"iXiXiXiXiXiXiXiXiXiXiXiXiXiXiXiXiXiXiXiXiXiXiXiXiXiXiXiXiXiXiXiXiXiXiXiXiXiXiXiXiXiXiXiXiX",
"iXiXiXiXiXiXiXiXiXiXiXiXiXiXiXiXiXiXiXiXiXiXiXiXiXiXiXiXiXiXiXiXiXiXiXiXiXiXiXiXiXiXiXiXiX"
};
