/* XPM */
static char *result[] = {
/* columns rows colors chars-per-pixel */
"48 48 218 2 ",
"   c #0B323E",
".  c #07313D",
"X  c #16343E",
"o  c #744737",
"O  c #714C31",
"+  c #776536",
"@  c #0C3845",
"#  c #153C47",
"$  c #443C47",
"%  c #16424E",
"&  c #1E4955",
"*  c #1B4551",
"=  c #26434C",
"-  c #204A56",
";  c #234D5A",
":  c #2A4852",
">  c #26515E",
",  c #384F56",
"<  c #235666",
"1  c #2C5361",
"2  c #2F5C6D",
"3  c #285A68",
"4  c #345B6A",
"5  c #395865",
"6  c #356475",
"7  c #3B6574",
"8  c #356B7C",
"9  c #3A6B7C",
"0  c #3C6578",
"q  c #316271",
"w  c #444245",
"e  c #6F5951",
"r  c #5A685B",
"t  c #75635C",
"y  c #6C6849",
"u  c #495E6A",
"i  c #555B64",
"p  c #48606C",
"a  c #496A76",
"s  c #5A6B73",
"d  c #47717F",
"f  c #5A757E",
"g  c #5B6467",
"h  c #666467",
"j  c #796C67",
"k  c #62737B",
"l  c #6A767B",
"z  c #75777B",
"x  c #617562",
"c  c #925E0C",
"v  c #905D11",
"b  c #9A650A",
"n  c #8B631C",
"m  c #906C1B",
"M  c #A66E08",
"N  c #AE750F",
"B  c #BA7600",
"V  c #BA7B03",
"C  c #B37A0A",
"Z  c #B87D08",
"A  c #A36C11",
"S  c #B17811",
"D  c #865032",
"F  c #A65D3C",
"G  c #8A6929",
"H  c #A96936",
"J  c #B0613F",
"K  c #C27A00",
"L  c #8D5A47",
"P  c #A15E43",
"I  c #856455",
"U  c #976954",
"Y  c #97765F",
"T  c #B86C48",
"R  c #B5714F",
"E  c #BE734C",
"W  c #B97655",
"Q  c #A56C50",
"!  c #997464",
"~  c #8F7B73",
"^  c #AF7D64",
"/  c #C17A54",
"(  c #C47C5A",
")  c #C97D58",
"_  c #C3724C",
"`  c #C97F60",
"'  c #BE820D",
"]  c #BE8006",
"[  c #C2840B",
"{  c #CC8E0A",
"}  c #C78707",
"|  c #DB9A0A",
" . c #D89506",
".. c #C88E13",
"X. c #CD9213",
"o. c #D99A16",
"O. c #CF8F0B",
"+. c #E49F07",
"@. c #E39F0A",
"#. c #E6A104",
"$. c #EAA405",
"%. c #E4A10B",
"&. c #ECA606",
"*. c #F2AA03",
"=. c #FDB502",
"-. c #FFBC01",
";. c #E3A211",
":. c #E2A319",
">. c #CC9A2E",
",. c #FFC000",
"<. c #BA8F43",
"1. c #B5836A",
"2. c #B18871",
"3. c #AE8F75",
"4. c #CC825C",
"5. c #C5815F",
"6. c #D4855C",
"7. c #D9865B",
"8. c #C69F4C",
"9. c #E28B5C",
"0. c #C7A254",
"q. c #C38768",
"w. c #D88D65",
"e. c #C89278",
"r. c #D79572",
"t. c #E28E61",
"y. c #EB9466",
"u. c #E3956B",
"i. c #EB9769",
"p. c #E7996D",
"a. c #EC996C",
"s. c #F39C6C",
"d. c #F69865",
"f. c #EA9B71",
"g. c #F39E71",
"h. c #CCAE6D",
"j. c #356F83",
"k. c #3B6B83",
"l. c #357184",
"z. c #3D7285",
"x. c #3B738B",
"c. c #3C798E",
"v. c #3C7A94",
"b. c #387998",
"n. c #3C7FA0",
"m. c #476E83",
"M. c #43758A",
"N. c #447B8B",
"B. c #4A7889",
"V. c #567886",
"C. c #437C92",
"Z. c #667C83",
"A. c #797C80",
"S. c #3D819E",
"D. c #3C86A4",
"F. c #3C86AA",
"G. c #3D89AD",
"H. c #3A8FB1",
"J. c #4A8394",
"K. c #43839D",
"L. c #47879C",
"P. c #5B8595",
"I. c #788488",
"U. c #628D9E",
"Y. c #788A92",
"T. c #6C909A",
"R. c #4486A1",
"E. c #458AA5",
"W. c #458CA9",
"Q. c #498DA9",
"!. c #488AA5",
"~. c #548DA3",
"^. c #4B91AB",
"/. c #4792AF",
"(. c #5493A5",
"). c #5596AA",
"_. c #5897AB",
"`. c #4B9BBC",
"'. c #4794B5",
"]. c #5B9BB4",
"[. c #549BBB",
"{. c #5699B5",
"}. c #6C97AB",
"|. c #7798A7",
" X c #6297B4",
".X c #78A6BA",
"XX c #6AA2BB",
"oX c #489FC4",
"OX c #4CA7CC",
"+X c #53A2C3",
"@X c #58A7C8",
"#X c #4AAAD0",
"$X c #67B5CD",
"%X c #6CBAD2",
"&X c #65B9D5",
"*X c #6BB2CA",
"=X c #6ECFF4",
"-X c #868E93",
";X c #93989B",
":X c #8F8E8C",
">X c #AD9785",
",X c #B79B91",
"<X c #BAA79D",
"1X c #939DA3",
"2X c #849DAA",
"3X c #98ABB3",
"4X c #94A2AA",
"5X c #A2A6A9",
"6X c #A2B3BE",
"7X c #C79A87",
"8X c #C8A88F",
"9X c #CEB7B3",
"0X c #D5C4B9",
"qX c #88ADC0",
"wX c #CFD4D5",
"eX c #D0CBC8",
"rX c #F2EDED",
"tX c None",
/* pixels */
"tXtXtXtXtXtXtXtXtXtXtXtXtXtXtXtXtXtXtXtXtXtXtXtXtXtXtXtXtXtXtXtXtXtXtXtXtXtXtXtXtXtXtXtXtXtXtXtX",
"tXtXtXtXtXtXtXtXtXtXtXtXtXtXtXtXtXtXtXtXtXtXtXtXtXtXtXtXtXtXtXtXtXtXtXtXtXtXtXtXtXtXtXtXtXtXtXtX",
"tXtXtXtXtXtXtXtXtXtXtXtXtXtXtXtXtXtXtXtXtXtXtXtXtXtXtXtXtXtXtXtXtXtXtXtXtXtXtXtXtXtXtXtXtXtXtXtX",
"tXtXtXtXtXtXtXtXtXtXtXtXtXtXtXtXtXtXtXtXtXtXtXtXtXtXtXtXtXtXtXtXtXtXtXtXtXz tXtXtXtXtXtXtXtXtXtX",
"tXtXtXtXtXtXtXtXtXtXtXtXtXtXtXtXtXtXtXtXtXtXtXtXtXtXtXtXtX].#X+X[.{.[.4 k.C.tXtXtXtXtXtXtXtXtXtX",
"tXtXtXtXtXtXtXtXtXtXtXtXtXtXtXtXtXtXtXtXtXtXtXtXtXtXtXtXtXj.tXtXtXtXtXtXA.P._.`.tXtXtXtXtXtXtXtX",
"tXtXtXtXtXtXtXtXtXtXtXtXtXtXtXtXtXtXtXtXtXtXtXtXtXtXtXtXW.Z.tXtXtXtXtXtXf tXtXtX+X`.:XtXtXtXtXtX",
"tXtXtXtXtXtXtXtXtXtXtXtXtXtXtXtXtXtXtXtXtXtXtXtXtXtXtXXXx.tXtXtXtXtXtXY.tXtXtXtXtX@XOXtXtXtXtXtX",
"tXtXtXtXtXtXtXtXtXtXtXtXtXtXtXtXtXtXtXtXtXtXtXtXtXtXtXb.;XtXtXtXtXtXtXV.tXtXtXtXtXh OXtXtXtXtXtX",
"tXtXtXtXtXtXtXtXtXtXtXtXtXtXtXtXtXtXtXtXtXtXtXtXtXtX{.V.tXtXtXtXtXtXT.tXtXtXtXtXtXm._.tXtXtXtXtX",
"tXtXtXtXtXtXtXtXtXtXtXtXtXtXtXtXtXtXtXtXtXtXtXtXtXtXx.tXtXtXtXtXtXtX|.tXtXtXtXtXd /.2XtXtXtXtXtX",
"tXtXtXtXtXtXtXtXtXtXtXtXtXtXtXtXtXtXtXtXtXtXtXtXtXQ.Y.tXtXtXtXtXtXZ.tXtXtXtXtX1XC.].tXtXtXtXtXtX",
"tXtXtXtXtXtXtXtXtXtXtXtXtXtXtXtXtXtXtXtXtXtXtXtXqXB.tXtXtXtXtXtXz 4XtXtXtXtXtXB.oX6XtXtXtXtXtXtX",
"tXtXtXtXtXtXtXtXtXtXtXtXtXtXtXtXtXtXtXtXtXtXtXtXC.1XtXtXtXtXtX~ $ ,XeXtXtXtX3XR..XtXtXtXtXtXtXtX",
"tXtXtXtXtXtXtXtXtXtXtXtXtXtXtXtXtXtXtXtXtXtXtX2XB.tXtXtXtX<X7.t ^ y.4.1.9XwXJ.+XwXtXtXtXtXtXtXtX",
"tXtXtXtXtXtXtXtXtXtXtXtXtXtXtXtXtXtXtXtXtXtXtXb.5XtXtXeXe.9.q.h y.a.w.) 7.g '.}.rXtXtXtXtXtXtXtX",
"tXtXtXtXtXtXtXtXtXtXtXtXtXtXtXtXtXtXtXtXtXtX|.B.tXtX8X6.i.s.t 1.s.6./ a.1.C.+XU e.,XtXtXtXtXtXtX",
"tXtXtXtXtXtXtXtXtXtXtXtXtX8.| | >.h.eXtXtXtXb.3XeX( t.p.g.^ I s.q./ p.y.k `.A.d.R F e eXtXtXtXtX",
"tXtXtXtXtXtXtXtXtXtXtX0.#.=.,.-.=.=.+.>.8X].a ! E R W ( 7.t w.w.( u.d.2.K.`.( R R 1.z.tXtXtXtXtX",
"tXtXtXtXtXtXtXtXtXh.| =.-.-.=.=.=.=.-.=.*.n $ F T / _ E U t 4.4.u.f.i.Z.OX3.P W W ).v.tXtXtXtXtX",
"tXtXtXtXtXtXtXh.@.=.-.=.=.=.=.=.=.=.=.=.,.,.+ d V.e ! T o Q ( W ( 6.^ /. XD ( ( P.@X: tXtXtXtXtX",
"tXtXtXtXtX,XX.*.=.-.-.,.,.=.-.=.-.=.=.=.=.,. .!.@X+XOXa u D T / W T V.OXe _ ) P.&X1 5XtXtXtXtXtX",
"tXtXtXtXtX<XV X.S M N ]  .%.&.=.=.=.-.-.-.-.-.x b.&X!.=X@X#X}.L _ o R.V.F ` P.&Xq ;XtXtXtXtXtXtX",
"tXtXtXtXtXtXe. .&.| { { [ [ } ..X.' ' O.{ ..{ O i k.'.XX*X=X@X`.V.p +XL ( V.&Xq -XtXtXtXtXtXtXtX",
"tXtXtXtXtXtXtX8.#.%.' ' $.$.%.:.:.;.o.o.o.X.X.H w.W ~ V.oX'. X=X[.`._.P P.&X8 -XtXtXtXtXtXtXtXtX",
"tXtXtXtXtXtXtXtX] C C c [ $.@.;.@.%.;.%.:.&.&.G 7Xg.s.w.^ h m.'.M.b.u k &Xz.-XtXtXtXtXtXtXtXtXtX",
"tXtXtXtXtXtXtX0XD b N N | #.%.%.%.+.+.$.$.@.} + n.;Xu.y.a.y.` h a 5 a %Xl.tXtXtXtXtXtXtXtXtXtXtX",
"tXtXtXtXtXtXe.t.( b ' @.$.&.Z v O.$.@.A { O.K y W.n.U.>Xp.y.p.s.T s %Xl.tXtXtXtXtXtXtXtXtXtXtXtX",
"tXtXtXtX8X6.y.p.f.H B ' } +.[ N @.$.| A Z C B r W.L.D.F.U.>Xg.` Z.$Xl.tXtXtXtXtXtXtXtXtXtXtXtXtX",
"tXtXj R y.s.u.u.f.` b B B V [ } ' Z C Z C Z M M.W.R.R.R.n.H.z z $Xl.tXtXtXtXtXtXtXtXtXtXtXtXtXtX",
"tXtX= = t ( a.p.u.i.! r + n b M B B V V Z K + F.R.R.R.R.^.7 7 *XJ.tXtXtXtXtXtXtXtXtXtXtXtXtXtXtX",
"tXtXI.% l.f I 7.g.r.(.G.F.n.M.a y + n b b m C.W.R.R.R.W.4 5 %XL.tXtXtXtXtXtXtXtXtXtXtXtXtXtXtXtX",
"tXtXtX# ; L.L.i U N.S.!.L.R.W.G.G.F.b.c.8 x.W.R.R.R.Q.3 4 %X(.1 tXtXtXtXtXtXtXtXtXtXtXtXtXtXtXtX",
"tXtXtX. > > (._.J.z.7 8 K.Q.R.L.R.L.!.Q.W.E.R.R.R.Q.2 4 %X{.> tXtXtXtXtXtXtXtXtXtXtXtXtXtXtXtXtX",
"tXtXtXs @ # 1 J._.).(.N.4 6 K.W.W.R.R.R.K.R.R.K.W.6 4 %X].1 tXtXtXtXtXtXtXtXtXtXtXtXtXtXtXtXtXtX",
"tXtXtXtXtXu @ & 9 (.(.).(.d > 4 x.R.W.R.R.R.R.W.k.a %X_.< tXtXtXtXtXtXtXtXtXtXtXtXtXtXtXtXtXtXtX",
"tXtXtXtXtXtXtX:   3 J.(.(.).(.N.q 7 z.L.W.R.Q.z.M.*X!.1 tXtXtXtXtXtXtXtXtXtXtXtXtXtXtXtXtXtXtXtX",
"tXtXtXtXtXtXtXtXl   % 6 J.(.(.(.).(.N.0 l.R.z.m._.z.3 tXtXtXtXtXtXtXtXtXtXtXtXtXtXtXtXtXtXtXtXtX",
"tXtXtXtXtXtXtXtXtXtX, . & 6 J.(.(.)._._.N.: 1 z.8 3 f tXtXtXtXtXtXtXtXtXtXtXtXtXtXtXtXtXtXtXtXtX",
"tXtXtXtXtXtXtXtXtXtXtXY.X % > q z.J.J.N.9 % 8 9 8 p tXtXtXtXtXtXtXtXtXtXtXtXtXtXtXtXtXtXtXtXtXtX",
"tXtXtXtXtXtXtXtXtXtXtXtXtX,   & & - & * * # 6 9 4 tXtXtXtXtXtXtXtXtXtXtXtXtXtXtXtXtXtXtXtXtXtXtX",
"tXtXtXtXtXtXtXtXtXtXtXtXtXtXtX: % & ; - - = 9 3 tXtXtXtXtXtXtXtXtXtXtXtXtXtXtXtXtXtXtXtXtXtXtXtX",
"tXtXtXtXtXtXtXtXtXtXtXtXtXtXtXtXtX: % > - = < tXtXtXtXtXtXtXtXtXtXtXtXtXtXtXtXtXtXtXtXtXtXtXtXtX",
"tXtXtXtXtXtXtXtXtXtXtXtXtXtXtXtXtXtXs   -   V.tXtXtXtXtXtXtXtXtXtXtXtXtXtXtXtXtXtXtXtXtXtXtXtXtX",
"tXtXtXtXtXtXtXtXtXtXtXtXtXtXtXtXtXtXtXtX= X tXtXtXtXtXtXtXtXtXtXtXtXtXtXtXtXtXtXtXtXtXtXtXtXtXtX",
"tXtXtXtXtXtXtXtXtXtXtXtXtXtXtXtXtXtXtXtXtXtXtXtXtXtXtXtXtXtXtXtXtXtXtXtXtXtXtXtXtXtXtXtXtXtXtXtX",
"tXtXtXtXtXtXtXtXtXtXtXtXtXtXtXtXtXtXtXtXtXtXtXtXtXtXtXtXtXtXtXtXtXtXtXtXtXtXtXtXtXtXtXtXtXtXtXtX",
"tXtXtXtXtXtXtXtXtXtXtXtXtXtXtXtXtXtXtXtXtXtXtXtXtXtXtXtXtXtXtXtXtXtXtXtXtXtXtXtXtXtXtXtXtXtXtXtX"
};
