/* XPM */
static char *result[] = {
/* columns rows colors chars-per-pixel */
"48 48 220 2 ",
"   c #1E0F0F",
".  c #2C0D0E",
"X  c #230E0F",
"o  c #340D0E",
"O  c #3B0C0C",
"+  c #2B0F11",
"@  c #260F11",
"#  c #330F11",
"$  c #241212",
"%  c #2C1112",
"&  c #2C1A1A",
"*  c #2E1718",
"=  c #341314",
"-  c #3C1414",
";  c #3E1719",
":  c #341B1B",
">  c #3B1B1B",
",  c #331818",
"<  c #3B201F",
"1  c #3C1F20",
"2  c #3D2322",
"3  c #3A2827",
"4  c #3E3330",
"5  c #460F10",
"6  c #431415",
"7  c #4C1515",
"8  c #421917",
"9  c #441618",
"0  c #4A1619",
"q  c #431B1B",
"w  c #4C1C1C",
"e  c #531516",
"r  c #531718",
"t  c #541C1C",
"y  c #5B1C1B",
"u  c #5B1716",
"i  c #631C1A",
"p  c #681B19",
"a  c #721E1D",
"s  c #44211F",
"d  c #4F201F",
"f  c #5D211F",
"g  c #53201E",
"h  c #67211E",
"j  c #431F20",
"k  c #4C1E20",
"l  c #561F22",
"z  c #442322",
"x  c #4C2424",
"c  c #4A2927",
"v  c #452B2A",
"b  c #4C2B2B",
"n  c #472827",
"m  c #532423",
"M  c #5C2323",
"N  c #572927",
"B  c #5C2926",
"V  c #532C2B",
"C  c #5A2C2B",
"Z  c #572728",
"A  c #47312F",
"S  c #4B312D",
"D  c #54312E",
"F  c #5C312F",
"G  c #572E30",
"H  c #443332",
"J  c #4D3432",
"K  c #4A3835",
"L  c #453F3D",
"P  c #4C3C3B",
"I  c #433A36",
"U  c #543432",
"Y  c #5C3433",
"T  c #543936",
"R  c #5C3936",
"E  c #543C3A",
"W  c #5B3D3A",
"Q  c #553738",
"!  c #642423",
"~  c #6B2424",
"^  c #652826",
"/  c #6B2927",
"(  c #642D2B",
")  c #6C2C2B",
"_  c #732A26",
"`  c #792926",
"'  c #722D2B",
"]  c #7B2D2A",
"[  c #762624",
"{  c #64312F",
"}  c #69312E",
"|  c #73322F",
" . c #7B322F",
".. c #633433",
"X. c #6C3432",
"o. c #633936",
"O. c #6C3936",
"+. c #653D3A",
"@. c #6B3D3B",
"#. c #733533",
"$. c #7B3632",
"%. c #723A35",
"&. c #7B3936",
"*. c #743D3A",
"=. c #7B3E3A",
"-. c #4F403D",
";. c #54403D",
":. c #5D423D",
">. c #63423E",
",. c #6B413E",
"<. c #73413E",
"1. c #7B433D",
"2. c #554542",
"3. c #5C4542",
"4. c #544947",
"5. c #5C4946",
"6. c #554B4A",
"7. c #5B4C4A",
"8. c #5C5453",
"9. c #575653",
"0. c #4B4A48",
"q. c #634542",
"w. c #6B4542",
"e. c #644A46",
"r. c #6C4A46",
"t. c #644D4A",
"y. c #6C4D4A",
"u. c #734442",
"i. c #7A4542",
"p. c #734A46",
"a. c #7B4A45",
"s. c #744D4A",
"d. c #7C4E4A",
"f. c #65524D",
"g. c #6B524D",
"h. c #73534D",
"j. c #7C524D",
"k. c #785047",
"l. c #655451",
"z. c #6C5552",
"x. c #655A55",
"c. c #6D5954",
"v. c #645D5B",
"b. c #6C5C58",
"n. c #735552",
"m. c #7B5651",
"M. c #735A54",
"N. c #7C5B55",
"B. c #735D59",
"V. c #7B5D59",
"C. c #6D615C",
"Z. c #63615E",
"A. c #74625D",
"S. c #7B625D",
"D. c #6B6461",
"F. c #676766",
"G. c #756562",
"H. c #7B6561",
"J. c #736865",
"K. c #7C6964",
"L. c #7C6E69",
"P. c #756D6B",
"I. c #7D726C",
"U. c #7B7875",
"Y. c #822C28",
"T. c #83332E",
"R. c #88322C",
"E. c #833632",
"W. c #843935",
"Q. c #893B37",
"!. c #833D39",
"~. c #8C3E38",
"^. c #953A34",
"/. c #A43C33",
"(. c #83423D",
"). c #8B433E",
"_. c #92423D",
"`. c #954036",
"'. c #A1493E",
"]. c #844642",
"[. c #8A4641",
"{. c #834A44",
"}. c #8B4A44",
"|. c #834D49",
" X c #8C4E48",
".X c #934B45",
"XX c #994D45",
"oX c #84524C",
"OX c #8B534C",
"+X c #93534D",
"@X c #9C554D",
"#X c #825652",
"$X c #8B5751",
"%X c #845A54",
"&X c #8A5A54",
"*X c #835E59",
"=X c #8D5D58",
"-X c #975750",
";X c #965F58",
":X c #925B54",
">X c #A1564C",
",X c #83645D",
"<X c #8A625C",
"1X c #8D685F",
"2X c #95625B",
"3X c #9C665D",
"4X c #A2635A",
"5X c #836662",
"6X c #846A64",
"7X c #8A6A64",
"8X c #836D68",
"9X c #886F68",
"0X c #956E65",
"qX c #86716B",
"wX c #8B736C",
"eX c #9A726A",
"rX c #8A7771",
"tX c #8A7973",
"yX c #927A74",
"uX c #8D817C",
/* pixels */
"OXOXS.r.p.R >.u.n.B.m @.*X=XeX3XOX$X$X0Xd.i.G.y.i.].|.}.(.#XE j P {.}.(.(.).<.j.:.x w.2XOXOXOXd.",
"B <.y.@.@.b G R q.y.k ..oX&X3XOX{.OXOX*Xu.#.n.@.} <.i.a.[.j.3.V w.}.}.). .1.}.oXE k s.%X|.oXk.OX",
"3.B.J.3.J A H v K c.K 3.G.V.V.N.B.n.M.J.t.Q G.2.b +.3.@.,.n.2.U e.e.,.s.p.u.d.N.:.S g.,Xp.>.>.>.",
"U R @.N.A.n.b.B.s.n.y.m.*X*Xb.B.B.x.3.V.t.t.s.z.v.5X8Xv.M.7Xn.h.M.t.x.B.M.f.f.g.c.h.h.7XS.f.f.B.",
"^ ) ) i.*XY Q N.[. X X X{.}.0XOXOXN.X.i.@.*.].|.n.a.$Xn.w.a.O...Y R g.*.#.a.q.@.<.i.1.i.n.+.C <.",
"l l Z u.n.G v r.{ #.%.*.1.(.<X@.1.N.V c Y Z ( { k...a.N.<.i.@.n j b h.*.! +.Q Y ....o.o.g.o.{ @.",
"H.H.B.z.J.v.9.Z.G.G.c.n.h.5XyX8X5XK.l.z.H.B.z.5XL.A.rXtXz.V.n.t.g.3.A.M.f.c.7.w.e.y.h.h.S.r.T t.",
"@.r.s.#.=.#.C G +.H.u.p.N.i.}.}.*.#.O.H.N.j.S.#X].i.u.|.{.5X*Xw.V.V.s.p.y.j.a.n.e.>.N.#X:X$XoX#X",
"k G w.) =.&.| X.{ m.&.*.h.X.&.W.W.E. .d.a.*.s.*.#.X.u.u.#.p.@.t F <.@...B G b 3...M i.,.=.i.1.1.",
"j Q B...F X.( G Y b.G +.M.+.1.<...{ O.B.q.@.V.p.O.o.w.i.<.B.>.N r.w.U v v n n t.R D h.u.O.{ S D ",
"Y +.w.n.c.3.g.n.p.d.q.@.r.r.S.,XV.B.m.*Xw.r.h.N.rXS.S.8X,X6Xn.q.g.q.t.g.y.n.t.h.m.h.,Xr.M.y.>.l.",
"| ' k ,.:.; G *.' E.' X.=.{.#X|.i.N.$.!.).&.&.1.5Xq.w.m.{.#.C F F C g.a.} u.|.~._.(.{.*.j.w.N 1.",
"l k j R Q ; G o.M ( ( ( &.=.k.{.].V.l #.} / ) 1.S.N { #X*.} Z z N c y...w Y {.' ( ^ { B >.U s >.",
"e.5.Q 5.B.2.c.3.Q 3.y.y.n.5XB.g.M.L.3.V.h.f.3.g.K.;.e.,XM.w.h.n.e.:.S.S.:.c.,Xr.>.q.g.h.S.t.J M.",
"|.$XR ~ &.!.&.Q. X<X-X$X%X$X$Xu.*.*.s.7Xj.#X<X@X>X-X2X$X$X7X4X;X,X(..X.X).(.1.f.@.b g.&X+X4X2X X",
") u.{ / ) ) ! ~ #.,.&.!.i.&.].!.!.E.!.m.<.1. X^.`.).).(.X.|.XX#.<.W.Q.).E.E.| >.f w 1.(.W. .1.| ",
"S T :.{ @.@.O.#.j.7.c ,.m.1.1.1.=.=.<.B.e.r.6X(.).).oX(.k.N.D c m.(.).a.*.O.s.qXD c M.a.%...>.,.",
":.j.%Xg.3.e.c.S.9X9XS.,X6XqX9X,XrXwX$X<Xm.j.,Xh.A.A.c.A.C.A.c.g.C.l.L.eXeX7X,X=XoXw.h.r.M.S.N.,X",
"^ _ ` 1.<.} i.W %.(.1.1.(.1.k.| O.d._ E.] ` T.`.p.d N e.:.1.p.>...F 3..X'.@Xo.~ Q._.W.| r.4X).(.",
"f d f ,.Y t C +.| %.} ,.1.,.,.} =.*.y | / y [ W.h.q ^ m.;.O...N ..F e.%.h %.R 9 w t m s ;.).&.&.",
"e.;.K g.f.A ;.f.e.:.>.e.W g.f.T g.tXS.h.r.y.p.j.uXf.f.wXl.f.l.x.c.x.I.z.T f.L.M.z.g.c.g.K.n.T y.",
"J ;.%X{.|.@.w.@.g.M.d.k.,X$X=X2XOX.XOX6XW p.1X`.'.-XOX<X&X0X&X1.d.+X.XOX}.=.+.h.R @.h...%.X...o.",
". 2 i._ ( ( ( M C 2X!.&.j.{.oX{.T.Y.Q.#X)  .{.Y.Y.T.(.(.1.oX| h #.T. . .~ ! ! U = - R 9 g M t t ",
"> U N.( { ..( Z +.s.m Y N.p.1.@.%.#.(.M.F <.j.%._ 1.1.oX1.,X<.R ,.&.W.X.F B Z t.v H 5.2 x z n V ",
"E 3.g.g.b.r.N.S.h.t.W >.M.n.A.S.S.S.J.S.g.k.S.>.c.z.k.6Xc.z.f.:.t.q.n.M.h.z.z.m.h.e.e.E e.y.3.z.",
"% = o U 2.9 Y n.t M M ! / &.,XOX`.{.N ^ ^ h h f <.,.B ).>.s d g w 6 J i./.).o.p ~ h f g Y x . z ",
"o - 5 Z U 6 ! s.y y u p ~ ] s.].^.&.g i h p a u ,.,.e 1.:.= : - q - U O.a ) Y e e u t g V > @ 1 ",
"2.3.q.S.I.x.b.uXV.s.y.r.s.&XtXN.k.1X6X,X,Xk.k.%XuX,X,.6XK.g.g.f.t.r.c.S.U n.H.e.e.h.5X8XrXP.v.b.",
"s.%XG.>.q.R E K f.qX{.+X7Xq.,.+.Y V U S.,.>.<.:.>.D F ;.U S.(.<.H.q.Y V U U R g.W U M.R <.+.Y G ",
"y ^ q.6 r 6 5 r m p.h ` (.w 6 - o 6 # +.f u | < 8 8 - > = >.] g r.c 9 = = - - D % % U ; j q ; = ",
"c ..z.q d q > 9 z t.B M a.Y N m s z s z.<.X.k.A < , : , , f.<.U M.E S z 2 z c g.4 H x.J b b 2 3 ",
"G.qXqXM.A.B.A.B.A.L.A.K.tX6XS.c.h.S.M.M.6XS.,X1XL.A.M.M.c.M.B.x.B.c.wX9X,XH.z.c.N.M.S.*X9XB.B.8X",
"] ` ] _ #X~.E.i.) h M ' $.&.|.G Z =.Z u y i i i +.D z +.C w - O e f ,.}.$.*.1 q - ; 9 Z :.= z 3.",
"y u u e i.] a ' i u i p ] $.=.j 6 G B l 7 7 t u C z q Y f 8 - 6 7 7 o.C k o.> + % + - s 2.% : ;.",
"R Q +.@.L.q...p.s.@.u.*.<.|.7X7.b 3.+.G +.+.+.w.B.e.q.M.r.,.Y Y U :.l.K 3.K.b.y.q.:.:.y.g.A :.A.",
"q.c.P.6.7.7.E ;.z.U.l.7.b.q.s.m.y.y.q.B.h.q.H.q.>.,.>.p.:.S.:.K z.,.O.%.u.u.s.5X X@.S.>.....@.*.",
"- m q.+ + + = = c ;.- w r.q l 0 l 0 9 w.0 O q.n - > , > % W > + R f ! w ! [ / R q , :.t m ^ B B ",
"= q E @ $ $ * , b 7.z C n.x m j 1 1 1 z.n 1 q.G : & 3 z n z.J z t.F B V U V +.t.< 2 S.,.+.,.{ { ",
"D.D.G.l.8.l.z.v.D.I.C.J.P.b.B.V.5XP.A.8XB.H.5X5XI.C.A.K.N.B.m.m.A.M.K.N.5XqXV.B.y.y.M.z.M.y.h.b.",
"V C ( ..e.( } q.z x Z j z b s.#.&.u.G ) M l ' ~ e.v b e.z q q > - s T 8 z Q q 9 d q 8 z D g { P ",
"7 7 e 0 G O e W ; q - # 9 x R l l G k l 6 6 y f 3.: 1 Q 1 = = = = ; L & ; 3.9 l B g w V J - F -.",
"G Q Y R c.5.3.J.2.R 3.2.3.l.b.W W b.q.q.q.s.n.n.A.H I l.t.r.e.e.t.n.G.6.8.H.q.w.r.w.r.,Xb.:.f.C.",
"l.c.D.6.7.6.2.2.7.P.2.E z.m.i.+.@.u.@.b.u...y.3.v G R Y Y n.$X[.-X:.V Y Q b b e.R v 3.@.B c c N ",
"; # E @ + X X @ % 3.j - S #.[ ~ f l r w.l e ..j o = k l 0 Y $.l #.k # + # # # U x , S m w , q q ",
"= = -.% $       $ 4.3 , J ..k B b Z b b.o.G n.2.c n J v 1 -.w.C a.3.n v H H E x.4.I x.p.W W 3.2.",
"6.4.F.8.6.P 0.0.4 v.v.4.8.4.4.z.V.G.C.G.B.t.z.A.K.*X%XV.g.t.;.Q q.z.b.s.n.G.M.s.w.w.q.r.K.e.z.z.",
"> q j x 7.n 1 x.P > > j j 2 B.[.W.i.l 0 0 9 9 # W / ~ i.Z k m k k j W k Z R 0 0 t 9 - j E = z S ",
"+ # = = P , = 8.v 1 & 1 1 j y.#.| u.b j k k j j W } X.r.U C x x k m ;.j w r.x k q j > v 5.1 Q -."
};
